<svg
  viewBox="0 0 42 42"
  xmlns="http://www.w3.org/2000/svg"
>
  <path
    fill-rule="evenodd"
    clip-rule="evenodd"
    d="M0 7.875C0 3.52576 3.52576 0 7.875 0H10.5C14.8492 0 18.375 3.52576 18.375 7.875V10.5C18.375 14.8492 14.8492 18.375 10.5 18.375H7.875C3.52576 18.375 0 14.8492 0 10.5V7.875ZM23.625 7.875C23.625 3.52578 27.1507 0 31.5 0H34.125C38.4744 0 42 3.52578 42 7.875V10.5C42 14.8492 38.4744 18.375 34.125 18.375H31.5C27.1507 18.375 23.625 14.8492 23.625 10.5V7.875ZM0 31.5C0 27.1507 3.52578 23.625 7.875 23.625H10.5C14.8492 23.625 18.375 27.1507 18.375 31.5V34.125C18.375 38.4744 14.8492 42 10.5 42H7.875C3.52578 42 0 38.4744 0 34.125V31.5ZM23.625 31.5C23.625 27.1507 27.1507 23.625 31.5 23.625H34.125C38.4743 23.625 42 27.1507 42 31.5V34.125C42 38.4743 38.4743 42 34.125 42H31.5C27.1507 42 23.625 38.4743 23.625 34.125V31.5Z"
  />
</svg>
