<svg
  viewBox="0 0 42 42"
  xmlns="http://www.w3.org/2000/svg"
>
  <path
    fill-rule="evenodd"
    clip-rule="evenodd"
    d="M7.875 5.25C6.42525 5.25 5.25 6.42525 5.25 7.875V10.5C5.25 11.9497 6.42525 13.125 7.875 13.125H10.5C11.9497 13.125 13.125 11.9497 13.125 10.5V7.875C13.125 6.42525 11.9497 5.25 10.5 5.25H7.875ZM0 7.875C0 3.52576 3.52576 0 7.875 0H10.5C14.8492 0 18.375 3.52576 18.375 7.875V10.5C18.375 14.8492 14.8492 18.375 10.5 18.375H7.875C3.52576 18.375 0 14.8492 0 10.5V7.875ZM31.5 5.25C30.0502 5.25 28.875 6.42523 28.875 7.875V10.5C28.875 11.9498 30.0502 13.125 31.5 13.125H34.125C35.5748 13.125 36.75 11.9498 36.75 10.5V7.875C36.75 6.42523 35.5748 5.25 34.125 5.25H31.5ZM23.625 7.875C23.625 3.52578 27.1507 0 31.5 0H34.125C38.4743 0 42 3.52578 42 7.875V10.5C42 14.8492 38.4743 18.375 34.125 18.375H31.5C27.1507 18.375 23.625 14.8492 23.625 10.5V7.875ZM7.875 28.875C6.42523 28.875 5.25 30.0502 5.25 31.5V34.125C5.25 35.5748 6.42523 36.75 7.875 36.75H10.5C11.9498 36.75 13.125 35.5748 13.125 34.125V31.5C13.125 30.0502 11.9498 28.875 10.5 28.875H7.875ZM0 31.5C0 27.1507 3.52578 23.625 7.875 23.625H10.5C14.8492 23.625 18.375 27.1507 18.375 31.5V34.125C18.375 38.4743 14.8492 42 10.5 42H7.875C3.52578 42 0 38.4743 0 34.125V31.5ZM31.5 28.875C30.0502 28.875 28.875 30.0502 28.875 31.5V34.125C28.875 35.5748 30.0502 36.75 31.5 36.75H34.125C35.5748 36.75 36.75 35.5748 36.75 34.125V31.5C36.75 30.0502 35.5748 28.875 34.125 28.875H31.5ZM23.625 31.5C23.625 27.1507 27.1507 23.625 31.5 23.625H34.125C38.4743 23.625 42 27.1507 42 31.5V34.125C42 38.4743 38.4743 42 34.125 42H31.5C27.1507 42 23.625 38.4743 23.625 34.125V31.5Z"
  />
</svg>
