<svg viewBox="0 0 26 20" xmlns="http://www.w3.org/2000/svg">
  <path
    fill-rule="evenodd"
    clip-rule="evenodd"
    d="M15.3671 0.00251868C15.8833 -0.0309375 16.3641 0.27146 16.5678 0.757615L19.917 8.75H24C24.675 8.75 25.2222 9.30965 25.2222 10C25.2222 10.6904 24.675 11.25 24 11.25H19.1111C18.6222 11.25 18.1803 10.952 17.9877 10.4924L15.6752 4.97398L11.7307 19.0934C11.5887 19.602 11.149 19.964 10.6329 19.9975C10.1167 20.0309 9.63587 19.7285 9.43215 19.2424L6.08295 11.25H1.99999C1.32498 11.25 0.777771 10.6904 0.777771 10C0.777771 9.30965 1.32498 8.75 1.99999 8.75H6.88888C7.37781 8.75 7.81969 9.048 8.01228 9.5076L10.3248 15.026L14.2692 0.906613C14.4113 0.398042 14.851 0.035975 15.3671 0.00251868Z"
  />
</svg>
