<svg viewBox="0 0 81 95" xmlns="http://www.w3.org/2000/svg">
  <path
    fill-rule="evenodd"
    clip-rule="evenodd"
    d="M15.2709 0C6.98662 0 0.270874 7.08885 0.270874 15.8333V79.1667C0.270874 87.9114 6.98662 95 15.2709 95H65.2709C73.5554 95 80.2709 87.9114 80.2709 79.1667V15.8333C80.2709 7.08885 73.5554 0 65.2709 0H15.2709ZM70.2709 15.8333C70.2709 12.9185 68.0324 10.5556 65.2709 10.5556H15.2709C12.5095 10.5556 10.2709 12.9185 10.2709 15.8333V58.0556H24.9527C27.5187 58.0556 30.0052 58.9908 31.9884 60.6522C36.8119 64.6929 43.6934 64.7235 48.4469 60.7414C50.5229 59.0024 53.0954 58.0556 55.7464 58.0556H70.2709V15.8333ZM10.2709 68.6111V79.1667C10.2709 82.0816 12.5095 84.4444 15.2709 84.4444H65.2709C68.0324 84.4444 70.2709 82.0816 70.2709 79.1667V68.6111H55.7464C55.3529 68.6111 54.9714 68.7515 54.6634 69.0096C46.1994 76.1003 34.1654 75.952 25.7717 68.9199C25.5299 68.7177 25.2272 68.6111 24.9527 68.6111H10.2709ZM20.2709 42.2222C20.2709 39.3073 22.5095 36.9444 25.2709 36.9444H55.2709C58.0324 36.9444 60.2709 39.3073 60.2709 42.2222C60.2709 45.1371 58.0324 47.5 55.2709 47.5H25.2709C22.5095 47.5 20.2709 45.1371 20.2709 42.2222ZM25.2709 21.1111C22.5095 21.1111 20.2709 23.4741 20.2709 26.3889C20.2709 29.3037 22.5095 31.6667 25.2709 31.6667H55.2709C58.0324 31.6667 60.2709 29.3037 60.2709 26.3889C60.2709 23.4741 58.0324 21.1111 55.2709 21.1111H25.2709Z"
  />
</svg>
