<svg
  viewBox="0 0 40 38"
  xmlns="http://www.w3.org/2000/svg"
>
  <path
    d="M39.0184 16.6537L23.1139 0.954141C21.8152 -0.327431 19.7211 -0.317062 18.4369 0.979714C17.1527 2.27493 17.1639 4.36475 18.4626 5.64633L28.6466 15.7004H3.30695C1.48094 15.7005 0 17.1775 0 18.9998C0 20.8228 1.48094 22.2998 3.30695 22.2998H28.6466L18.4626 32.3531C17.1639 33.6347 17.1527 35.7254 18.4369 37.0206C19.7211 38.3165 21.8152 38.3277 23.1139 37.0462L39.0184 21.3467C39.6469 20.7259 40 19.8816 40 18.9998C40 18.1178 39.6468 17.2743 39.0184 16.6537Z"
  />
</svg>
