<svg
  viewBox="0 0 40 40"
  xmlns="http://www.w3.org/2000/svg"
>
  <path
    fill-rule="evenodd"
    clip-rule="evenodd"
    d="M11.8245 23.2438C11.3942 24.0438 11.6515 24.7033 12.538 25.5898L13.3597 26.4114C14.257 27.3087 14.9294 27.5585 15.7067 27.125C15.9889 26.9736 16.2916 26.7368 16.6159 26.4114L21.5036 21.5249C22.4182 20.7314 23.3609 21.06 24.2474 21.9465C25.1555 22.8438 25.7069 23.913 24.8852 24.8871L17.5576 32.218C14.9521 34.8234 11.004 35.4397 7.78444 32.218C4.88494 29.3196 5.179 25.0493 7.78444 22.4438L22.4409 7.782C25.0463 5.17547 28.9058 4.47384 32.2151 7.782C35.5124 11.0804 35.027 14.7453 33.0259 16.7464C31.761 18.0113 31.9005 19.4924 32.6897 20.3573L33.5005 21.167C34.734 22.3887 35.8584 22.0103 37.0692 20.7789C41.2206 15.8048 40.9622 8.38849 36.2908 3.70627C31.3383 -1.23542 23.3166 -1.23542 18.3662 3.70627L3.70546 18.3681C-1.23515 23.3195 -1.23515 31.3423 3.70546 36.2937C8.65689 41.2354 16.6797 41.2354 21.6311 36.2937L28.961 28.9628C31.1761 25.6006 30.8637 21.233 27.9112 18.2816C24.9696 15.3399 20.776 15.2751 17.4257 17.4481L12.538 22.3357C12.2148 22.66 11.9759 22.9627 11.8245 23.2438Z"
  />
</svg>
