<svg viewBox="0 0 72 84" xmlns="http://www.w3.org/2000/svg">
  <path
    fill-rule="evenodd"
    clip-rule="evenodd"
    d="M12.2052 2.73509C12.7496 1.10172 14.2782 0 15.9999 0H48C49.2644 0 50.4543 0.597839 51.2091 1.61227C51.9639 2.62671 52.1946 3.93829 51.8313 5.14938L47.3761 20H67.9999C69.5909 20 71.0305 20.9428 71.6665 22.4011C72.3024 23.8594 72.0136 25.5559 70.9311 26.7218L18.9311 82.7217C17.713 84.0334 15.7717 84.3762 14.1781 83.5609C12.5845 82.7456 11.7265 80.9707 12.0776 79.2154L19.1207 43.9999H4.00002C2.71425 43.9999 1.50687 43.3818 0.755062 42.3388C0.00325756 41.2957 -0.201301 39.9548 0.205293 38.735L12.2052 2.73509ZM18.883 7.99999L9.54971 35.9999H23.9999C25.1983 35.9999 26.3335 36.5372 27.0933 37.464C27.853 38.3907 28.1572 39.6093 27.9222 40.7844L22.6973 66.9088L58.8271 28H42C40.7355 28 39.5456 27.4021 38.7908 26.3877C38.036 25.3732 37.8053 24.0617 38.1687 22.8506L42.6238 7.99999H18.883Z"
  />
</svg>
