<svg
  viewBox="0 0 99 138"
  xmlns="http://www.w3.org/2000/svg"
>
  <path
    fill-rule="evenodd"
    clip-rule="evenodd"
    d="M0.228516 21.878C0.228516 9.79513 10.0628 0 22.194 0H76.263C88.3945 0 98.2285 9.79521 98.2285 21.878V129.585C98.2285 132.502 96.7125 135.21 94.2218 136.743C91.7311 138.276 88.6209 138.416 86.0021 137.112L49.2285 118.798L12.455 137.112C9.83611 138.416 6.72596 138.276 4.23527 136.743C1.74458 135.21 0.228516 132.502 0.228516 129.585V21.878ZM22.194 16.8293C19.3945 16.8293 17.1251 19.0897 17.1251 21.878V115.97L45.4503 101.864C47.8288 100.679 50.6283 100.679 53.0067 101.864L81.332 115.97V21.878C81.332 19.0896 79.0626 16.8293 76.263 16.8293H22.194Z"
  />
</svg>
