<svg viewBox="0 0 45 60" xmlns="http://www.w3.org/2000/svg">
  <path
    fill-rule="evenodd"
    clip-rule="evenodd"
    d="M22.5 7.49995C19.3898 7.49995 16.3565 8.46673 13.82 10.2665C11.2834 12.0662 9.36903 14.61 8.34178 17.5456C7.31453 20.4812 7.22522 23.6636 8.0862 26.6522C8.94718 29.6408 10.7159 32.2879 13.1475 34.2271L13.1497 34.2288C15.2063 35.8715 17.2911 38.2557 18.2315 41.2501H26.765C27.706 38.2556 29.7924 35.8732 31.8497 34.2293L31.8525 34.2271C34.2841 32.2879 36.0528 29.6408 36.9138 26.6522C37.7748 23.6636 37.6855 20.4812 36.6582 17.5456C35.631 14.61 33.7166 12.0662 31.18 10.2665C28.6435 8.46673 25.6102 7.49995 22.5 7.49995ZM26.2481 48.7501H18.7481V52.5001H26.2481V48.7501ZM9.47996 4.14981C13.2848 1.45017 17.8347 0 22.5 0C27.1653 0 31.7152 1.45017 35.52 4.14981C39.3249 6.84944 42.1965 10.665 43.7373 15.0685C45.2782 19.4719 45.4122 24.2454 44.1207 28.7284C42.8294 33.2107 40.1769 37.1808 36.5303 40.0895C34.6405 41.5999 33.7481 43.2295 33.7481 44.5989V52.5001C33.7481 54.4892 32.958 56.3968 31.5514 57.8033C30.1449 59.2098 28.2372 60 26.2481 60H18.7481C16.759 60 14.8514 59.2098 13.4448 57.8033C12.0383 56.3968 11.2481 54.4892 11.2481 52.5001V44.5989C11.2481 43.2271 10.3529 41.5936 8.46907 40.089C4.82277 37.1804 2.17052 33.2104 0.879301 28.7284C-0.412172 24.2454 -0.278201 19.4719 1.26267 15.0685C2.80355 10.665 5.67512 6.84944 9.47996 4.14981ZM22.4981 22.5003C24.5692 22.5003 26.2481 24.1792 26.2481 26.2502V33.7502C26.2481 35.8212 24.5692 37.5002 22.4981 37.5002C20.4271 37.5002 18.7481 35.8212 18.7481 33.7502V26.2502C18.7481 24.1792 20.4271 22.5003 22.4981 22.5003Z"
  />
</svg>
