<svg
  viewBox="0 0 45 43"
  xmlns="http://www.w3.org/2000/svg"
>
  <path
    fill-rule="evenodd"
    clip-rule="evenodd"
    d="M5.9625 4.13026C9.92342 1.1422 15.5853 0 22.5 0C29.4147 0 35.0766 1.1422 39.0375 4.13026C43.1423 7.22687 45 11.9689 45 18.1052C45 24.1383 43.2052 28.8291 39.2299 31.9325C35.4677 34.8695 30.1231 36.0793 23.6126 36.2003L7.60669 42.8295C6.78476 43.1699 5.84062 42.9917 5.19731 42.3747C4.554 41.7577 4.33212 40.8176 4.63108 39.9756L7.14744 32.8886C5.07897 31.6132 3.41311 29.9338 2.21125 27.8068C0.68767 25.1105 0 21.8558 0 18.1052C0 11.9689 1.85769 7.22687 5.9625 4.13026ZM8.6625 7.75131C6.01731 9.7468 4.5 12.9258 4.5 18.1052C4.5 21.3186 5.09059 23.7422 6.12352 25.5703C7.1405 27.3701 8.67437 28.7504 10.8541 29.7516C11.9169 30.2397 12.4314 31.4647 12.0384 32.5714L10.57 36.7072L22.2949 31.851C22.5589 31.7417 22.8412 31.6839 23.1268 31.6807C29.4842 31.6101 33.7839 30.4544 36.4708 28.3568C39.0283 26.3603 40.5 23.2044 40.5 18.1052C40.5 12.9258 38.9827 9.7468 36.3375 7.75131C33.5484 5.64726 29.0853 4.52631 22.5 4.52631C15.9147 4.52631 11.4516 5.64726 8.6625 7.75131ZM11.25 18.1052C11.25 16.8553 12.2574 15.8421 13.5 15.8421H13.5225C14.7651 15.8421 15.7725 16.8553 15.7725 18.1052C15.7725 19.3551 14.7651 20.3684 13.5225 20.3684H13.5C12.2574 20.3684 11.25 19.3551 11.25 18.1052ZM20.25 18.1052C20.25 16.8553 21.2574 15.8421 22.5 15.8421H22.5225C23.7651 15.8421 24.7725 16.8553 24.7725 18.1052C24.7725 19.3551 23.7651 20.3684 22.5225 20.3684H22.5C21.2574 20.3684 20.25 19.3551 20.25 18.1052ZM29.25 18.1052C29.25 16.8553 30.2574 15.8421 31.5 15.8421H31.5225C32.7651 15.8421 33.7725 16.8553 33.7725 18.1052C33.7725 19.3551 32.7651 20.3684 31.5225 20.3684H31.5C30.2574 20.3684 29.25 19.3551 29.25 18.1052Z"
  />
</svg>
