<svg
  viewBox="0 0 45 43"
  xmlns="http://www.w3.org/2000/svg"
>
  <path
    fill-rule="evenodd"
    clip-rule="evenodd"
    d="M5.9625 4.13026C9.92342 1.1422 15.5853 0 22.5 0C29.4147 0 35.0766 1.1422 39.0375 4.13026C43.1423 7.22687 45 11.9689 45 18.1052C45 24.1383 43.2052 28.8291 39.2299 31.9325C35.4678 34.8695 30.1231 36.0793 23.6126 36.2003L7.60669 42.8295C6.78476 43.1699 5.84062 42.9917 5.19731 42.3747C4.554 41.7577 4.33212 40.8176 4.63108 39.9756L7.14744 32.8886C5.07897 31.6132 3.41311 29.9338 2.21125 27.8068C0.68767 25.1105 0 21.8558 0 18.1052C0 11.9689 1.85769 7.22687 5.9625 4.13026ZM11.25 18.1052C11.25 16.8553 12.2574 15.8421 13.5 15.8421H13.5225C14.7651 15.8421 15.7725 16.8553 15.7725 18.1052C15.7725 19.3551 14.7651 20.3684 13.5225 20.3684H13.5C12.2574 20.3684 11.25 19.3551 11.25 18.1052ZM22.5 15.8421C21.2574 15.8421 20.25 16.8553 20.25 18.1052C20.25 19.3551 21.2574 20.3684 22.5 20.3684H22.5225C23.7651 20.3684 24.7725 19.3551 24.7725 18.1052C24.7725 16.8553 23.7651 15.8421 22.5225 15.8421H22.5ZM29.25 18.1052C29.25 16.8553 30.2574 15.8421 31.5 15.8421H31.5225C32.7651 15.8421 33.7725 16.8553 33.7725 18.1052C33.7725 19.3551 32.7651 20.3684 31.5225 20.3684H31.5C30.2574 20.3684 29.25 19.3551 29.25 18.1052Z"
  />
</svg>
