<svg
  viewBox="0 0 512 512"
  xmlns="http://www.w3.org/2000/svg"
>
  <g clip-path="url(#clip0_7506_8256)">
    <path
      d="M256 140H484C504.284 179.918 513.743 224.458 511.434 269.174C509.125 313.89 495.128 357.218 470.84 394.834C446.552 432.45 412.822 463.038 373.019 483.545C333.215 504.051 288.728 513.759 244 511.7"
      fill="#FFCC44"
    />
    <path
      d="M357 314L244 511.7C199.108 509.656 155.544 495.831 117.689 471.614C79.8329 447.398 49.019 413.643 28.3441 373.742C7.66926 333.842 -2.13806 289.202 -0.0920286 244.309C1.95401 199.417 15.7813 155.854 40 118"
      fill="#0F9D58"
    />
    <path
      d="M256 140H484C463.576 99.7545 432.875 65.6237 395.01 41.0667C357.144 16.5097 313.46 2.39941 268.384 0.165906C223.308 -2.06759 178.442 7.65508 138.334 28.3485C98.2268 49.042 64.3026 79.9707 40 118L155 314"
      fill="#DB4437"
    />
    <path
      d="M256 361C313.99 361 361 313.99 361 256C361 198.01 313.99 151 256 151C198.01 151 151 198.01 151 256C151 313.99 198.01 361 256 361Z"
      fill="#4285F4"
      stroke="#F1F1F1"
      stroke-width="24"
    />
  </g>
  <defs>
    <clipPath id="clip0_7506_8256">
      <rect width="512" height="512" fill="white" />
    </clipPath>
  </defs>
</svg>
