<svg viewBox="0 0 22 18" xmlns="http://www.w3.org/2000/svg">
  <path
    d="M1.40154 0C2.17559 0 2.80309 0.644717 2.80309 1.44V16.56C2.80309 17.3553 2.1756 18 1.40154 18C0.627499 18 0 17.3553 0 16.56V1.44C0 0.644717 0.627499 0 1.40154 0ZM11.1981 3.66176C11.7455 3.09941 12.6329 3.09941 13.1802 3.66176C13.7276 4.22412 13.7276 5.13588 13.1802 5.69824L11.3682 7.56H20.5985C21.3725 7.56 22 8.20472 22 9C22 9.79528 21.3725 10.44 20.5985 10.44H11.3682L13.1802 12.3018C13.7276 12.8641 13.7276 13.7759 13.1802 14.3382C12.6329 14.9005 11.7455 14.9005 11.1981 14.3382L6.00246 9L11.1981 3.66176Z"
  />
</svg>
