<svg viewBox="0 0 39 43" xmlns="http://www.w3.org/2000/svg">
  <path
    fill-rule="evenodd"
    clip-rule="evenodd"
    d="M0 2.62195C0 1.17389 1.17071 0 2.61486 0H27.7176C29.1617 0 30.3324 1.17389 30.3324 2.62195C30.3324 4.07001 29.1617 5.2439 27.7176 5.2439H5.22973V29.8902C5.22973 31.3383 4.05901 32.5122 2.61486 32.5122C1.17071 32.5122 0 31.3383 0 29.8902V2.62195Z"
  />
  <path
    fill-rule="evenodd"
    clip-rule="evenodd"
    d="M8.36757 11.0122C8.36757 9.56413 9.53828 8.39024 10.9824 8.39024H36.0851C37.5293 8.39024 38.7 9.56413 38.7 11.0122V36.1829C38.7 39.948 35.6562 43 31.9014 43H15.1662C11.4115 43 8.36757 39.948 8.36757 36.1829V11.0122ZM13.5973 13.6341V36.1829C13.5973 37.0518 14.2997 37.7561 15.1662 37.7561H31.9014C32.7679 37.7561 33.4703 37.0518 33.4703 36.1829V13.6341H13.5973Z"
  />
</svg>
