<svg
  viewBox="0 0 81 95"
  xmlns="http://www.w3.org/2000/svg"
>
  <path
    fill-rule="evenodd"
    clip-rule="evenodd"
    d="M30.2709 10C27.5094 10 25.2709 12.2386 25.2709 15V20H55.2709V15C55.2709 12.2385 53.0324 10 50.2709 10H30.2709ZM65.2709 20V15C65.2709 6.71578 58.5553 0 50.2709 0H30.2709C21.9866 0 15.2709 6.71573 15.2709 15V20H5.27087C2.50945 20 0.270874 22.2386 0.270874 25C0.270874 27.7614 2.50945 30 5.27087 30V80C5.27087 88.2845 11.9866 95 20.2709 95H60.2709C68.5553 95 75.2709 88.2844 75.2709 80V30C78.0323 30 80.2709 27.7614 80.2709 25C80.2709 22.2386 78.0323 20 75.2709 20H65.2709ZM65.2709 30H15.2709V80C15.2709 82.7615 17.5094 85 20.2709 85H60.2709C63.0325 85 65.2709 82.7616 65.2709 80V30ZM30.2709 40C33.0323 40 35.2709 42.2386 35.2709 45V70C35.2709 72.7614 33.0323 75 30.2709 75C27.5095 75 25.2709 72.7614 25.2709 70V45C25.2709 42.2386 27.5095 40 30.2709 40ZM50.2709 40C53.0323 40 55.2709 42.2386 55.2709 45V70C55.2709 72.7614 53.0323 75 50.2709 75C47.5095 75 45.2709 72.7614 45.2709 70V45C45.2709 42.2386 47.5095 40 50.2709 40Z"
  />
</svg>
