<svg viewBox="0 0 20 20" xmlns="http://www.w3.org/2000/svg">
  <path
    fill-rule="evenodd"
    clip-rule="evenodd"
    d="M2.5 2.5V10.5H17.5V2.5H2.5ZM2 0C0.895431 0 0 0.89543 0 2V11C0 12.1046 0.895431 13 2 13H18C19.1046 13 20 12.1046 20 11V2C20 0.89543 19.1046 0 18 0H2Z"
  />
  <path
    d="M5 18C5 19.1046 4.10457 20 3 20C1.89543 20 1 19.1046 1 18C1 16.8954 1.89543 16 3 16C4.10457 16 5 16.8954 5 18Z"
  />
  <path
    d="M7 18C7 17.3649 7.51487 16.85 8.15 16.85H17.85C18.4851 16.85 19 17.3649 19 18C19 18.6351 18.4851 19.15 17.85 19.15H8.15C7.51487 19.15 7 18.6351 7 18Z"
  />
</svg>
