<svg viewBox="0 0 20 20" xmlns="http://www.w3.org/2000/svg">
  <path
    fill-rule="evenodd"
    clip-rule="evenodd"
    d="M2.5 2.5V10.5H17.5V2.5H2.5ZM2 0C0.89543 0 0 0.89543 0 2V11C0 12.1046 0.89543 13 2 13H18C19.1046 13 20 12.1046 20 11V2C20 0.89543 19.1046 0 18 0H2Z"
  />
  <path
    d="M4 18C4 19.1046 3.10457 20 2 20C0.89543 20 0 19.1046 0 18C0 16.8954 0.89543 16 2 16C3.10457 16 4 16.8954 4 18Z"
  />
  <path
    d="M6 18C6 17.4477 6.44771 17 7 17H17C17.5523 17 18 17.4477 18 18C18 18.5523 17.5523 19 17 19H7C6.44771 19 6 18.5523 6 18Z"
  />
</svg>
