<svg viewBox="0 0 40 49" xmlns="http://www.w3.org/2000/svg">
  <path
    fill-rule="evenodd"
    clip-rule="evenodd"
    d="M13.9842 0.652346C14.401 0.234665 14.9662 0 15.5556 0H33.3333C37.0153 0 40 2.99156 40 6.68182V42.3182C40 46.0086 37.0153 49 33.3333 49H6.66667C2.98478 49 0 46.0086 0 42.3182V15.5909C0 15.0002 0.234134 14.4337 0.650867 14.016L13.9842 0.652346ZM33.3333 4.45455H17.7778V15.5909C17.7778 16.821 16.7829 17.8182 15.5556 17.8182H4.44444V42.3182C4.44444 43.5483 5.43938 44.5455 6.66667 44.5455H33.3333C34.5607 44.5455 35.5556 43.5483 35.5556 42.3182V6.68182C35.5556 5.45174 34.5607 4.45455 33.3333 4.45455ZM7.58713 13.3636H13.3333V7.60438L7.58713 13.3636ZM8.88889 26.7273C8.88889 25.4972 9.88382 24.5 11.1111 24.5H28.8889C30.1162 24.5 31.1111 25.4972 31.1111 26.7273C31.1111 27.9574 30.1162 28.9545 28.8889 28.9545H11.1111C9.88382 28.9545 8.88889 27.9574 8.88889 26.7273ZM8.88889 35.6364C8.88889 34.4062 9.88382 33.4091 11.1111 33.4091H28.8889C30.1162 33.4091 31.1111 34.4062 31.1111 35.6364C31.1111 36.8665 30.1162 37.8636 28.8889 37.8636H11.1111C9.88382 37.8636 8.88889 36.8665 8.88889 35.6364Z"
  />
</svg>
