<svg viewBox="0 0 84 80" xmlns="http://www.w3.org/2000/svg">
  <path
    fill-rule="evenodd"
    clip-rule="evenodd"
    d="M55.881 4.07859C61.2831 -1.35948 70.0423 -1.35959 75.4444 4.07862L76.1745 4.81342L76.1748 4.81374C81.5767 10.2517 81.5767 19.0683 76.1748 24.5063L76.1747 24.5064L26.8608 74.1467C26.179 74.833 25.3246 75.32 24.3891 75.5554L7.36347 79.84C5.55038 80.2963 3.6324 79.7615 2.31089 78.4312C0.989385 77.101 0.458138 75.1703 0.911411 73.3452L5.16782 56.2069C5.4017 55.2652 5.88543 54.4051 6.5673 53.7188L55.881 4.07859ZM67.9198 11.6525C66.6734 10.3978 64.652 10.3977 63.4056 11.6525L63.4055 11.6526L15.1337 60.2439L13.3854 67.2834L20.3786 65.5236L68.6504 16.9322C69.8968 15.6774 69.8968 13.6429 68.6506 12.388L68.6503 12.3877L67.9198 11.6525Z"
  />
  <path
    fill-rule="evenodd"
    clip-rule="evenodd"
    d="M49.1313 10.8729C51.2091 8.7814 54.5779 8.7814 56.6557 10.8729L69.4249 23.7267C71.5027 25.8182 71.5027 29.2093 69.4249 31.3008C67.3471 33.3924 63.9783 33.3924 61.9006 31.3008L49.1313 18.4471C47.0536 16.3555 47.0536 12.9645 49.1313 10.8729Z"
  />
  <path
    fill-rule="evenodd"
    clip-rule="evenodd"
    d="M39.0602 74.6442C39.0602 71.6863 41.4423 69.2884 44.3807 69.2884H78.4319C81.3704 69.2884 83.7524 71.6863 83.7524 74.6442C83.7524 77.602 81.3704 79.9999 78.4319 79.9999H44.3807C41.4423 79.9999 39.0602 77.602 39.0602 74.6442Z"
  />
</svg>
