<svg
  viewBox="0 0 128 128"
  fill="none"
  xmlns="http://www.w3.org/2000/svg"
>
  <path
    d="M0 28C0 12.536 12.536 0 28 0L62 16.5L100 0C115.464 0 128 12.536 128 28V100C128 115.464 115.464 128 100 128H28C12.536 128 0 115.464 0 100V28Z"
    fill="#1D4ED8"
  />
  <path
    fill-rule="evenodd"
    clip-rule="evenodd"
    d="M28 0H100V83.1097C100 85.4977 98.8862 87.7155 97.0563 88.9709C95.2264 90.2264 92.9414 90.3405 91.0173 89.2726L64 62.0353L36.9827 89.2726C35.0586 90.3405 32.7736 90.2264 30.9437 88.9709C29.1138 87.7155 28 85.4977 28 83.1097V0Z"
    fill="white"
  />
</svg>
