<svg viewBox="0 0 41 31" xmlns="http://www.w3.org/2000/svg">
  <path
    d="M40.8179 14.5416C40.5828 13.9461 34.8817 0 20.5 0C6.11827 0 0.417217 13.9461 0.182102 14.5416C-0.0607006 15.1571 -0.0607006 15.8436 0.182102 16.4591C0.417217 17.0539 6.11827 31 20.5 31C34.8817 31 40.5828 17.0539 40.8179 16.4584C41.0607 15.8429 41.0607 15.1571 40.8179 14.5416ZM20.5 20.6667C17.6697 20.6667 15.3749 18.3533 15.3749 15.5C15.3749 12.6467 17.6697 10.3333 20.5 10.3333C23.3303 10.3333 25.6251 12.6467 25.6251 15.5C25.6251 18.3533 23.3303 20.6667 20.5 20.6667Z"
  />
</svg>
