<svg
  viewBox="0 0 48 43"
  xmlns="http://www.w3.org/2000/svg"
>
  <path
    fill-rule="evenodd"
    clip-rule="evenodd"
    d="M4.82481 4.80591C4.82437 4.81131 4.82394 4.81685 4.82351 4.82252C4.80186 5.10926 4.80027 5.50575 4.80027 6.21112V10.6067C4.80027 10.8756 4.80069 11.0066 4.80443 11.1013C4.80917 11.1106 4.81389 11.1209 4.81851 11.1303C4.83805 11.1572 4.86871 11.1978 4.91773 11.2597C4.96704 11.3221 5.02656 11.3956 5.10294 11.4891C5.10646 11.4935 5.10997 11.4978 5.11347 11.5021L13.0282 21.3378C13.3289 21.7063 13.626 22.0753 13.8746 22.5654C14.0672 22.938 14.2096 23.3342 14.2983 23.7438C14.3008 23.7555 14.3033 23.7671 14.3056 23.7787C14.4023 24.26 14.4012 24.754 14.4004 25.1285C14.4003 25.1622 14.4002 25.195 14.4002 25.2267V35.8333L19.2002 32.25V25.2267C19.2002 25.1928 19.2001 25.1582 19.2 25.1229C19.1992 24.7306 19.1982 24.2593 19.2948 23.7787C19.2971 23.7671 19.2996 23.7555 19.3021 23.7438C19.3876 23.3488 19.5232 22.9661 19.7055 22.6052C19.9428 22.1064 20.2904 21.6819 20.5312 21.3879C20.5453 21.3707 20.5591 21.354 20.5724 21.3376L28.4869 11.5021C28.4904 11.4978 28.4939 11.4935 28.4974 11.4891C28.6524 11.2993 28.7246 11.2065 28.7672 11.1472C28.7811 11.1277 28.7878 11.1175 28.79 11.114C28.7918 11.1104 28.7937 11.1067 28.7955 11.1031C28.7957 11.1002 28.7958 11.0973 28.7959 11.0942C28.7997 10.995 28.8001 10.8621 28.8001 10.6067V6.21112C28.8001 5.50214 28.7982 5.11613 28.7753 4.84032C28.7742 4.82668 28.773 4.81399 28.7719 4.80221C28.7664 4.80178 28.7609 4.80135 28.7552 4.80092C28.4671 4.77937 28.0688 4.77779 27.3601 4.77779H6.24026C5.52799 4.77779 5.14018 4.7797 4.86309 4.80251C4.84939 4.80363 4.83664 4.80477 4.82481 4.80591ZM6.16285 6.31208e-06C6.18863 9.59271e-06 6.21444 1.28686e-05 6.24026 1.28686e-05L27.4329 8.45784e-06C28.042 -4.97735e-05 28.6246 -0.000105236 29.1151 0.0365977C29.6453 0.0762779 30.2757 0.169396 30.9119 0.470957C30.9351 0.481944 30.9581 0.493301 30.9809 0.505023C31.8895 0.971861 32.6244 1.71517 33.0787 2.62633C33.4098 3.26966 33.5144 3.91055 33.5589 4.44651C33.6002 4.94381 33.6002 5.53202 33.6001 6.13407L33.6001 10.6067C33.6001 10.6384 33.6002 10.6711 33.6002 10.7048C33.6011 11.0794 33.6022 11.5733 33.5055 12.0546C33.5031 12.0663 33.5007 12.0779 33.4982 12.0895C33.4095 12.4991 33.267 12.8954 33.0745 13.268C32.8259 13.758 32.5288 14.127 32.2282 14.4954L24.3133 24.3312C24.3099 24.3355 24.3063 24.3399 24.3028 24.3442C24.2264 24.4378 24.1669 24.5113 24.1176 24.5736C24.0686 24.6356 24.0379 24.6761 24.0184 24.7031C24.0138 24.7124 24.0091 24.7217 24.0043 24.731C24.0006 24.8258 24.0002 24.9578 24.0002 25.2267V33.4444C24.0002 34.1964 23.6445 34.9044 23.0402 35.3555L13.4402 42.5222C12.713 43.0651 11.74 43.1524 10.9269 42.7478C10.1138 42.3431 9.60024 41.5159 9.60024 40.6111V25.2267C9.60024 24.9713 9.59984 24.8383 9.59601 24.7392C9.59589 24.7361 9.59577 24.7331 9.59565 24.7303L9.59425 24.7275C9.59286 24.7248 9.59147 24.722 9.59009 24.7193C9.58788 24.7158 9.58121 24.7056 9.56728 24.6862C9.52472 24.6268 9.45256 24.5341 9.29757 24.3442C9.29405 24.3399 9.29054 24.3355 9.28704 24.3312L1.37245 14.4956C1.35914 14.4794 1.34542 14.4626 1.33134 14.4454C1.09056 14.1514 0.742971 13.727 0.505589 13.2282C0.323318 12.8672 0.187749 12.4846 0.102186 12.0895C0.0996718 12.0779 0.0972449 12.0663 0.0949051 12.0546C-0.00164706 11.5741 -0.000664026 11.1027 0.000153901 10.7104C0.000227234 10.6752 0.000299455 10.6406 0.000299455 10.6067V6.21112C0.000299455 6.18692 0.000297242 6.16276 0.000295045 6.13864C0.000236543 5.53242 0.00018084 4.95245 0.0370543 4.4643C0.076919 3.93656 0.17047 3.309 0.473431 2.67573C0.484469 2.65265 0.495879 2.62976 0.507655 2.60705C0.976671 1.70263 1.72345 0.971183 2.63887 0.518924C3.28516 0.189456 3.92901 0.0853155 4.46745 0.0409892C4.96706 -0.000141297 5.558 -6.8049e-05 6.16285 6.31208e-06ZM38.4001 15.1667C38.4001 13.8473 39.4746 12.7778 40.8 12.7778H45.6C46.9255 12.7778 48 13.8473 48 15.1667C48 16.486 46.9255 17.5556 45.6 17.5556H40.8C39.4746 17.5556 38.4001 16.486 38.4001 15.1667ZM32.2282 25.5C32.2282 24.1807 33.1745 23.1111 34.5 23.1111H45.6C46.9255 23.1111 48 24.1807 48 25.5C48 26.8193 46.9255 27.8889 45.6 27.8889H34.5C33.1745 27.8889 32.2282 26.8193 32.2282 25.5ZM30.5 35.8333C30.5 34.514 31.6745 33.4444 33 33.4444H45.6C46.9255 33.4444 48 34.514 48 35.8333C48 37.1527 46.9255 38.2222 45.6 38.2222H33C31.6745 38.2222 30.5 37.1527 30.5 35.8333Z"
  />
</svg>
