<svg viewBox="0 0 49 53" xmlns="http://www.w3.org/2000/svg">
  <path
    d="M6.21956 4.91475C6.36024 2.43892 6.95467 1.36229 8.65934 0.49773C10.4935 -0.432814 13.3865 0.000233312 16.7905 1.71523C18.2567 2.45426 18.406 2.4693 20.9756 2.14154C24.3911 1.70571 28.7881 1.70725 31.9405 2.14553C34.3244 2.47697 34.4809 2.46041 35.9507 1.71984C40.7826 -0.714552 44.5974 -0.55527 45.9788 2.13846C46.6682 3.48303 46.7963 6.97193 46.2617 9.8495C45.9652 11.4448 45.9966 11.644 46.7108 12.6909C51.7349 20.057 48.1148 31.997 39.5056 36.4528C38.8468 36.7939 38.2916 37.0049 37.8392 37.1768C36.4498 37.7046 36.028 37.8649 36.5387 40.2944C36.7847 41.4629 37.0808 44.3683 37.1973 46.7511C37.4077 51.0582 37.4046 51.0882 36.6453 51.967C35.6118 53.1622 34.1222 53.1824 33.1129 52.0148C32.4546 51.2534 32.3903 50.8938 32.3903 47.956C32.3903 43.6146 31.912 40.7289 30.7819 38.2562C29.4379 35.3136 30.4342 34.2164 33.5076 33.5588C37.7795 32.6445 41.116 30.0215 42.9757 26.1156C44.7438 22.4027 45.0103 17.2717 41.8137 14.1511C40.9046 13.0763 40.8413 12.1028 41.4904 9.16725C41.733 8.07007 41.9364 6.6546 41.9424 6.02144C41.9516 5.02154 41.86 4.87055 41.2428 4.87055C40.8522 4.87055 39.3597 5.43588 37.9266 6.12672L35.6393 7.22968C35.4313 7.32993 35.1987 7.36849 34.9692 7.34229C29.1531 6.6781 23.6267 6.66784 17.7822 7.34488C17.5518 7.37156 17.3181 7.33301 17.1094 7.23226L14.8234 6.12857C13.3902 5.43648 11.8977 4.87055 11.5072 4.87055C10.6043 4.87055 10.5907 5.53377 11.4137 9.47415C11.9165 11.8807 12.2548 12.4169 10.8014 14.3411C8.62294 17.2254 8.07877 20.807 9.24699 24.5701C10.7194 29.3123 14.3249 32.5159 19.3938 33.5847C22.4495 34.2291 23.2481 35.0698 22.0813 38.5559C21.1628 41.2993 20.5821 42.0064 19.2472 42.0064C17.4513 42.0064 16.3263 40.4585 16.9454 38.8388C17.2181 38.1249 17.137 38.0488 15.4545 37.4383C10.3186 35.5753 6.39046 31.3997 4.5945 25.8937C3.20635 21.6384 3.81714 16.0997 6.04406 12.7519C6.80228 11.6121 6.81402 11.5154 6.46018 9.33328C6.25998 8.098 6.1517 6.10984 6.21956 4.91475Z"
  />
  <path
    d="M4.42614 36.044C3.68605 34.9396 2.18615 34.6411 1.07601 35.3775C-0.034105 36.1137 -0.3341 37.606 0.405984 38.7104C0.952368 39.5259 1.60601 40.1958 2.1611 40.7479C2.26343 40.8498 2.36286 40.9481 2.45996 41.044C2.92493 41.5036 3.33547 41.9093 3.7478 42.3909C4.65979 43.4559 5.56961 44.8903 6.0867 47.4626C6.31702 48.6083 7.1448 49.2255 7.60346 49.4952C8.10088 49.7875 8.64436 49.9598 9.0916 50.0721C10.0065 50.3016 11.1171 50.4208 12.1711 50.4903C13.3282 50.5667 14.5819 50.5914 15.7031 50.5982C15.7039 51.9247 16.7851 53 18.1188 53C19.4531 53 20.5347 51.9239 20.5347 50.5965V48.193C20.5347 46.8655 19.4531 45.7895 18.1188 45.7895C17.8911 45.7895 17.6447 45.7902 17.3837 45.7912C15.966 45.7955 14.118 45.801 12.4905 45.6938C11.7057 45.6422 11.0605 45.5688 10.5874 45.4792C9.85882 42.6337 8.68181 40.7404 7.42585 39.2736C6.87065 38.6254 6.29573 38.0581 5.82811 37.5967C5.74056 37.5104 5.65678 37.4277 5.57756 37.3489C5.03799 36.8122 4.68504 36.4305 4.42614 36.044Z"
  />
</svg>
