<svg viewBox="0 0 52 55" xmlns="http://www.w3.org/2000/svg">
  <path
    d="M6.78739 5.10021C6.9338 2.53096 7.5525 1.4137 9.32675 0.516512C11.2358 -0.449146 14.2468 0.000242052 17.7898 1.77995C19.3159 2.54687 19.4713 2.56248 22.1457 2.22235C25.7006 1.77007 30.2771 1.77167 33.5581 2.22649C36.0394 2.57044 36.2023 2.55325 37.7321 1.78474C42.7612 -0.741517 46.7317 -0.576223 48.1694 2.21916C48.887 3.61446 49.0203 7.23502 48.4638 10.2212C48.1553 11.8767 48.188 12.0834 48.9313 13.1698C54.1605 20.8138 50.3927 33.2044 41.432 37.8284C40.7463 38.1823 40.1685 38.4013 39.6976 38.5797C38.2515 39.1274 37.8125 39.2938 38.3441 41.8149C38.6 43.0276 38.9083 46.0426 39.0295 48.5153C39.2485 52.9849 39.2452 53.0161 38.455 53.928C37.3793 55.1684 35.8289 55.1893 34.7784 53.9776C34.0932 53.1875 34.0263 52.8143 34.0263 49.7657C34.0263 45.2604 33.5285 42.2658 32.3522 39.6998C30.9534 36.6462 31.9904 35.5075 35.1892 34.8251C39.6355 33.8763 43.1081 31.1544 45.0437 27.1011C46.884 23.248 47.1614 17.9234 43.8343 14.6851C42.8881 13.5698 42.8223 12.5595 43.4979 9.51318C43.7503 8.3746 43.962 6.90571 43.9683 6.24867C43.9779 5.21103 43.8826 5.05434 43.2401 5.05434C42.8336 5.05434 41.2802 5.641 39.7886 6.35791L37.408 7.5025C37.1915 7.60654 36.9493 7.64654 36.7105 7.61936C30.657 6.93011 24.905 6.91946 18.8219 7.62205C18.5822 7.64974 18.3389 7.60973 18.1218 7.50517L15.7424 6.35983C14.2507 5.64163 12.6973 5.05434 12.2909 5.05434C11.3511 5.05434 11.3369 5.74259 12.1936 9.83166C12.7168 12.329 13.069 12.8854 11.5563 14.8823C9.28886 17.8754 8.72248 21.5922 9.93838 25.4973C11.4708 30.4184 15.2235 33.7429 20.4993 34.8521C23.6797 35.5208 24.511 36.3932 23.2965 40.0108C22.3406 42.8577 21.7361 43.5915 20.3468 43.5915C18.4775 43.5915 17.3066 41.9852 17.951 40.3044C18.2348 39.5636 18.1504 39.4846 16.3993 38.851C11.0538 36.9178 6.96526 32.5846 5.09599 26.8709C3.65118 22.455 4.2869 16.7072 6.60472 13.2331C7.39389 12.0503 7.40611 11.9499 7.03782 9.68548C6.82945 8.40358 6.71676 6.3404 6.78739 5.10021Z"
  />
  <path
    d="M4.92076 37.4041C4.15047 36.2581 2.58934 35.9483 1.43389 36.7125C0.278468 37.4765 -0.0337722 39.0251 0.736519 40.1712C1.30521 41.0175 1.98553 41.7126 2.56327 42.2855C2.66978 42.3913 2.77327 42.4933 2.87433 42.5928C3.35828 43.0697 3.78558 43.4907 4.21474 43.9906C5.16395 45.0958 6.11091 46.5843 6.6491 49.2536C6.88882 50.4426 7.75039 51.0831 8.22777 51.363C8.74549 51.6662 9.31116 51.8451 9.77665 51.9616C10.7289 52.1998 11.8848 52.3235 12.9819 52.3956C14.1862 52.4749 15.4911 52.5006 16.658 52.5075C16.6588 53.8841 17.7842 55 19.1723 55C20.561 55 21.6868 53.8833 21.6868 52.5058V50.0116C21.6868 48.634 20.561 47.5174 19.1723 47.5174C18.9353 47.5174 18.6789 47.5181 18.4072 47.5191C16.9316 47.5236 15.0082 47.5294 13.3143 47.4181C12.4974 47.3645 11.8259 47.2884 11.3335 47.1954C10.5752 44.2425 9.35013 42.2778 8.04291 40.7556C7.46505 40.0829 6.86667 39.4943 6.37995 39.0154C6.28883 38.9259 6.20163 38.8401 6.11918 38.7582C5.55759 38.2013 5.19023 37.8052 4.92076 37.4041Z"
  />
</svg>
