<svg viewBox="0 0 86 85" xmlns="http://www.w3.org/2000/svg">
  <path
    fill-rule="evenodd"
    clip-rule="evenodd"
    d="M9.842 34H17.2708C24.3124 34 30.0208 39.7082 30.0208 46.75C30.0208 49.0973 31.9236 51 34.2708 51C41.3126 51 47.0209 56.7082 47.0209 63.75V76.237C49.9901 75.8667 52.8404 75.1136 55.5208 74.0286V63.75C55.5208 56.7082 61.2291 51 68.2709 51H75.6997C76.399 48.2832 76.7709 45.4351 76.7709 42.5C76.7709 36.3071 75.1152 30.5009 72.2223 25.5H67.6508C65.646 25.5 64.0209 27.1252 64.0209 29.1299C64.0209 33.7244 61.4249 37.9245 57.3159 39.9793L57.3138 39.9804L56.9727 40.1507C56.9721 40.151 56.9715 40.1513 56.9708 40.1517C53.3826 41.945 49.1591 41.945 45.5708 40.1516C45.5702 40.1513 45.5696 40.151 45.569 40.1507L45.2279 39.9804L45.2258 39.9793C41.1168 37.9245 38.5208 33.7244 38.5208 29.1299C38.5208 27.1252 36.8957 25.5 34.8909 25.5H34.2709C28.2404 25.5 23.1877 21.3133 21.861 15.688C16.0402 20.2339 11.7379 26.6339 9.842 34ZM30.0208 10.9715V12.75C30.0208 15.0972 31.9236 17 34.2709 17H34.8909C41.5901 17 47.0209 22.4308 47.0209 29.1299C47.0209 30.5048 47.7977 31.7619 49.0276 32.3769L49.3703 32.5481C50.5666 33.1462 51.9751 33.1462 53.1714 32.5481L53.1733 32.5472L53.5141 32.3769C53.5146 32.3767 53.515 32.3765 53.5155 32.3763C53.5157 32.3761 53.516 32.376 53.5162 32.3759C54.7449 31.7605 55.5208 30.504 55.5208 29.1299C55.5208 23.1723 59.8158 18.2179 65.4783 17.194C59.4583 11.7885 51.4986 8.5 42.7708 8.5C38.262 8.5 33.9582 9.37766 30.0208 10.9715ZM77.7326 18.3286C70.0613 7.25373 57.2632 0 42.7708 0C19.2988 0 0.270844 19.0279 0.270844 42.5C0.270844 65.9723 19.2988 85 42.7708 85C66.2431 85 85.2708 65.9723 85.2708 42.5C85.2708 34.0346 82.7958 26.1473 78.53 19.5222C78.3326 19.0792 78.0616 18.6761 77.7326 18.3286ZM72.2223 59.5H68.2709C65.9235 59.5 64.0209 61.4027 64.0209 63.75V69.0429C67.3106 66.4058 70.0996 63.1697 72.2223 59.5ZM38.5208 76.237C21.749 74.1456 8.77084 59.8385 8.77084 42.5L17.2708 42.5C19.6181 42.5 21.5208 44.4027 21.5208 46.75C21.5208 53.7918 27.2293 59.5 34.2708 59.5C36.6182 59.5 38.5208 61.4027 38.5208 63.75V76.237Z"
  />
</svg>
