<svg
  viewBox="0 0 20 20"
  xmlns="http://www.w3.org/2000/svg"
>
  <g clip-path="url(#clip0_4281_2462)">
    <path
      d="M10.2041 8.18188V12.0546H15.6958C15.4546 13.3001 14.731 14.3547 13.6456 15.0638L16.9573 17.582C18.8868 15.8366 20 13.2729 20 10.2274C20 9.51837 19.9351 8.83648 19.8145 8.18199L10.2041 8.18188Z"
      fill="#4285F4"
    />
    <path
      d="M4.48548 11.9033L3.73857 12.4636L1.09473 14.4818C2.77377 17.7454 6.21509 20 10.2039 20C12.959 20 15.2688 19.1091 16.9572 17.5819L13.6455 15.0636C12.7364 15.6636 11.5768 16.0273 10.2039 16.0273C7.55089 16.0273 5.29677 14.2728 4.48965 11.9091L4.48548 11.9033Z"
      fill="#34A853"
    />
    <path
      d="M1.09455 5.51831C0.398847 6.86372 0 8.38193 0 10.0001C0 11.6183 0.398847 13.1365 1.09455 14.4819C1.09455 14.4909 4.4898 11.9 4.4898 11.9C4.28572 11.3 4.16509 10.6637 4.16509 9.99999C4.16509 9.33626 4.28572 8.69993 4.4898 8.09993L1.09455 5.51831Z"
      fill="#FBBC05"
    />
    <path
      d="M10.2042 3.98184C11.707 3.98184 13.0428 4.49092 14.1096 5.47275L17.0316 2.60914C15.2598 0.990976 12.9593 0 10.2042 0C6.2153 0 2.77377 2.24546 1.09473 5.51822L4.48988 8.10005C5.29688 5.73638 7.5511 3.98184 10.2042 3.98184Z"
      fill="#EA4335"
    />
  </g>
  <defs>
    <clipPath id="clip0_4281_2462">
      <rect width="20" height="20" fill="white" />
    </clipPath>
  </defs>
</svg>
