<svg viewBox="0 0 39 65" xmlns="http://www.w3.org/2000/svg">
  <path
    fill-rule="evenodd"
    clip-rule="evenodd"
    d="M0.270844 6.96429C0.270844 3.11802 3.46253 0 7.39967 0C11.3368 0 14.5285 3.11802 14.5285 6.96429C14.5285 10.8106 11.3368 13.9286 7.39967 13.9286C3.46253 13.9286 0.270844 10.8106 0.270844 6.96429Z"
  />
  <path
    fill-rule="evenodd"
    clip-rule="evenodd"
    d="M0.270844 32.5C0.270844 28.6537 3.46253 25.5357 7.39967 25.5357C11.3368 25.5357 14.5285 28.6537 14.5285 32.5C14.5285 36.3463 11.3368 39.4643 7.39967 39.4643C3.46253 39.4643 0.270844 36.3463 0.270844 32.5Z"
  />
  <path
    fill-rule="evenodd"
    clip-rule="evenodd"
    d="M0.270844 58.0357C0.270844 54.1894 3.46253 51.0714 7.39967 51.0714C11.3368 51.0714 14.5285 54.1894 14.5285 58.0357C14.5285 61.882 11.3368 65 7.39967 65C3.46253 65 0.270844 61.882 0.270844 58.0357Z"
  />
  <path
    fill-rule="evenodd"
    clip-rule="evenodd"
    d="M24.0132 6.96429C24.0132 3.11802 27.2049 0 31.142 0C35.0792 0 38.2708 3.11802 38.2708 6.96429C38.2708 10.8106 35.0792 13.9286 31.142 13.9286C27.2049 13.9286 24.0132 10.8106 24.0132 6.96429Z"
  />
  <path
    fill-rule="evenodd"
    clip-rule="evenodd"
    d="M24.0132 32.5C24.0132 28.6537 27.2049 25.5357 31.142 25.5357C35.0792 25.5357 38.2708 28.6537 38.2708 32.5C38.2708 36.3463 35.0792 39.4643 31.142 39.4643C27.2049 39.4643 24.0132 36.3463 24.0132 32.5Z"
  />
  <path
    fill-rule="evenodd"
    clip-rule="evenodd"
    d="M24.0132 58.0357C24.0132 54.1894 27.2049 51.0714 31.142 51.0714C35.0792 51.0714 38.2708 54.1894 38.2708 58.0357C38.2708 61.882 35.0792 65 31.142 65C27.2049 65 24.0132 61.882 24.0132 58.0357Z"
  />
</svg>
