<svg viewBox="0 0 68 75" xmlns="http://www.w3.org/2000/svg">
  <path
    fill-rule="evenodd"
    clip-rule="evenodd"
    d="M58.8958 63.995C58.8958 66.1739 57.0198 67.1053 54.7083 67.1053H50.5208C48.2093 67.1053 46.3333 66.1739 46.3333 63.995V60.0476C46.3333 55.6858 42.5855 51.316 37.9583 51.316H29.5833C24.9562 51.316 21.2083 55.6858 21.2083 60.0476V63.995C21.2083 66.1739 19.3323 67.1053 17.0208 67.1053H12.8333C10.5218 67.1053 8.64584 66.1739 8.64584 63.995V32.1673C8.64584 31.6424 8.86776 31.141 9.2572 30.77L30.7684 10.4965C32.4057 8.95307 35.0564 8.95307 36.6896 10.4965L58.2845 30.849C58.6739 31.22 58.8958 31.7215 58.8958 32.2425V63.995ZM67.2708 30.099C67.2708 29.0529 66.8312 28.0543 66.0523 27.3122L39.6753 2.32546C36.409 -0.765308 31.1034 -0.777077 27.8246 2.30185L1.50198 27.032C0.71473 27.7741 0.270844 28.7768 0.270844 29.8267V67.9423C0.270844 72.3041 4.01866 75 8.64584 75H21.2083C25.8355 75 29.5833 72.3041 29.5833 67.9423V63.995C29.5833 61.816 31.4593 60.0476 33.7708 60.0476C36.0823 60.0476 37.9583 61.816 37.9583 63.995V67.9423C37.9583 72.3041 41.7062 75 46.3333 75H58.8958C63.523 75 67.2708 72.3041 67.2708 67.9423V30.099Z"
  />
</svg>
