<svg viewBox="0 0 68 75" xmlns="http://www.w3.org/2000/svg">
  <path
    fill-rule="evenodd"
    clip-rule="evenodd"
    d="M67.2708 30.099C67.2708 29.0529 66.8312 28.0543 66.0523 27.3122L39.6753 2.32546C36.409 -0.765308 31.1034 -0.777077 27.8246 2.30185L1.50198 27.032C0.71473 27.7741 0.270844 28.7768 0.270844 29.8267V67.9423C0.270844 72.3041 4.01866 75 8.64584 75H21.2083C25.8355 75 29.5833 72.3041 29.5833 67.9423V63.995C29.5833 61.816 31.4593 60.0476 33.7708 60.0476C36.0823 60.0476 37.9583 61.816 37.9583 63.995V67.9423C37.9583 72.3041 41.7062 75 46.3333 75H58.8958C63.523 75 67.2708 72.3041 67.2708 67.9423V30.099Z"
  />
</svg>
