<svg
  viewBox="0 0 658 630"
  fill="none"
  xmlns="http://www.w3.org/2000/svg"
>
  <path
    d="M0.999996 140C0.999996 62.6801 63.6801 0 141 0H517C594.32 0 657 62.6802 657 140V286C657 429.594 540.594 546 397 546H261C117.406 546 0.999996 429.594 0.999996 286V140Z"
    fill="#FFD21E"
  />
  <path
    fill-rule="evenodd"
    clip-rule="evenodd"
    d="M226.34 594.097C217.396 608.443 204.369 617.876 196.355 621.602C188.341 625.328 171.25 631.836 157.449 628.138C143.648 624.44 68.2887 604.248 44.4103 597.85C20.5318 591.452 -2.99637 558.862 1.19861 523.051C5.39359 487.241 20.7901 471.982 34.3895 462.483C47.9889 452.984 69.9453 455.268 83.8792 456.578C86.2764 456.804 89.646 457.387 93 458C93 458 105.175 460.406 112.588 462.203C120 464 132.715 467.241 132.715 467.241C131.792 459.172 131.135 452.868 136.512 444.027C147.609 425.782 168.979 426.292 179.185 438.5C189.392 450.708 227.269 516.219 234.5 536.514C241.731 556.81 235.284 579.752 226.34 594.097Z"
    fill="#3B82F6"
  />
  <path
    fill-rule="evenodd"
    clip-rule="evenodd"
    d="M93 458C93 458 105.175 460.406 112.588 462.203C120 464 132.715 467.241 132.715 467.241C132.715 467.241 132.715 490.041 136.512 513.541C140.309 537.041 133.512 554.972 106.5 558.041C79.4877 561.111 72.4996 542.052 72.4997 523.051C72.4998 504.051 81.6188 479.635 93 458Z"
    fill="#2563EB"
  />
  <path
    fill-rule="evenodd"
    clip-rule="evenodd"
    d="M431.853 594.056C440.796 608.402 453.824 617.835 461.838 621.561C469.852 625.287 486.942 631.795 500.744 628.097C514.545 624.399 589.904 604.207 613.782 597.809C637.661 591.411 661.189 558.821 656.994 523.01C652.799 487.2 637.402 471.941 623.803 462.442C610.204 452.943 588.247 455.227 574.313 456.537C571.916 456.763 568.546 457.346 565.193 457.959C565.193 457.959 553.017 460.365 545.605 462.162C538.192 463.959 525.478 467.2 525.478 467.2C526.401 459.131 527.058 452.827 521.681 443.986C510.584 425.741 489.214 426.251 479.007 438.459C468.801 450.667 430.924 516.178 423.692 536.473C416.461 556.769 422.909 579.711 431.853 594.056Z"
    fill="#3B82F6"
  />
  <path
    fill-rule="evenodd"
    clip-rule="evenodd"
    d="M565.193 457.959C565.193 457.959 553.017 460.365 545.605 462.162C538.192 463.959 525.478 467.2 525.478 467.2C525.478 467.2 525.478 490 521.681 513.5C517.884 537 524.681 554.931 551.693 558C578.705 561.07 585.693 542.011 585.693 523.01C585.693 504.01 576.574 479.594 565.193 457.959Z"
    fill="#2563EB"
  />
  <path
    d="M325.449 441C425.678 441 458 352.137 458 306.488C458 282.751 441.992 290.258 416.297 302.836C392.54 314.502 360.626 330.631 325.551 330.631C252.24 330.631 193 260.84 193 306.488C193 352.137 225.22 441 325.551 441H325.449Z"
    fill="#FF0000"
  />
  <path
    fill-rule="evenodd"
    clip-rule="evenodd"
    d="M248.752 418C254.13 407.021 261.702 397.273 270.996 389.364C280.29 381.455 291.107 375.554 302.771 372.029C306.848 370.8 313.975 367.86 329.234 367.86C344.493 367.86 350.675 371.21 355.058 372.541C376.953 379.523 395.25 394.852 406.019 415.236C444.037 385.134 458 335.989 458 305.683C458 281.725 441.998 289.301 416.313 301.997C392.769 313.772 359.95 330.051 325.5 330.051C291.05 330.051 259.76 314.488 236.113 302.714C209.613 289.506 193 281.213 193 305.683C193 336.911 207.881 388.206 248.752 418Z"
    fill="#0A0A0A"
  />
  <path
    d="M496.269 214.804C482.746 211.929 474.143 198.651 477.013 185.152C479.877 171.678 471.255 158.37 457.757 155.501C444.258 152.632 430.969 161.283 428.105 174.757C425.236 188.255 411.977 196.887 398.454 194.013C384.931 191.138 376.329 177.86 379.198 164.361C387.795 123.915 427.706 97.9962 468.152 106.593C508.599 115.191 534.517 155.101 525.92 195.548C523.046 209.071 509.791 217.678 496.269 214.804Z"
    fill="#0A0A0A"
  />
  <path
    d="M252.06 194.013C238.537 196.887 225.277 188.255 222.408 174.757C219.544 161.283 206.255 152.632 192.757 155.501C179.258 158.37 170.637 171.678 173.501 185.152C176.37 198.651 167.768 211.929 154.245 214.804C140.722 217.678 127.463 209.046 124.593 195.548C115.996 155.101 141.915 115.191 182.361 106.593C222.807 97.9962 262.718 123.915 271.316 164.361C274.19 177.884 265.583 191.138 252.06 194.013Z"
    fill="#0A0A0A"
  />
  <path
    d="M562.5 310C583.211 310 600 293.211 600 272.5C600 251.789 583.211 235 562.5 235C541.789 235 525 251.789 525 272.5C525 293.211 541.789 310 562.5 310Z"
    fill="#FB8C3C"
  />
  <path
    d="M87.5 310C108.211 310 125 293.211 125 272.5C125 251.789 108.211 235 87.5 235C66.7893 235 50 251.789 50 272.5C50 293.211 66.7893 310 87.5 310Z"
    fill="#FB8C3C"
  />
</svg>
