<svg
  viewBox="0 0 691 249"
  fill="none"
  xmlns="http://www.w3.org/2000/svg"
>
  <path
    fill-rule="evenodd"
    clip-rule="evenodd"
    d="M242.34 199.097C233.396 213.443 220.369 222.875 212.355 226.601C204.341 230.327 187.25 236.836 173.449 233.138C159.648 229.44 84.2887 209.248 60.4103 202.85C36.5318 196.452 13.0036 163.862 17.1986 128.051C21.3936 92.2408 36.7901 76.9816 50.3895 67.4829C63.9889 57.9843 85.9454 60.2676 99.8792 61.5782C102.276 61.8037 105.646 62.3871 109 63C109 63 121.175 65.4064 128.588 67.2032C136 69 148.715 72.2408 148.715 72.2408C147.792 64.1717 147.135 57.868 152.512 49.0273C163.609 30.782 184.979 31.2923 195.185 43.5C205.392 55.7077 243.269 121.219 250.5 141.514C257.731 161.809 251.284 184.752 242.34 199.097Z"
    fill="#3B82F6"
  />
  <path
    fill-rule="evenodd"
    clip-rule="evenodd"
    d="M109 63C109 63 121.175 65.4064 128.588 67.2032C136 69 148.715 72.2408 148.715 72.2408C148.715 72.2408 148.715 95.041 152.512 118.541C156.309 142.041 149.512 159.971 122.5 163.041C95.4878 166.111 88.4997 147.052 88.4998 128.051C88.4999 109.051 97.6188 84.6346 109 63Z"
    fill="#2563EB"
  />
  <path
    fill-rule="evenodd"
    clip-rule="evenodd"
    d="M447.853 199.056C456.796 213.402 469.824 222.834 477.838 226.56C485.852 230.286 502.942 236.795 516.744 233.097C530.545 229.399 605.904 209.207 629.782 202.809C653.661 196.41 677.189 163.821 672.994 128.01C668.799 92.1998 653.402 76.9406 639.803 67.4419C626.204 57.9432 604.247 60.2265 590.313 61.5372C587.916 61.7627 584.546 62.3461 581.193 62.959C581.193 62.959 569.017 65.3654 561.605 67.1622C554.193 68.959 541.478 72.1998 541.478 72.1998C542.401 64.1307 543.058 57.827 537.681 48.9863C526.584 30.741 505.214 31.2513 495.007 43.459C484.801 55.6667 446.924 121.178 439.693 141.473C432.461 161.768 438.909 184.711 447.853 199.056Z"
    fill="#3B82F6"
  />
  <path
    fill-rule="evenodd"
    clip-rule="evenodd"
    d="M581.193 62.959C581.193 62.959 569.017 65.3654 561.605 67.1622C554.193 68.959 541.478 72.1998 541.478 72.1998C541.478 72.1998 541.478 95 537.681 118.5C533.884 142 540.681 159.93 567.693 163C594.705 166.07 601.693 147.01 601.693 128.01C601.693 109.01 592.574 84.5936 581.193 62.959Z"
    fill="#2563EB"
  />
</svg>
