<svg
  viewBox="0 0 656 546"
  fill="none"
  xmlns="http://www.w3.org/2000/svg"
>
  <path
    d="M0 140C0 62.6801 62.6801 0 140 0H516C593.32 0 656 62.6802 656 140V286C656 429.594 539.594 546 396 546H260C116.406 546 0 429.594 0 286V140Z"
    fill="#FFD21E"
  />
  <path
    d="M324.449 441C424.678 441 457 352.137 457 306.488C457 282.751 440.992 290.258 415.297 302.836C391.54 314.502 359.626 330.631 324.551 330.631C251.24 330.631 192 260.84 192 306.488C192 352.137 224.22 441 324.551 441H324.449Z"
    fill="#FF0000"
  />
  <path
    fill-rule="evenodd"
    clip-rule="evenodd"
    d="M247.752 418C253.13 407.021 260.702 397.273 269.996 389.364C279.29 381.455 290.107 375.554 301.771 372.029C305.848 370.8 312.975 367.86 328.234 367.86C343.493 367.86 349.675 371.21 354.058 372.541C375.953 379.523 394.25 394.852 405.019 415.236C443.037 385.134 457 335.989 457 305.683C457 281.725 440.998 289.301 415.313 301.997C391.769 313.772 358.95 330.051 324.5 330.051C290.05 330.051 258.76 314.488 235.113 302.714C208.613 289.506 192 281.213 192 305.683C192 336.911 206.881 388.206 247.752 418Z"
    fill="#0A0A0A"
  />
  <path
    d="M495.269 214.804C481.746 211.929 473.143 198.651 476.013 185.152C478.877 171.678 470.255 158.37 456.757 155.501C443.258 152.632 429.969 161.283 427.105 174.757C424.236 188.255 410.977 196.887 397.454 194.013C383.931 191.138 375.329 177.86 378.198 164.361C386.795 123.915 426.706 97.9962 467.152 106.593C507.599 115.191 533.517 155.101 524.92 195.548C522.046 209.071 508.791 217.678 495.269 214.804Z"
    fill="#171717"
  />
  <path
    d="M251.06 194.013C237.537 196.887 224.277 188.255 221.408 174.757C218.544 161.283 205.255 152.632 191.757 155.501C178.258 158.37 169.637 171.678 172.501 185.152C175.37 198.651 166.768 211.929 153.245 214.804C139.722 217.678 126.463 209.046 123.593 195.548C114.996 155.101 140.915 115.191 181.361 106.593C221.807 97.9962 261.718 123.915 270.316 164.361C273.19 177.884 264.583 191.138 251.06 194.013Z"
    fill="#171717"
  />
  <path
    d="M561.5 310C582.211 310 599 293.211 599 272.5C599 251.789 582.211 235 561.5 235C540.789 235 524 251.789 524 272.5C524 293.211 540.789 310 561.5 310Z"
    fill="#FB8C3C"
  />
  <path
    d="M86.5 310C107.211 310 124 293.211 124 272.5C124 251.789 107.211 235 86.5 235C65.7893 235 49 251.789 49 272.5C49 293.211 65.7893 310 86.5 310Z"
    fill="#FB8C3C"
  />
</svg>
