<svg
  viewBox="0 0 10 20"
  xmlns="http://www.w3.org/2000/svg"
>
  <path
    d="M9.45323 17.8417L9.15364 18.984C8.25487 19.3149 7.53693 19.5668 7.00232 19.7399C6.46713 19.9136 5.84528 20 5.13675 20C4.0487 20 3.20239 19.7514 2.59879 19.2576C1.99519 18.7618 1.6933 18.1335 1.6933 17.3713C1.6933 17.0763 1.7152 16.7728 1.76075 16.4636C1.80668 16.154 1.8797 15.8054 1.97963 15.4157L3.10285 11.7074C3.20278 11.3523 3.28771 11.0159 3.35574 10.6977C3.42473 10.3815 3.45797 10.0906 3.45797 9.82873C3.45797 9.35515 3.35286 9.0239 3.14359 8.83766C2.93432 8.65196 2.53499 8.55768 1.94215 8.55768C1.65179 8.55768 1.35335 8.60106 1.04915 8.68494C0.743603 8.76919 0.482447 8.85057 0.263184 8.92621L0.563542 7.78297C1.29935 7.50352 2.00269 7.26422 2.67547 7.06561C3.34825 6.86647 3.98394 6.76681 4.58523 6.76681C5.66579 6.76681 6.49961 7.01041 7.08514 7.4976C7.67068 7.98516 7.96335 8.61719 7.96335 9.39602C7.96335 9.55717 7.94413 9.8411 7.90282 10.2469C7.86246 10.6536 7.78732 11.0263 7.67779 11.3652L6.55937 15.0587C6.46771 15.3553 6.38527 15.6945 6.31359 16.0761C6.2396 16.4552 6.20425 16.7448 6.20425 16.9392C6.20425 17.4296 6.32147 17.7644 6.55649 17.9424C6.79324 18.1204 7.20102 18.2089 7.78021 18.2089C8.05213 18.2089 8.36152 18.164 8.70531 18.0756C9.04814 17.9872 9.29815 17.9096 9.45323 17.8417ZM9.73687 2.33561C9.73687 2.97911 9.47686 3.52868 8.95436 3.98057C8.4332 4.43407 7.8052 4.661 7.07054 4.661C6.33358 4.661 5.70403 4.43407 5.17692 3.98057C4.65076 3.52851 4.38711 2.97911 4.38711 2.33561C4.38711 1.69336 4.65076 1.14289 5.17692 0.685267C5.70307 0.228362 6.33377 0 7.07054 0C7.805 0 8.4332 0.2289 8.95436 0.685267C9.47725 1.14289 9.73687 1.69354 9.73687 2.33561Z"
  />
</svg>
