<svg
  viewBox="0 0 54 54"
  xmlns="http://www.w3.org/2000/svg"
>
  <path
    d="M53.7304 11.9313C53.4618 10.5371 52.9872 9.17426 52.3116 7.88563C51.6375 6.59859 50.7559 5.39222 49.6814 4.3178C48.2509 2.88573 46.58 1.79971 44.8019 1.07788C42.1339 8.22051e-05 39.2302 -0.270131 36.4418 0.270401C35.0477 0.54072 33.6832 1.00869 32.3962 1.68602C31.1124 2.36334 29.9028 3.2417 28.8284 4.3178L21.8411 11.3052C20.4305 12.7126 20.4305 15.0016 21.8411 16.409C23.2518 17.8163 25.5358 17.8163 26.9448 16.409L33.9321 9.41832C34.6737 8.68003 35.5158 8.13454 36.4205 7.7654C37.7752 7.21664 39.2715 7.07657 40.697 7.35343C41.4089 7.49191 42.1026 7.73249 42.7569 8.07527C43.4095 8.41804 44.0225 8.86302 44.5795 9.41832C45.321 10.1648 45.8648 11.0053 46.2339 11.9084C46.7827 13.263 46.9228 14.761 46.6459 16.1848C46.5074 16.8984 46.2668 17.5922 45.9258 18.2432C45.5797 18.8991 45.1364 19.5121 44.5795 20.0692L37.5922 27.0549C36.1832 28.4638 36.1832 30.7513 37.5922 32.1586C39.0011 33.566 41.2853 33.566 42.6942 32.1586L49.6815 25.1697C51.1152 23.7392 52.1996 22.0683 52.9197 20.29C54.0007 17.6219 54.2694 14.7181 53.7304 11.9313Z"
  />
  <path
    d="M27.0569 37.5918L20.068 44.5809C19.3247 45.3208 18.4827 45.8663 17.5796 46.2338C16.2249 46.7842 14.727 46.9243 13.3031 46.6491C12.5895 46.5091 11.8974 46.2668 11.2432 45.9257C10.5906 45.5813 9.97761 45.1347 9.42063 44.581C8.67908 43.836 8.1336 42.9957 7.76604 42.0909C7.21729 40.738 7.07723 39.24 7.3524 37.8128C7.49088 37.1009 7.73303 36.4071 8.07422 35.7544C8.42026 35.1018 8.86355 34.4888 9.42063 33.9301L16.4096 26.9427C17.817 25.5354 17.817 23.2496 16.4096 21.8423C14.999 20.4334 12.7149 20.4334 11.3059 21.8423L4.3186 28.828C2.88486 30.2618 1.80054 31.9295 1.07871 33.711C-0.000648363 36.3758 -0.269276 39.2844 0.269562 42.0662C0.538189 43.4604 1.01111 44.8248 1.68843 46.1119C2.36406 47.3989 3.24409 48.6086 4.3186 49.6814C5.75233 51.1135 7.42 52.2012 9.1982 52.918C11.8645 54.0008 14.7716 54.2694 17.5566 53.7305C18.9523 53.4602 20.3152 52.9872 21.6006 52.3116C22.8877 51.6375 24.0973 50.7559 25.1717 49.6814L32.159 42.6923C33.5663 41.2849 33.5663 38.9992 32.159 37.5919C30.7483 36.1827 28.4642 36.1827 27.0569 37.5918Z"
  />
  <path
    d="M36.1156 17.8838C34.7083 16.4765 32.4225 16.4765 31.0136 17.8838L17.8811 31.0148C16.4737 32.4238 16.4737 34.708 17.8811 36.1152C19.2917 37.5259 21.5774 37.5259 22.9848 36.1152L36.1156 22.9843C37.5263 21.5753 37.5263 19.2928 36.1156 17.8838Z"
  />
</svg>
