<svg viewBox="0 0 60 60" xmlns="http://www.w3.org/2000/svg">
  <path
    d="M27.0851 16.8646C29.8371 16.8693 32.5406 17.59 34.9298 18.956C37.3189 20.322 39.3116 22.2862 40.7118 24.6555C38.7581 26.6183 36.9507 28.4309 34.9258 30.4612C34.6371 29.902 34.4083 29.4179 34.1421 28.9563C33.4556 27.7043 32.4495 26.6567 31.2262 25.9203C30.003 25.1839 28.6063 24.785 27.1787 24.7644C25.1936 24.777 23.288 25.546 21.8502 26.9148C17.7629 30.6976 13.8369 34.6644 10.042 38.7363C9.3244 39.4817 8.76218 40.3623 8.388 41.327C8.01382 42.2917 7.83515 43.3211 7.86237 44.3555C7.88959 45.3898 8.12216 46.4084 8.54655 47.3521C8.97094 48.2957 9.57869 49.1456 10.3345 49.8522C11.8475 51.3412 13.8778 52.1871 16.0004 52.2128C16.9776 52.2183 17.945 52.0188 18.8403 51.6271C19.7355 51.2353 20.5386 50.6601 21.1977 49.9386C21.7602 49.3343 23.575 47.5405 25.6187 45.5477C28.9218 46.8619 32.529 47.2158 36.0244 46.5684C30.5385 52.2163 24.1413 58.4988 19.6828 59.5571C18.4457 59.8519 17.1784 60.0005 15.9067 60C12.8448 60.0062 9.84647 59.1268 7.273 57.4676C4.69953 55.8084 2.66078 53.4404 1.40246 50.6488C0.144142 47.8572 -0.280049 44.7613 0.181013 41.7341C0.642074 38.7069 1.96871 35.8777 4.00104 33.5873C8.04334 29.2715 12.2019 25.0533 16.533 21.0303C19.3928 18.3505 23.1661 16.861 27.0851 16.8646ZM44.0926 2.60476e-05C42.8248 0.00133802 41.5614 0.149953 40.3278 0.442881C34.1246 3.71381 28.5832 8.10922 23.9861 13.4052C25.0088 13.223 26.0447 13.1252 27.0834 13.1127C29.5299 13.1136 31.9544 13.5743 34.2306 14.4709C36.3042 12.6621 38.0554 10.9473 39.0041 9.92249C39.6361 9.23454 40.4057 8.68723 41.263 8.31611C42.1203 7.94499 43.046 7.75835 43.9801 7.76833C45.0779 7.78307 46.1617 8.0167 47.1681 8.45555C48.1745 8.89439 49.0832 9.52962 49.8411 10.3241C51.2877 11.7688 52.1105 13.723 52.1329 15.7675C52.1554 17.8119 51.3756 19.7837 49.9611 21.2599C46.1437 25.313 42.2177 29.276 38.1528 33.0814C36.7218 34.4542 34.8185 35.2253 32.8355 35.2355C31.406 35.2165 30.0071 34.8188 28.7813 34.0831C27.5554 33.3474 26.5465 32.2999 25.8572 31.0473C25.591 30.5819 25.3698 30.094 25.0285 29.4223C23.0261 31.5164 21.26 33.3665 19.3289 35.3855C20.7214 37.7518 22.7094 39.712 25.0949 41.071C27.4805 42.43 30.1803 43.1404 32.9258 43.1315C36.8358 43.1455 40.6031 41.6631 43.4552 38.9883C47.7113 35.0065 51.8061 30.8447 55.8146 26.6229C57.9022 24.3504 59.2824 21.5188 59.7866 18.4744C60.2908 15.4299 59.8971 12.3046 58.6535 9.48034C57.41 6.65611 55.3706 4.25542 52.7847 2.57176C50.1987 0.888102 47.1783 -0.00556208 44.0926 2.60476e-05Z"
  />
</svg>
