<svg
  viewBox="0 0 67 74"
  xmlns="http://www.w3.org/2000/svg"
>
  <path
    fill-rule="evenodd"
    clip-rule="evenodd"
    d="M56.95 74H30.15C28.2998 74 26.8 72.4941 26.8 70.6364C26.8 68.7786 28.2998 67.2727 30.15 67.2727H56.95C58.8002 67.2727 60.3 65.7668 60.3 63.9091V10.0909C60.3 8.23324 58.8002 6.72727 56.95 6.72727H30.15C28.2998 6.72727 26.8 5.22134 26.8 3.36364C26.8 1.50597 28.2998 0 30.15 0H56.95C62.5006 0 67 4.51787 67 10.0909V63.9091C67 69.4823 62.5006 74 56.95 74Z"
  />
  <path
    fill-rule="evenodd"
    clip-rule="evenodd"
    d="M1.63686 41.406C-0.545627 38.8772 -0.545627 35.1228 1.6369 32.5943L15.6288 16.3839C19.6908 11.6778 27.392 14.5623 27.392 20.7898V26.9091H47.492C51.1924 26.9091 54.1919 29.921 54.1919 33.6364V40.3636C54.1919 44.0791 51.1924 47.0909 47.492 47.0909H27.392V53.2104C27.392 59.4378 19.6908 62.3221 15.6288 57.6161L1.63686 41.406ZM8.60148 34.7972C7.51022 36.0612 7.51022 37.9388 8.60148 39.2028L20.692 53.2104V45.4091C20.692 42.6227 22.9417 40.3636 25.717 40.3636H47.492V33.6364H25.717C22.9417 33.6364 20.692 31.3773 20.692 28.5909V20.7898L8.60148 34.7972Z"
  />
</svg>
