<svg viewBox="0 0 167 182" xmlns="http://www.w3.org/2000/svg">
  <path
    fill-rule="evenodd"
    clip-rule="evenodd"
    d="M83.4641 18.8515L138.431 49.6975L83.4641 80.5435L28.4972 49.6975L83.4641 18.8515ZM9.1841 39.4232L75.9238 1.97059C80.6051 -0.656639 86.3225 -0.656976 91.0039 1.97026L158.171 39.6628C163.294 42.5373 166.464 47.945 166.464 53.8089V126.332C166.464 132.189 163.359 137.609 158.303 140.582L91.6417 179.775L91.6405 179.776C86.5947 182.741 80.3336 182.741 75.2877 179.776L8.62529 140.582C3.56759 137.608 0.464111 132.188 0.464111 126.332V54.2977C0.464111 48.1323 3.79751 42.4459 9.1841 39.4232Z"
  />
  <path
    d="M103.167 94L141.907 71.5V126.349C141.904 126.756 141.793 127.155 141.586 127.505C141.379 127.854 141.083 128.141 140.728 128.337C140.405 128.489 140.053 128.57 139.697 128.574C139.245 128.579 138.803 128.445 138.43 128.189L124.907 116.5C124.907 116.5 106.976 148.115 106.644 148.349C106.311 148.583 105.921 148.721 105.516 148.747C105.112 148.773 104.708 148.686 104.349 148.496C103.989 148.306 103.689 148.02 103.481 147.67C103.272 147.32 103.164 146.919 103.167 146.51V94Z"
    fill="white"
  />
</svg>
