<svg
  viewBox="0 0 39 43"
  xmlns="http://www.w3.org/2000/svg"
>
  <path
    fill-rule="evenodd"
    clip-rule="evenodd"
    d="M19.4417 5.28683L32.1263 12.4051L19.4417 19.5235L6.75701 12.4051L19.4417 5.28683ZM2.30015 10.0341L17.7016 1.39124C18.7819 0.78496 20.1013 0.784882 21.1816 1.39117L36.6817 10.0894C37.8639 10.7528 38.5955 12.0007 38.5955 13.3539V30.09C38.5955 31.4417 37.8791 32.6923 36.7122 33.3784L21.3288 42.423L21.3286 42.4232C20.1641 43.1076 18.7193 43.1076 17.5548 42.4232L17.5546 42.423L2.17119 33.3785C1.00403 32.6922 0.287842 31.4414 0.287842 30.09V13.4667C0.287842 12.0439 1.05709 10.7317 2.30015 10.0341Z"
  />
  <path
    d="M23.9884 22.0237L32.9284 16.8314V29.4889C32.9278 29.5828 32.9023 29.6748 32.8544 29.7555C32.8066 29.8361 32.7382 29.9025 32.6564 29.9476C32.5819 29.9827 32.5007 30.0014 32.4185 30.0023C32.3142 30.0034 32.2122 29.9724 32.1261 29.9133L29.0054 27.216C29.0054 27.216 24.8675 34.5118 24.7908 34.5658C24.7141 34.6199 24.6241 34.6516 24.5307 34.6576C24.4373 34.6635 24.344 34.6435 24.2612 34.5997C24.1783 34.5558 24.109 34.4899 24.0609 34.4091C24.0128 34.3282 23.9877 34.2357 23.9884 34.1414V22.0237Z"
    fill="white"
  />
</svg>
