<svg
  viewBox="0 0 67 73"
  xmlns="http://www.w3.org/2000/svg"
>
  <path
    fill-rule="evenodd"
    clip-rule="evenodd"
    d="M33.314 7.5613L55.1683 19.9336L33.314 32.5613L11.314 20.0613L33.314 7.5613ZM3.78095 15.8126L30.316 0.790401C32.1773 -0.263377 34.4505 -0.263512 36.3117 0.790267L63.0167 15.9087C65.0534 17.0617 66.314 19.2307 66.314 21.5827V50.6716C66.314 53.0209 65.0795 55.1946 63.0692 56.3872L36.5653 72.1076C34.5591 73.2971 32.0693 73.2974 30.0631 72.1078L3.55877 56.3872C1.54788 55.1945 0.313965 53.0205 0.313965 50.6716V21.7787C0.313965 19.3058 1.63929 17.025 3.78095 15.8126Z"
  />
  <path
    d="M41.1475 37.7033L56.5502 28.6786V50.6786C56.549 50.8419 56.5051 51.0018 56.4226 51.1419C56.3402 51.2821 56.2225 51.3974 56.0816 51.4758C55.9531 51.5368 55.8133 51.5693 55.6715 51.571C55.4919 51.5729 55.3162 51.519 55.1678 51.4163L49.7912 46.728C49.7912 46.728 42.662 59.4089 42.5299 59.5028C42.3977 59.5967 42.2427 59.6519 42.0818 59.6622C41.9208 59.6726 41.7602 59.6378 41.6174 59.5617C41.4747 59.4854 41.3553 59.3708 41.2724 59.2303C41.1895 59.0898 41.1463 58.9289 41.1475 58.7651V37.7033Z"
    fill="#D1D5DB"
  />
  <path
    d="M33.314 32.5613L55.1683 19.9336L33.314 7.5613L11.314 20.0613L33.314 32.5613Z"
    fill="#D1D5DB"
  />
</svg>
