<svg viewBox="0 0 48 43" xmlns="http://www.w3.org/2000/svg">
  <path
    fill-rule="evenodd"
    clip-rule="evenodd"
    d="M0.314209 3.58333C0.314209 1.60431 1.93287 0 3.92959 0H43.6988C45.6955 0 47.3142 1.60431 47.3142 3.58333C47.3142 5.56235 45.6955 7.16667 43.6988 7.16667H3.92959C1.93287 7.16667 0.314209 5.56235 0.314209 3.58333ZM0.314209 21.5C0.314209 19.521 1.93287 17.9167 3.92959 17.9167H43.6988C45.6955 17.9167 47.3142 19.521 47.3142 21.5C47.3142 23.479 45.6955 25.0833 43.6988 25.0833H3.92959C1.93287 25.0833 0.314209 23.479 0.314209 21.5ZM0.314209 39.4167C0.314209 37.4376 1.93287 35.8333 3.92959 35.8333H43.6988C45.6955 35.8333 47.3142 37.4376 47.3142 39.4167C47.3142 41.3957 45.6955 43 43.6988 43H3.92959C1.93287 43 0.314209 41.3957 0.314209 39.4167Z"
  />
</svg>
