<svg viewBox="0 0 36 34" xmlns="http://www.w3.org/2000/svg">
  <path
    fill-rule="evenodd"
    clip-rule="evenodd"
    d="M0 2.56923C0 1.1503 1.1466 0 2.56098 0H33.0532C34.4675 0 35.6142 1.1503 35.6142 2.56923C35.6142 3.98817 34.4675 5.13847 33.0532 5.13847H2.56098C1.1466 5.13847 0 3.98817 0 2.56923ZM0 16.5267C0 15.1078 1.1466 13.9575 2.56098 13.9575H23.0488C24.4632 13.9575 25.6098 15.1078 25.6098 16.5267C25.6098 17.9456 24.4632 19.096 23.0488 19.096H2.56098C1.1466 19.096 0 17.9456 0 16.5267ZM0 30.4842C0 29.0653 1.1466 27.915 2.56098 27.915H26.4634C27.8778 27.915 29.0244 29.0653 29.0244 30.4842C29.0244 31.9031 27.8778 33.0535 26.4634 33.0535H2.56098C1.1466 33.0535 0 31.9031 0 30.4842Z"
  />
</svg>
