<svg viewBox="0 0 222 123" xmlns="http://www.w3.org/2000/svg">
  <path
    fill-rule="evenodd"
    clip-rule="evenodd"
    d="M0.541687 8.10297C0.541687 3.62786 4.16167 0 8.62705 0H104.895C109.361 0 112.981 3.62786 112.981 8.10297C112.981 12.5781 109.361 16.2059 104.895 16.2059H8.62705C4.16167 16.2059 0.541687 12.5781 0.541687 8.10297ZM200.218 24.3402C213.532 29.3292 221.542 42.8886 221.542 59.8444C221.542 72.3878 214.007 84.0744 206.091 93.1357C197.923 102.484 187.994 110.556 180.629 115.996C180.342 116.208 180.053 116.423 179.762 116.64C175.756 119.624 171.223 123 164.944 123C158.666 123 154.132 119.624 150.126 116.64C149.835 116.423 149.546 116.208 149.26 115.996C141.894 110.556 131.966 102.484 123.797 93.1357C115.881 84.0744 108.347 72.3878 108.347 59.8454C108.347 42.8886 116.356 29.3293 129.67 24.3402C140.913 20.1271 153.705 22.8628 164.944 31.6162C176.183 22.8628 188.975 20.1271 200.218 24.3402ZM194.555 39.5196C188.979 37.4304 180.09 38.5455 170.721 48.135C169.2 49.6908 167.119 50.5681 164.944 50.5681C162.77 50.5681 160.688 49.6908 159.167 48.135C149.799 38.5455 140.909 37.4304 135.333 39.5196C129.848 41.5749 124.517 47.8768 124.517 59.8454C124.517 66.2371 128.644 74.0818 135.964 82.4603C143.033 90.5503 151.915 97.8257 158.853 102.95C161.473 104.885 162.797 105.84 163.855 106.415C164.561 106.797 164.763 106.796 164.918 106.794H164.97C165.125 106.796 165.327 106.797 166.033 106.415C167.092 105.84 168.415 104.885 171.035 102.95C177.973 97.8257 186.855 90.5503 193.924 82.4603C201.244 74.0829 205.371 66.2371 205.371 59.8444C205.371 47.8768 200.04 41.5749 194.555 39.5196ZM0.541687 52.1228C0.541687 47.6478 4.16167 44.0198 8.62705 44.0198H73.31C77.7754 44.0198 81.3953 47.6478 81.3953 52.1228C81.3953 56.5978 77.7754 60.2257 73.31 60.2257H8.62705C4.16167 60.2257 0.541687 56.5978 0.541687 52.1228ZM0.541687 96.1426C0.541687 91.6676 4.16167 88.0396 8.62705 88.0396H84.0905C88.5557 88.0396 92.1758 91.6676 92.1758 96.1426C92.1758 100.618 88.5557 104.246 84.0905 104.246H8.62705C4.16167 104.246 0.541687 100.618 0.541687 96.1426Z"
  />
</svg>
