<svg viewBox="0 0 89 75" xmlns="http://www.w3.org/2000/svg">
  <path
    fill-rule="evenodd"
    clip-rule="evenodd"
    d="M9.52763 9.21258e-06C9.56481 1.37791e-05 9.60204 1.83457e-05 9.6393 1.83457e-05L54.5421 9.21258e-06C55.4255 -9.95541e-05 56.286 -0.000205413 57.0148 0.0614649C57.8145 0.129129 58.7594 0.288782 59.7097 0.79078C61.0284 1.48757 62.0965 2.59832 62.766 3.96088C63.2494 4.94419 63.4043 5.92171 63.4701 6.75159C63.5305 7.51164 63.5304 8.40871 63.5303 9.33054V12.1334C63.5303 12.1921 63.5305 12.2526 63.5306 12.3145C63.5324 12.99 63.5346 13.8518 63.3384 14.7006L63.3381 14.7021C63.1631 15.4574 62.8735 16.1629 62.4982 16.7981L62.4971 16.8001C62.0535 17.5497 61.4628 18.1594 60.9867 18.6508C60.9457 18.6932 60.9055 18.7347 60.8663 18.7753L43.1499 37.141C43.1329 37.1586 43.1158 37.176 43.0985 37.1932C42.8045 37.4981 42.6548 37.6549 42.5493 37.7747C42.5473 37.7771 42.5453 37.7794 42.5434 37.7816C42.5432 37.7857 42.543 37.79 42.5428 37.7945C42.5352 37.9667 42.5343 38.2039 42.5343 38.6791V54.4531C42.5343 54.5422 42.5347 54.6338 42.535 54.7277C42.5387 55.7288 42.5433 56.9886 42.1518 58.1653C41.8098 59.1937 41.2514 60.1151 40.5341 60.8744C39.6918 61.7662 38.6052 62.3244 37.7327 62.7726C37.6548 62.8126 37.5786 62.8518 37.5045 62.8902L34.5835 64.4042C33.3497 65.0437 32.2179 65.6304 31.2573 66.019C30.2702 66.4184 28.969 66.8263 27.5133 66.6035C25.6081 66.3118 23.905 65.2196 22.8021 63.5854C21.9582 62.3345 21.7284 60.9439 21.6319 59.8504C21.5382 58.7883 21.5383 57.4795 21.5384 56.0534L21.5384 38.6523C21.5384 38.186 21.5375 37.9548 21.5301 37.7869L21.5299 37.7826C21.5654 37.8233 21.5794 37.8414 21.5794 37.8414C21.5794 37.8414 21.563 37.82 21.5408 37.783C21.5408 37.783 21.5399 37.78 21.5394 37.7777L21.5386 37.7744C21.5279 37.7276 21.5244 37.6969 21.5244 37.6969C21.5244 37.6969 21.5271 37.7219 21.5299 37.7826C21.5268 37.779 21.5236 37.7753 21.5202 37.7715C21.4088 37.6449 21.2484 37.4774 20.9241 37.1414L3.20766 18.7757C3.16669 18.7332 3.12447 18.6897 3.08121 18.6451C2.6104 18.1596 2.01657 17.5473 1.57413 16.7989C1.19176 16.1521 0.907867 15.4449 0.735807 14.7021C0.538104 13.8484 0.540319 12.9805 0.542094 12.2916C0.542257 12.2283 0.542416 12.1666 0.542416 12.1065V9.43201C0.542416 9.39342 0.542412 9.35487 0.542407 9.31636C0.542302 8.40077 0.5422 7.50901 0.601704 6.75376C0.667028 5.92465 0.821158 4.94582 1.3052 3.961C1.97619 2.59596 3.04647 1.4864 4.36326 0.790818C5.31278 0.289298 6.25633 0.129284 7.05638 0.0614964C7.78461 -0.00020666 8.64453 -0.000100384 9.52763 9.21258e-06ZM7.58113 7.29656C7.5798 7.31161 7.57846 7.32753 7.57713 7.34436C7.54379 7.76754 7.54107 8.35638 7.54107 9.43201V12.1065C7.54107 12.5816 7.5419 12.8189 7.54951 12.9913C7.54969 12.9956 7.54988 12.9997 7.55007 13.0037C7.5529 13.0069 7.55587 13.0103 7.55897 13.0138C7.67124 13.1413 7.83254 13.3098 8.15645 13.6456L25.8724 32.0106C25.9132 32.053 25.9556 32.0967 25.9987 32.1411C26.4696 32.6265 27.0611 33.2363 27.5038 33.985L27.5046 33.9864C27.8824 34.6255 28.1709 35.3335 28.3447 36.0843M7.58113 7.29656C7.59543 7.2952 7.61055 7.29383 7.62651 7.29248C8.03416 7.25794 8.60162 7.25512 9.6393 7.25512H54.4306C55.4683 7.25512 56.0368 7.25793 56.4455 7.29251C56.4614 7.29386 56.4765 7.29523 56.4908 7.29659C56.4922 7.31227 56.4937 7.32891 56.4951 7.34654C56.5286 7.76881 56.5316 8.35774 56.5316 9.43201V12.1334C56.5316 12.5995 56.5308 12.8311 56.5234 12.9993L56.5232 13.0028C56.5194 13.0073 56.5153 13.012 56.5109 13.0169C56.4001 13.1431 56.2392 13.3116 55.9171 13.6456L38.2403 31.9703C38.223 31.9875 38.2058 32.0049 38.1888 32.0225C38.1485 32.0644 38.1069 32.1073 38.0642 32.1513C37.6001 32.6298 37.0102 33.238 36.5692 33.9833C36.1837 34.6341 35.9002 35.3443 35.7289 36.0846C35.5315 36.9378 35.5336 37.8049 35.5354 38.494C35.5355 38.5573 35.5357 38.619 35.5357 38.6791V54.4531C35.5357 55.1482 35.5341 55.506 35.5185 55.7651C35.5181 55.7724 35.5177 55.7795 35.5172 55.7863C35.5099 55.7907 35.5022 55.7955 35.4939 55.8004C35.2796 55.9297 34.9724 56.0913 34.375 56.4008L31.5753 57.852C30.1733 58.5785 29.3351 59.0086 28.7127 59.2605C28.6769 59.275 28.6434 59.2882 28.6121 59.3002C28.6085 59.2659 28.6049 59.2291 28.6014 59.1895C28.5405 58.4992 28.537 57.5296 28.537 55.9042V38.6523C28.537 38.5936 28.5372 38.5331 28.5374 38.4711C28.5391 37.7956 28.5413 36.9336 28.3447 36.0843"
  />
  <path
    fill-rule="evenodd"
    clip-rule="evenodd"
    d="M56.0949 52.5767C56.0949 50.2755 58.1919 48.41 60.7787 48.41C63.3655 48.41 80.2048 48.41 80.2048 48.41C82.7916 48.41 84.8886 50.2755 84.8886 52.5767C84.8886 54.8779 82.7916 56.7433 80.2048 56.7433H60.7787C58.1919 56.7433 56.0949 54.8779 56.0949 52.5767Z"
  />
  <path
    fill-rule="evenodd"
    clip-rule="evenodd"
    d="M72.3758 70.8333C72.3758 68.5321 74.4771 66.6667 77.0692 66.6667H84.2373C86.8294 66.6667 88.9306 68.5321 88.9306 70.8333C88.9306 73.1345 86.8294 75 84.2373 75H77.0692C74.4771 75 72.3758 73.1345 72.3758 70.8333Z"
  />
  <path
    fill-rule="evenodd"
    clip-rule="evenodd"
    d="M46.0704 70.8333C46.0704 68.5321 48.1717 66.6667 50.7638 66.6667H61.7148C64.3068 66.6667 66.4081 68.5321 66.4081 70.8333C66.4081 73.1345 64.3068 75 61.7148 75H50.7638C48.1717 75 46.0704 73.1345 46.0704 70.8333Z"
  />
</svg>
