<svg viewBox="0 0 63 37" xmlns="http://www.w3.org/2000/svg">
  <path
    fill-rule="evenodd"
    clip-rule="evenodd"
    d="M0 2.56923C0 1.1503 1.1466 0 2.56098 0H33.0532C34.4675 0 35.6142 1.1503 35.6142 2.56923C35.6142 3.98817 34.4675 5.13847 33.0532 5.13847H2.56098C1.1466 5.13847 0 3.98817 0 2.56923ZM0 16.5267C0 15.1078 1.1466 13.9575 2.56098 13.9575H23.0488C24.4632 13.9575 25.6098 15.1078 25.6098 16.5267C25.6098 17.9456 24.4632 19.096 23.0488 19.096H2.56098C1.1466 19.096 0 17.9456 0 16.5267ZM0 30.4842C0 29.0653 1.1466 27.915 2.56098 27.915H26.4634C27.8778 27.915 29.0244 29.0653 29.0244 30.4842C29.0244 31.9031 27.8778 33.0535 26.4634 33.0535H2.56098C1.1466 33.0535 0 31.9031 0 30.4842Z"
  />
  <path
    d="M51.4492 13.9953H51.4049C50.1943 13.9953 49.2129 14.9767 49.2129 16.1874V16.2317C49.2129 17.4423 50.1943 18.4238 51.4049 18.4238H51.4492C52.6598 18.4238 53.6411 17.4423 53.6411 16.2317V16.1874C53.6411 14.9767 52.6598 13.9953 51.4492 13.9953Z"
  />
  <path
    d="M57.9653 9.67096L57.4505 21.0011C57.4378 21.2768 57.3225 21.5378 57.1273 21.7329L48.8243 30.0362C48.6167 30.2437 48.3352 30.3603 48.0416 30.3603C47.7481 30.3603 47.4665 30.2437 47.2589 30.0362L37.5965 20.3822C37.3889 20.1746 37.2724 19.8931 37.2724 19.5995C37.2724 19.3059 37.3889 19.0244 37.5965 18.8168L45.8995 10.5135C46.0946 10.3183 46.3555 10.203 46.6312 10.1902L57.9609 9.67539M60.2104 5.13847H60.0997L45.1433 5.81823C44.5916 5.84351 44.0692 6.07412 43.6787 6.46478L32.1708 17.9809C31.9581 18.1935 31.7894 18.4459 31.6743 18.7238C31.5592 19.0016 31.5 19.2993 31.5 19.6001C31.5 19.9008 31.5592 20.1985 31.6743 20.4764C31.7894 20.7542 31.9581 21.0066 32.1708 21.2192L46.4187 35.4677C46.6313 35.6803 46.8837 35.849 47.1615 35.9641C47.4393 36.0792 47.737 36.1385 48.0377 36.1385C48.3384 36.1385 48.6362 36.0792 48.914 35.9641C49.1918 35.849 49.4442 35.6803 49.6568 35.4677L61.1692 23.9593C61.5598 23.5688 61.7904 23.0464 61.8157 22.4946L62.4976 7.53203C62.5117 7.22292 62.463 6.91416 62.3544 6.62441C62.2458 6.33466 62.0795 6.06993 61.8658 5.84621C61.652 5.6225 61.3951 5.44444 61.1106 5.3228C60.8261 5.20115 60.5199 5.13845 60.2104 5.13847Z"
  />
</svg>
