<svg viewBox="0 0 62 37" xmlns="http://www.w3.org/2000/svg">
  <path
    fill-rule="evenodd"
    clip-rule="evenodd"
    d="M0 2.56923C0 1.1503 1.1466 0 2.56098 0H33.0532C34.4675 0 35.6142 1.1503 35.6142 2.56923C35.6142 3.98817 34.4675 5.13847 33.0532 5.13847H2.56098C1.1466 5.13847 0 3.98817 0 2.56923ZM0 16.5267C0 15.1078 1.1466 13.9575 2.56098 13.9575H23.0488C24.4632 13.9575 25.6098 15.1078 25.6098 16.5267C25.6098 17.9456 24.4632 19.096 23.0488 19.096H2.56098C1.1466 19.096 0 17.9456 0 16.5267ZM0 30.4842C0 29.0653 1.1466 27.915 2.56098 27.915H26.4634C27.8778 27.915 29.0244 29.0653 29.0244 30.4842C29.0244 31.9031 27.8778 33.0535 26.4634 33.0535H2.56098C1.1466 33.0535 0 31.9031 0 30.4842Z"
  />
  <path
    d="M50.8056 14.7096H50.7628C49.5912 14.7096 48.6415 15.6594 48.6415 16.831V16.8738C48.6415 18.0454 49.5912 18.9952 50.7628 18.9952H50.8056C51.9772 18.9952 52.9269 18.0454 52.9269 16.8738V16.831C52.9269 15.6594 51.9772 14.7096 50.8056 14.7096Z"
  />
  <path
    d="M57.1116 10.5248L56.6134 21.4894C56.6011 21.7562 56.4895 22.0088 56.3006 22.1976L48.2655 30.233C48.0646 30.4339 47.7921 30.5467 47.508 30.5467C47.2239 30.5467 46.9515 30.4339 46.7506 30.233L37.3998 20.8905C37.199 20.6896 37.0862 20.4171 37.0862 20.133C37.0862 19.8489 37.199 19.5765 37.3998 19.3755L45.435 11.3401C45.6238 11.1512 45.8763 11.0396 46.1431 11.0272L57.1073 10.529M59.2843 6.13847H59.1772L44.7032 6.7963C44.1693 6.82077 43.6637 7.04393 43.2858 7.422L32.1491 18.5666C31.9433 18.7724 31.7801 19.0167 31.6687 19.2855C31.5573 19.5544 31.5 19.8425 31.5 20.1336C31.5 20.4246 31.5573 20.7127 31.6687 20.9816C31.7801 21.2504 31.9433 21.4947 32.1491 21.7005L45.9374 35.4893C46.1432 35.6951 46.3874 35.8584 46.6563 35.9698C46.9251 36.0811 47.2133 36.1385 47.5043 36.1385C47.7953 36.1385 48.0834 36.0811 48.3523 35.9698C48.6211 35.8584 48.8654 35.6951 49.0711 35.4893L60.2121 24.3522C60.5901 23.9743 60.8133 23.4687 60.8378 22.9347L61.4977 8.45482C61.5113 8.15568 61.4642 7.85688 61.3591 7.57647C61.254 7.29607 61.0931 7.03988 60.8862 6.82338C60.6794 6.60688 60.4307 6.43457 60.1554 6.31685C59.8801 6.19913 59.5837 6.13845 59.2843 6.13847Z"
  />
</svg>
