<svg viewBox="0 0 30 6" xmlns="http://www.w3.org/2000/svg">
  <path
    d="M3 6C2.40666 6 1.82664 5.82405 1.33329 5.49441C0.839943 5.16476 0.455426 4.69623 0.228363 4.14805C0.00129974 3.59987 -0.0581103 2.99667 0.0576453 2.41473C0.173401 1.83279 0.459123 1.29824 0.878681 0.878681C1.29824 0.459124 1.83279 0.173401 2.41473 0.0576452C2.99667 -0.0581105 3.59987 0.00129951 4.14805 0.228362C4.69623 0.455425 5.16477 0.839943 5.49441 1.33329C5.82405 1.82664 6 2.40666 6 3C6 3.79565 5.68393 4.55871 5.12132 5.12132C4.55871 5.68393 3.79565 6 3 6ZM18 3C18 2.40666 17.8241 1.82664 17.4944 1.33329C17.1648 0.839943 16.6962 0.455425 16.1481 0.228362C15.5999 0.00129898 14.9967 -0.058111 14.4147 0.0576447C13.8328 0.1734 13.2982 0.459123 12.8787 0.878681C12.4591 1.29824 12.1734 1.83279 12.0576 2.41473C11.9419 2.99667 12.0013 3.59987 12.2284 4.14805C12.4554 4.69623 12.8399 5.16476 13.3333 5.49441C13.8266 5.82405 14.4067 6 15 6C15.7957 6 16.5587 5.68393 17.1213 5.12132C17.6839 4.55871 18 3.79565 18 3ZM30 3C30 2.40666 29.8241 1.82664 29.4944 1.33329C29.1648 0.839942 28.6962 0.455424 28.1481 0.228361C27.5999 0.00129846 26.9967 -0.0581115 26.4147 0.0576442C25.8328 0.1734 25.2982 0.459123 24.8787 0.87868C24.4591 1.29824 24.1734 1.83279 24.0576 2.41473C23.9419 2.99667 24.0013 3.59987 24.2284 4.14805C24.4554 4.69623 24.8399 5.16476 25.3333 5.49441C25.8266 5.82405 26.4067 6 27 6C27.7956 6 28.5587 5.68393 29.1213 5.12132C29.6839 4.55871 30 3.79565 30 3Z"
  />
</svg>
