<svg viewBox="0 0 61 58" xmlns="http://www.w3.org/2000/svg">
  <path
    d="M32.629 53.2839C33.4673 53.4789 33.5442 54.5773 32.7276 54.8495L27.9057 56.4365C15.7901 60.343 9.41179 57.0774 5.47497 44.9612L1.56866 32.9059C-2.33764 20.7896 0.89727 14.3804 13.0129 10.4739L14.612 9.94433C15.8415 9.53717 17.038 10.7703 16.6889 12.0176C16.5159 12.6358 16.3494 13.281 16.1868 13.9532L13.196 26.741C9.83904 41.1157 14.7524 49.0508 29.1264 52.469L32.629 53.2839Z"
  />
  <path
    d="M46.3441 2.16244L41.2476 0.972181C31.0546 -1.43887 24.9815 0.544906 21.4108 7.93065C20.4953 9.79234 19.7629 12.0508 19.1525 14.645L16.1617 27.4325C13.171 40.1897 17.1078 46.4768 29.8339 49.4982L34.9609 50.719C36.7309 51.1463 38.3789 51.4209 39.9048 51.543C49.4264 52.4586 54.4924 48.0027 57.0559 36.9852L60.0467 24.228C63.0374 11.4709 59.1311 5.15336 46.3441 2.16244ZM40.6067 33.0481C40.332 34.0858 39.4165 34.7572 38.3789 34.7572C38.1958 34.7572 38.0127 34.7267 37.799 34.6962L28.9183 32.4378C27.6976 32.1326 26.9652 30.8813 27.2703 29.6605C27.5755 28.4397 28.8268 27.7072 30.0475 28.0124L38.9282 30.2709C40.1795 30.5761 40.9119 31.8274 40.6067 33.0481ZM49.5485 22.7326C49.2738 23.7702 48.3583 24.4416 47.3207 24.4416C47.1376 24.4416 46.9544 24.4111 46.7408 24.3806L31.9396 20.6268C30.7189 20.3216 29.9864 19.0703 30.2916 17.8495C30.5968 16.6287 31.848 15.8963 33.0688 16.2015L47.87 19.9554C49.1212 20.23 49.8537 21.4813 49.5485 22.7326Z"
  />
</svg>
