<svg viewBox="0 0 57 69" xmlns="http://www.w3.org/2000/svg">
  <path
    fill-rule="evenodd"
    clip-rule="evenodd"
    d="M50.4583 51.7083V28.1354C50.4583 15.9564 40.5853 6.08334 28.4063 6.08334C16.2272 6.08334 6.35418 15.9564 6.35418 28.1354V51.7083H4.07293C1.97309 51.7083 0.270844 53.4106 0.270844 55.5104C0.270844 57.6102 1.97309 59.3125 4.07293 59.3125H52.7396C54.8394 59.3125 56.5417 57.6102 56.5417 55.5104C56.5417 53.4106 54.8394 51.7083 52.7396 51.7083H50.4583Z"
  />
  <path
    fill-rule="evenodd"
    clip-rule="evenodd"
    d="M21.5625 64.6354C21.5625 62.5356 23.2648 60.8333 25.3646 60.8333H31.4479C33.5477 60.8333 35.25 62.5356 35.25 64.6354C35.25 66.7352 33.5477 68.4375 31.4479 68.4375H25.3646C23.2648 68.4375 21.5625 66.7352 21.5625 64.6354Z"
  />
  <path
    fill-rule="evenodd"
    clip-rule="evenodd"
    d="M28.4063 7.60417C28.8262 7.60417 29.1667 7.26372 29.1667 6.84375C29.1667 6.42378 28.8262 6.08333 28.4063 6.08333C27.9863 6.08333 27.6458 6.42378 27.6458 6.84375C27.6458 7.26372 27.9863 7.60417 28.4063 7.60417ZM21.5625 6.84375C21.5625 3.06405 24.6266 0 28.4063 0C32.1859 0 35.25 3.06405 35.25 6.84375C35.25 10.6234 32.1859 13.6875 28.4063 13.6875C24.6266 13.6875 21.5625 10.6234 21.5625 6.84375Z"
  />
</svg>
