<svg
  viewBox="0 0 57 69"
  xmlns="http://www.w3.org/2000/svg"
>
  <path
    fill-rule="evenodd"
    clip-rule="evenodd"
    d="M28.3497 13.6875C20.3703 13.6875 13.9018 20.156 13.9018 28.1354V51.7083H42.7976V28.1354C42.7976 20.1561 36.3291 13.6875 28.3497 13.6875ZM50.4018 51.7083V28.1354C50.4018 15.9564 40.5287 6.08334 28.3497 6.08334C16.1707 6.08334 6.29763 15.9564 6.29763 28.1354V51.7083H4.01638C1.91655 51.7083 0.214294 53.4106 0.214294 55.5104C0.214294 57.6102 1.91655 59.3125 4.01638 59.3125H52.683C54.7829 59.3125 56.4851 57.6102 56.4851 55.5104C56.4851 53.4106 54.7829 51.7083 52.683 51.7083H50.4018Z"
  />
  <path
    fill-rule="evenodd"
    clip-rule="evenodd"
    d="M21.506 64.6354C21.506 62.5356 23.2082 60.8333 25.308 60.8333H31.3914C33.4912 60.8333 35.1935 62.5356 35.1935 64.6354C35.1935 66.7352 33.4912 68.4375 31.3914 68.4375H25.308C23.2082 68.4375 21.506 66.7352 21.506 64.6354Z"
  />
  <path
    fill-rule="evenodd"
    clip-rule="evenodd"
    d="M28.3497 7.60417C28.7697 7.60417 29.1101 7.26372 29.1101 6.84375C29.1101 6.42378 28.7697 6.08333 28.3497 6.08333C27.9297 6.08333 27.5893 6.42378 27.5893 6.84375C27.5893 7.26372 27.9297 7.60417 28.3497 7.60417ZM21.506 6.84375C21.506 3.06405 24.57 0 28.3497 0C32.1294 0 35.1935 3.06405 35.1935 6.84375C35.1935 10.6234 32.1294 13.6875 28.3497 13.6875C24.57 13.6875 21.506 10.6234 21.506 6.84375Z"
  />
</svg>
