<svg viewBox="0 0 83 64" xmlns="http://www.w3.org/2000/svg">
  <path
    fill-rule="evenodd"
    clip-rule="evenodd"
    d="M70.3997 8.25796L59.8065 8.25825C56.6245 8.25832 53.486 9.00441 50.64 10.4374L45.8 12.8742V53.1898L46.9713 52.5999C46.9714 52.5999 46.9714 52.5999 46.9715 52.5999C50.9571 50.5925 55.352 49.5477 59.808 49.5477H70.4C72.6643 49.5477 74.5 47.699 74.5 45.4188V12.3869C74.5 10.1066 72.6642 8.2579 70.3997 8.25796ZM37.6 53.19V12.8743L32.7601 10.4377C29.914 9.00477 26.7756 8.25871 23.5935 8.25871H13C10.7356 8.25871 8.89995 10.1073 8.89995 12.3877V45.4196C8.89995 47.7 10.7355 49.5486 13 49.5486H23.5927C28.0483 49.5486 32.4425 50.5934 36.4275 52.5996L36.4279 52.5998L37.6 53.19ZM41.6999 5.70603L46.973 3.05111C46.973 3.0511 46.973 3.05112 46.973 3.05111C50.9576 1.04489 55.3516 0.000383695 59.8063 0.0002873L70.3994 4.66359e-09C77.1926 -0.000185697 82.7 5.54559 82.7 12.3869V45.4188C82.7 52.2595 77.1933 57.8057 70.4 57.8057H59.808C56.625 57.8057 53.4858 58.552 50.6392 59.9857L43.5337 63.564C42.3794 64.1453 41.0206 64.1453 39.8663 63.5641L32.761 59.9861C32.7608 59.986 32.7607 59.9859 32.7606 59.9859C29.9138 58.5528 26.775 57.8065 23.5927 57.8065H13C6.20689 57.8065 0.699951 52.2609 0.699951 45.4196V12.3877C0.699951 5.54663 6.20682 0.000742341 13 0.000742341H23.5935C28.0484 0.000742341 32.4422 1.04519 36.4267 3.05128C36.4268 3.05129 36.4267 3.05127 36.4267 3.05128L41.6999 5.70603Z"
  />
</svg>
