<svg viewBox="0 0 84 64" xmlns="http://www.w3.org/2000/svg">
  <path
    fill-rule="evenodd"
    clip-rule="evenodd"
    d="M40.9999 5.70599L46.2731 3.05106C50.2577 1.04484 54.6516 0.000337918 59.1063 0.000241523L69.6995 -4.57717e-05C76.4927 -0.000231474 82 5.54554 82 12.3869V45.4187C82 52.2594 76.4934 57.8057 69.7 57.8057H59.1081C55.925 57.8057 52.7858 58.552 49.9392 59.9857L42.8338 63.564C41.6794 64.1453 40.3207 64.1453 39.1663 63.564L32.061 59.986C29.2142 58.5529 26.075 57.8065 22.8927 57.8065H12.3C5.50694 57.8065 0 52.2608 0 45.4195V12.3877C0 5.54659 5.50687 0.000696564 12.3 0.000696564H22.8935C27.3485 0.000696564 31.7422 1.04514 35.7268 3.05124L40.9999 5.70599Z"
  />
</svg>
