<svg viewBox="0 0 17 20" xmlns="http://www.w3.org/2000/svg">
  <path
    fill-rule="evenodd"
    clip-rule="evenodd"
    d="M2.65625 1.05263C2.65625 0.471284 3.13195 0 3.71875 0H13.2812C13.8681 0 14.3437 0.471284 14.3437 1.05263C14.3437 1.63398 13.8681 2.10526 13.2812 2.10526H12.8509L13.7203 11.5789H15.9375C16.5243 11.5789 17 12.0502 17 12.6316C17 13.2129 16.5243 13.6842 15.9375 13.6842H9.5625V18.9474C9.5625 19.5287 9.08682 20 8.5 20C7.91318 20 7.4375 19.5287 7.4375 18.9474V13.6842H1.0625C0.475702 13.6842 0 13.2129 0 12.6316C0 12.0502 0.475702 11.5789 1.0625 11.5789H3.27971L4.14903 2.10526H3.71875C3.13195 2.10526 2.65625 1.63398 2.65625 1.05263ZM6.28279 2.10526L5.41347 11.5789H11.5866L10.7172 2.10526H6.28279Z"
  />
</svg>
