<svg viewBox="0 0 126 126" xmlns="http://www.w3.org/2000/svg">
  <path
    fill-rule="evenodd"
    clip-rule="evenodd"
    d="M91.4221 107.149C83.23 112.433 73.4734 115.5 63 115.5C52.5266 115.5 42.7697 112.433 34.578 107.149C39.6563 96.5566 50.4805 89.25 63 89.25C75.5202 89.25 86.3443 96.558 91.4221 107.149ZM99.7815 100.461C92.6282 87.5189 78.8424 78.75 63 78.75C47.1564 78.75 33.3713 87.5203 26.2181 100.461C16.5172 90.9349 10.5 77.6706 10.5 63C10.5 34.005 34.005 10.5 63 10.5C91.9947 10.5 115.5 34.005 115.5 63C115.5 77.6706 109.483 90.9356 99.7815 100.461ZM126 63C126 97.7942 97.7942 126 63 126C28.2061 126 0 97.7942 0 63C0 28.2061 28.2061 0 63 0C97.7942 0 126 28.2061 126 63ZM63 63C71.6982 63 78.75 55.9482 78.75 47.25C78.75 38.5515 71.6982 31.5 63 31.5C54.3018 31.5 47.25 38.5515 47.25 47.25C47.25 55.9482 54.3018 63 63 63ZM63 73.5C77.4977 73.5 89.25 61.7477 89.25 47.25C89.25 32.7525 77.4977 21 63 21C48.5025 21 36.75 32.7525 36.75 47.25C36.75 61.7477 48.5025 73.5 63 73.5Z"
  />
</svg>
