<svg viewBox="0 0 107 106" xmlns="http://www.w3.org/2000/svg">
  <path
    d="M106.752 52.8999C106.806 82.1012 82.9921 105.979 53.7909 106C41.1788 106.009 29.594 101.613 20.4902 94.265C18.123 92.3544 17.946 88.8066 20.0972 86.6554L22.5051 84.2475C24.3449 82.4077 27.2821 82.2064 29.3205 83.8235C36.0278 89.146 44.5161 92.3228 53.7524 92.3228C75.4877 92.3228 93.0749 74.7321 93.0749 53.0001C93.0749 31.2647 75.4843 13.6774 53.7524 13.6774C43.3204 13.6774 33.8456 17.7313 26.8105 24.3484L37.6571 35.1951C39.8113 37.3493 38.2856 41.0323 35.2394 41.0323H4.17179C2.28324 41.0323 0.752441 39.5015 0.752441 37.613V6.5453C0.752441 3.49907 4.43551 1.9734 6.5897 4.12738L17.141 14.6787C26.656 5.58553 39.5518 0 53.7524 0C82.99 0 106.698 23.6748 106.752 52.8999ZM68.0897 69.7368L70.189 67.0376C71.9282 64.8016 71.5253 61.5791 69.2893 59.8401L60.5911 53.0747V30.7743C60.5911 27.9415 58.2948 25.6452 55.4621 25.6452H52.0427C49.21 25.6452 46.9137 27.9415 46.9137 30.7743V59.7642L60.8922 70.6365C63.1283 72.3755 66.3506 71.9729 68.0897 69.7368Z"
  />
</svg>
