<svg viewBox="0 0 55 55" xmlns="http://www.w3.org/2000/svg">
  <path
    fill-rule="evenodd"
    clip-rule="evenodd"
    d="M53.6462 1.35377C55.4513 3.15879 55.4513 6.0853 53.6462 7.89032L7.89033 53.6462C6.08531 55.4513 3.15879 55.4513 1.35377 53.6462C-0.45125 51.8412 -0.451253 48.9147 1.35377 47.1097L47.1097 1.35377C48.9147 -0.451255 51.8412 -0.451255 53.6462 1.35377Z"
  />
  <path
    fill-rule="evenodd"
    clip-rule="evenodd"
    d="M1.35377 1.35377C3.15879 -0.45125 6.0853 -0.45125 7.89032 1.35377L53.6462 47.1097C55.4513 48.9147 55.4513 51.8412 53.6462 53.6462C51.8412 55.4513 48.9147 55.4513 47.1097 53.6462L1.35377 7.89033C-0.451255 6.08531 -0.451255 3.15879 1.35377 1.35377Z"
  />
</svg>
