<svg viewBox="0 0 58 58" xmlns="http://www.w3.org/2000/svg">
  <path
    d="M57.2835 0.71746C56.8056 0.23896 56.2388 0 55.5843 0H38.6673C38.0129 0 37.4469 0.23925 36.9682 0.71746C36.4903 1.19596 36.2512 1.76214 36.2512 2.41657C36.2512 3.071 36.4903 3.63786 36.9682 4.11568L42.4053 9.55318L29.8686 22.0898C29.6169 22.3421 29.4908 22.6311 29.4908 22.9583C29.4908 23.2855 29.6169 23.5752 29.8686 23.8269L34.1734 28.1317C34.425 28.3835 34.7143 28.5092 35.0419 28.5092C35.3692 28.5092 35.6584 28.3835 35.91 28.1317L48.4472 15.5951L53.8838 21.0322C54.3626 21.5107 54.9294 21.75 55.5839 21.75C56.2383 21.75 56.8047 21.5103 57.283 21.0322C57.7609 20.5541 58 19.9875 58 19.333V2.41609C58.0005 1.76122 57.7627 1.19577 57.2835 0.71746ZM23.8276 29.8679C23.5759 29.6161 23.2862 29.4904 22.959 29.4904C22.6318 29.4904 22.3421 29.6161 22.0904 29.8679L9.55373 42.4045L4.11617 36.9665C3.63786 36.489 3.07195 36.2495 2.41705 36.2495C1.76216 36.2495 1.19578 36.4892 0.71747 36.9665C0.23916 37.445 0 38.0121 0 38.6665V55.5834C0 56.2379 0.239155 56.8042 0.71747 57.2825C1.19626 57.7606 1.76262 58 2.41705 58H19.3341C19.9885 58 20.5549 57.7603 21.0332 57.2825C21.5115 56.804 21.7507 56.2379 21.7507 55.5834C21.7507 54.929 21.5115 54.3621 21.0332 53.8834L15.5957 48.4468L28.1324 35.9097C28.384 35.6579 28.5096 35.3689 28.5096 35.0412C28.5096 34.714 28.3836 34.4248 28.1324 34.1726L23.8276 29.8679Z"
  />
</svg>
