<svg viewBox="0 0 18 20" xmlns="http://www.w3.org/2000/svg">
  <path
    d="M7.55133 1.88076C7.44261 1.78761 7.35374 1.67388 7.28991 1.54622C7.22609 1.41857 7.1886 1.27956 7.17965 1.13735C7.1707 0.995147 7.19045 0.852597 7.23777 0.71806C7.28508 0.583523 7.35899 0.459705 7.45518 0.353863C7.55136 0.248021 7.66788 0.162285 7.79791 0.101679C7.92794 0.0410728 8.06886 0.00681664 8.2124 0.000917902C8.35595 -0.00498083 8.49925 0.0175966 8.63388 0.0673268C8.76852 0.117057 8.89179 0.19294 8.99648 0.290527L12.595 3.5024C12.7072 3.60279 12.797 3.72544 12.8584 3.86241C12.9198 3.99938 12.9516 4.14761 12.9516 4.29752C12.9516 4.44743 12.9198 4.59567 12.8584 4.73263C12.797 4.8696 12.7072 4.99225 12.595 5.09264L8.99648 8.30452C8.78279 8.48761 8.50527 8.58038 8.22342 8.56292C7.94157 8.54547 7.67784 8.41918 7.48879 8.21114C7.29973 8.0031 7.20039 7.72988 7.21209 7.45006C7.22378 7.17023 7.34556 6.90609 7.55133 6.71428L9.40814 5.05695C8.00125 4.88921 6.5777 5.18364 5.3557 5.89511C4.1337 6.60659 3.18067 7.69585 2.64268 8.99595C2.1047 10.296 2.01144 11.7352 2.37722 13.0929C2.74299 14.4506 3.5476 15.6519 4.66773 16.5126C5.78786 17.3734 7.1617 17.8461 8.57867 17.8583C9.99564 17.8705 11.3776 17.4216 12.5126 16.5803C13.6477 15.739 14.4732 14.5517 14.8627 13.2006C15.2522 11.8494 15.1842 10.4088 14.6691 9.09963C14.6175 8.9686 14.5925 8.82876 14.5953 8.68812C14.5982 8.54747 14.629 8.40877 14.686 8.27992C14.7429 8.15108 14.8249 8.03462 14.9272 7.93719C15.0295 7.83977 15.1502 7.76328 15.2823 7.7121C15.4144 7.66093 15.5554 7.63606 15.6973 7.63892C15.8391 7.64179 15.9789 7.67232 16.1088 7.72879C16.2388 7.78526 16.3562 7.86656 16.4544 7.96803C16.5527 8.06951 16.6298 8.18918 16.6814 8.32022C17.3528 10.0258 17.4554 11.8999 16.9742 13.6676C16.4929 15.4353 15.4531 17.0035 14.0074 18.1422C12.5616 19.2809 10.7859 19.9301 8.94084 19.9947C7.09575 20.0592 5.27837 19.5357 3.75529 18.5009C2.2322 17.466 1.08359 15.9744 0.477931 14.2447C-0.127724 12.5151 -0.158537 10.6385 0.390011 8.89018C0.938559 7.14189 2.0376 5.61394 3.5259 4.53048C5.0142 3.44703 6.81343 2.86508 8.65966 2.87002L7.55133 1.88076Z"
  />
</svg>
