<svg viewBox="0 0 81 73" xmlns="http://www.w3.org/2000/svg">
  <path
    d="M72.9 0C77.1703 0 80.6686 3.30884 80.9778 7.50577L81 8.11111V64.8889C81 69.165 77.6958 72.6681 73.5045 72.9778L72.9 73H8.1C3.82983 73 0.331431 69.6913 0.0222174 65.4942L0 64.8889V8.11111C0 3.83509 3.3043 0.331886 7.49549 0.0222479L8.1 0H72.9ZM31.908 36.704L8.99772 59.6455C8.72443 59.9192 8.42181 60.1455 8.1 60.3248V64.8889H72.9V60.3252C72.5776 60.1459 72.2747 59.9196 72.0009 59.6455L60.5459 48.1747L57.6821 51.0424L58.5209 51.8823C60.1024 53.466 60.1024 56.034 58.5209 57.6177C56.9394 59.2014 54.3749 59.2014 52.7934 57.6177L31.908 36.704ZM72.9 8.11111H8.1V49.0734L28.3283 28.8176C30.1735 26.9698 33.0886 26.8466 35.0766 28.448L35.4877 28.8176L51.9546 45.307L56.9661 40.2883C58.8115 38.4407 61.7266 38.3176 63.7146 39.9188L64.1257 40.2883L72.9 49.0751V8.11111ZM54.675 16.2222C58.03 16.2222 60.75 18.9458 60.75 22.3056C60.75 25.6653 58.03 28.3889 54.675 28.3889C51.32 28.3889 48.6 25.6653 48.6 22.3056C48.6 18.9458 51.32 16.2222 54.675 16.2222Z"
  />
</svg>
