<svg
  viewBox="0 0 68 68"
  xmlns="http://www.w3.org/2000/svg"
>
  <path
    fill-rule="evenodd"
    clip-rule="evenodd"
    d="M0.485107 30.4479C0.485107 13.632 14.1171 0 30.933 0C47.749 0 61.3809 13.632 61.3809 30.4479C61.3809 37.3705 59.067 43.7581 55.1759 48.8719L66.7591 60.4551C68.366 62.062 68.366 64.6672 66.7591 66.274C65.1523 67.8809 62.5471 67.8809 60.9402 66.274L49.357 54.6908C44.2432 58.5819 37.8556 60.8958 30.933 60.8958C14.1171 60.8958 0.485107 47.2639 0.485107 30.4479ZM46.6443 46.159C50.6695 42.1334 53.1518 36.5844 53.1518 30.4479C53.1518 18.1768 43.2042 8.22917 30.933 8.22917C18.6619 8.22917 8.71427 18.1768 8.71427 30.4479C8.71427 42.7191 18.6619 52.6667 30.933 52.6667C37.0695 52.6667 42.6185 50.1844 46.6441 46.1592C46.6441 46.1592 46.6442 46.1591 46.6442 46.1591C46.6442 46.1591 46.6443 46.159 46.6443 46.159Z"
  />
</svg>
