<svg
  viewBox="0 0 133 96"
  xmlns="http://www.w3.org/2000/svg"
>
  <path
    d="M3.14166 36.0577C4.90719 34.2919 7.30145 33.3 9.79791 33.3C12.2944 33.3 14.6886 34.2919 16.4542 36.0577L49.7449 69.3632L116.307 2.76167C117.182 1.88655 118.219 1.19224 119.362 0.718397C120.504 0.24455 121.728 0.000437923 122.965 5.88667e-07C124.202 -0.000436746 125.426 0.242809 126.569 0.715848C127.712 1.18889 128.75 1.88246 129.625 2.75696C130.499 3.63146 131.193 4.66976 131.667 5.81259C132.141 6.95541 132.385 8.18038 132.385 9.41754C132.386 10.6547 132.142 11.8799 131.67 13.023C131.197 14.1662 130.504 15.205 129.629 16.0801L49.7449 96L3.14166 49.3761C1.37665 47.6098 0.385132 45.2145 0.385132 42.7169C0.385132 40.2193 1.37665 37.824 3.14166 36.0577Z"
  />
</svg>
