<svg viewBox="0 0 60 60" xmlns="http://www.w3.org/2000/svg">
  <path
    d="M59.5531 8.26767L42.6342 55.9557C42.2295 57.14 41.4659 58.1671 40.4508 58.8924C39.4356 59.6178 38.22 60.005 36.9747 59.9996C35.7438 60.0137 34.5388 59.644 33.5254 58.9413C32.5119 58.2386 31.7398 57.2375 31.3152 56.0755L25.0004 39.5405L37.0045 27.4687C37.5654 26.9046 37.8805 26.1396 37.8805 25.3419C37.8805 24.5442 37.5654 23.7792 37.0045 23.2151C36.4436 22.6511 35.6829 22.3342 34.8896 22.3342C34.0964 22.3342 33.3357 22.6511 32.7748 23.2151L25.3579 30.6739L20.6516 35.3169L4.23905 28.9365C3.01342 28.5652 1.9393 27.8068 1.1758 26.7736C0.412288 25.7404 0 24.4874 0 23.2001C0 21.9129 0.412288 20.6599 1.1758 19.6267C1.9393 18.5935 3.01342 17.8351 4.23905 17.4638L51.7787 0.449462C52.8659 0.000288428 54.0609 -0.115452 55.2133 0.116805C56.3657 0.349063 57.424 0.91894 58.2551 1.75471C59.0862 2.59049 59.6529 3.65481 59.8839 4.81373C60.1148 5.97265 59.9997 7.17438 59.5531 8.26767Z"
  />
</svg>
