<svg
  viewBox="0 0 17 17"
  xmlns="http://www.w3.org/2000/svg"
>
  <path
    d="M10.2 2.7964H9.35C9.35 3.17245 9.5971 3.50381 9.95758 3.61108L10.2 2.7964ZM11.3307 3.26516L10.9257 4.01249C11.2565 4.19172 11.6657 4.13222 11.9317 3.8662L11.3307 3.26516ZM13.7348 5.66931L13.1338 5.06828C12.8678 5.33429 12.8083 5.74353 12.9875 6.07428L13.7348 5.66931ZM14.2036 6.8L13.3889 7.04251C13.4962 7.40291 13.8275 7.65 14.2036 7.65V6.8ZM14.2036 10.2V9.35C13.8275 9.35 13.4962 9.5971 13.3889 9.95758L14.2036 10.2ZM13.7348 11.3307L12.9875 10.9257C12.8083 11.2565 12.8678 11.6657 13.1338 11.9317L13.7348 11.3307ZM11.3307 13.7348L11.9317 13.1338C11.6657 12.8678 11.2565 12.8083 10.9257 12.9875L11.3307 13.7348ZM10.2 14.2036L9.95758 13.3889C9.5971 13.4962 9.35 13.8275 9.35 14.2036H10.2ZM6.8 14.2036H7.65C7.65 13.8275 7.40291 13.4962 7.04251 13.3889L6.8 14.2036ZM5.66933 13.7348L6.0743 12.9875C5.74353 12.8082 5.3343 12.8677 5.06829 13.1338L5.66933 13.7348ZM3.26517 11.3307L3.86622 11.9317C4.13222 11.6657 4.19174 11.2565 4.01251 10.9256L3.26517 11.3307ZM2.79641 10.2L3.6111 9.9575C3.50383 9.5971 3.17246 9.35 2.79641 9.35V10.2ZM2.79641 6.8V7.65C3.17246 7.65 3.50383 7.40291 3.6111 7.04242L2.79641 6.8ZM3.26517 5.66935L4.01251 6.07431C4.19174 5.74355 4.13223 5.33432 3.86622 5.06831L3.26517 5.66935ZM5.66933 3.26518L5.0683 3.86622C5.3343 4.13223 5.74353 4.19174 6.0743 4.01251L5.66933 3.26518ZM6.8 2.7964L7.04251 3.61108C7.40291 3.50381 7.65 3.17245 7.65 2.7964H6.8ZM7.65 0C6.71113 0 5.95002 0.761115 5.95002 1.7H7.65V0ZM9.35 0H7.65V1.7H9.35V0ZM11.05 1.7C11.05 0.761115 10.2889 0 9.35 0V1.7H11.05ZM11.05 2.7964V1.7H9.35V2.7964H11.05ZM11.7356 2.51783C11.328 2.29698 10.8952 2.11645 10.4425 1.98172L9.95758 3.61108C10.2962 3.71187 10.6202 3.84699 10.9257 4.01249L11.7356 2.51783ZM11.5052 1.88853L10.7296 2.66412L11.9317 3.8662L12.7073 3.09061L11.5052 1.88853ZM13.9094 1.88853C13.2455 1.22464 12.1691 1.22464 11.5052 1.88853L12.7073 3.09061L13.9094 1.88853ZM15.1115 3.09062L13.9094 1.88853L12.7073 3.09061L13.9094 4.2927L15.1115 3.09062ZM15.1115 5.49477C15.7753 4.83088 15.7753 3.7545 15.1115 3.09062L13.9094 4.2927L15.1115 5.49477ZM14.3358 6.27036L15.1115 5.49477L13.9094 4.2927L13.1338 5.06828L14.3358 6.27036ZM15.0183 6.55754C14.8836 6.10479 14.703 5.67192 14.4821 5.26435L12.9875 6.07428C13.153 6.37972 13.2881 6.70378 13.3889 7.04251L15.0183 6.55754ZM14.2036 7.65H15.3V5.95H14.2036V7.65ZM15.3 7.65H17C17 6.71112 16.2389 5.95 15.3 5.95V7.65ZM15.3 7.65V9.35H17V7.65H15.3ZM15.3 9.35V11.05C16.2389 11.05 17 10.2889 17 9.35H15.3ZM15.3 9.35H14.2036V11.05H15.3V9.35ZM14.4821 11.7356C14.703 11.328 14.8836 10.8952 15.0183 10.4424L13.3889 9.95758C13.2881 10.2962 13.153 10.6202 12.9875 10.9257L14.4821 11.7356ZM15.1115 11.5053L14.3358 10.7296L13.1338 11.9317L13.9094 12.7073L15.1115 11.5053ZM15.1115 13.9094C15.7753 13.2455 15.7753 12.1691 15.1115 11.5053L13.9094 12.7073L15.1115 13.9094ZM13.9094 15.1115L15.1115 13.9094L13.9094 12.7073L12.7073 13.9094L13.9094 15.1115ZM11.5052 15.1115C12.1691 15.7753 13.2455 15.7753 13.9094 15.1115L12.7073 13.9094L11.5052 15.1115ZM10.7296 14.3358L11.5052 15.1115L12.7073 13.9094L11.9317 13.1338L10.7296 14.3358ZM10.4425 15.0183C10.8952 14.8836 11.328 14.703 11.7356 14.4821L10.9257 12.9875C10.6202 13.153 10.2962 13.2881 9.95758 13.3889L10.4425 15.0183ZM11.05 15.3V14.2036H9.35V15.3H11.05ZM9.35 17C10.2889 17 11.05 16.2389 11.05 15.3H9.35V17ZM7.65 17H9.35V15.3H7.65V17ZM5.95002 15.3C5.95002 16.2389 6.71113 17 7.65 17V15.3H5.95002ZM5.95002 14.2036V15.3H7.65V14.2036H5.95002ZM5.26436 14.4821C5.67194 14.703 6.10481 14.8836 6.55755 15.0183L7.04251 13.3889C6.70379 13.2881 6.37973 13.153 6.0743 12.9875L5.26436 14.4821ZM5.4948 15.1115L6.27036 14.3358L5.06829 13.1338L4.29272 13.9093L5.4948 15.1115ZM3.09063 15.1115C3.75453 15.7753 4.83091 15.7754 5.4948 15.1115L4.29272 13.9093L3.09063 15.1115ZM1.88856 13.9093L3.09063 15.1115L4.29272 13.9093L3.09063 12.7072L1.88856 13.9093ZM1.88856 11.5052C1.22466 12.1691 1.22466 13.2455 1.88856 13.9093L3.09063 12.7072L1.88856 11.5052ZM2.66413 10.7296L1.88856 11.5052L3.09063 12.7072L3.86622 11.9317L2.66413 10.7296ZM1.98172 10.4424C2.11647 10.8952 2.29699 11.328 2.51784 11.7356L4.01251 10.9256C3.84701 10.6202 3.71189 10.2962 3.6111 9.9575L1.98172 10.4424ZM2.79641 9.35H1.7V11.05H2.79641V9.35ZM1.7 9.35H0C0 10.2889 0.761115 11.05 1.7 11.05V9.35ZM1.7 9.35V7.65H0V9.35H1.7ZM1.7 7.65V5.95C0.761115 5.95 0 6.71112 0 7.65H1.7ZM1.7 7.65H2.79641V5.95H1.7V7.65ZM2.51784 5.26439C2.297 5.67195 2.11647 6.10481 1.98172 6.55754L3.6111 7.04242C3.71189 6.70379 3.84701 6.37974 4.01251 6.07431L2.51784 5.26439ZM1.88856 5.49482L2.66414 6.27039L3.86622 5.06831L3.09064 4.29273L1.88856 5.49482ZM1.88856 3.09065C1.22466 3.75454 1.22467 4.83092 1.88856 5.49482L3.09064 4.29273L1.88856 3.09065ZM3.09064 1.88857L1.88856 3.09065L3.09064 4.29273L4.29272 3.09065L3.09064 1.88857ZM5.4948 1.88857C4.83092 1.22468 3.75454 1.22468 3.09064 1.88857L4.29272 3.09065L5.4948 1.88857ZM6.27037 2.66414L5.4948 1.88857L4.29272 3.09065L5.0683 3.86622L6.27037 2.66414ZM6.55755 1.98172C6.10481 2.11646 5.67194 2.29699 5.26436 2.51785L6.0743 4.01251C6.37973 3.847 6.70379 3.71188 7.04251 3.61108L6.55755 1.98172ZM5.95002 1.7V2.7964H7.65V1.7H5.95002Z"
  />
  <path
    fill-rule="evenodd"
    clip-rule="evenodd"
    d="M8.5 6.8C7.56112 6.8 6.8 7.56112 6.8 8.5C6.8 9.43888 7.56112 10.2 8.5 10.2C9.43888 10.2 10.2 9.43888 10.2 8.5C10.2 7.56112 9.43888 6.8 8.5 6.8ZM5.1 8.5C5.1 6.62223 6.62223 5.1 8.5 5.1C10.3778 5.1 11.9 6.62223 11.9 8.5C11.9 10.3778 10.3778 11.9 8.5 11.9C6.62223 11.9 5.1 10.3778 5.1 8.5Z"
  />
</svg>
