<svg
  viewBox="0 0 59 62"
  xmlns="http://www.w3.org/2000/svg"
>
  <path
    d="M29.5014 42.2727C31.724 42.2727 33.8968 41.6116 35.7448 40.3729C37.5929 39.1343 39.0333 37.3737 39.8839 35.3139C40.7344 33.2541 40.957 30.9875 40.5234 28.8008C40.0897 26.6141 39.0194 24.6055 37.4478 23.029C35.8761 21.4525 33.8737 20.3788 31.6938 19.9439C29.5139 19.5089 27.2543 19.7322 25.2008 20.5854C23.1474 21.4386 21.3923 22.8834 20.1574 24.7372C18.9226 26.591 18.2635 28.7705 18.2635 31C18.2635 33.9897 19.4475 36.857 21.555 38.971C23.6625 41.0851 26.5209 42.2727 29.5014 42.2727ZM29.5014 25.3636C30.6127 25.3636 31.6991 25.6942 32.6231 26.3135C33.5472 26.9329 34.2673 27.8131 34.6926 28.8431C35.1179 29.873 35.2292 31.0063 35.0124 32.0996C34.7956 33.1929 34.2604 34.1973 33.4746 34.9855C32.6888 35.7738 31.6876 36.3106 30.5976 36.5281C29.5076 36.7455 28.3779 36.6339 27.3511 36.2073C26.3244 35.7807 25.4468 35.0583 24.8294 34.1314C24.212 33.2045 23.8825 32.1148 23.8825 31C23.8825 29.5051 24.4745 28.0715 25.5282 27.0145C26.582 25.9575 28.0112 25.3636 29.5014 25.3636ZM5.62088 33.4715L2.81141 35.1033C2.17218 35.4731 1.61183 35.9657 1.16238 36.5528C0.712928 37.1399 0.383171 37.8101 0.19194 38.525C0.000708125 39.24 -0.0482518 39.9857 0.0478557 40.7197C0.143963 41.4536 0.383255 42.1614 0.752068 42.8025L4.93537 50.0678C5.30387 50.71 5.79498 51.273 6.38061 51.7246C6.96624 52.1763 7.6349 52.5076 8.34833 52.6997C9.06175 52.8919 9.80594 52.941 10.5383 52.8443C11.2707 52.7477 11.9769 52.5071 12.6165 52.1364L15.454 50.4905C15.8871 50.2454 16.3769 50.1191 16.8742 50.1246C17.3714 50.13 17.8584 50.2669 18.286 50.5215C18.7083 50.7668 19.059 51.1189 19.303 51.5427C19.5471 51.9666 19.6759 52.4473 19.6767 52.9367V56.3636C19.6767 57.8585 20.2687 59.2921 21.3224 60.3491C22.3762 61.4062 23.8054 62 25.2956 62H33.724C35.2143 62 36.6435 61.4062 37.6972 60.3491C38.751 59.2921 39.343 57.8585 39.343 56.3636V52.9311C39.3505 52.4394 39.485 51.958 39.7333 51.534C39.9817 51.11 40.3355 50.7578 40.7601 50.5119C41.1847 50.266 41.6656 50.1348 42.1558 50.1311C42.6461 50.1273 43.1289 50.2512 43.5572 50.4905L46.392 52.1307C47.6825 52.8781 49.2162 53.0807 50.6556 52.6938C52.095 52.3069 53.3223 51.3623 54.0674 50.0678L58.2479 42.8025C58.6167 42.1614 58.856 41.4536 58.9521 40.7197C59.0483 39.9857 58.9993 39.24 58.8081 38.525C58.6168 37.8101 58.2871 37.1399 57.8376 36.5528C57.3882 35.9657 56.8278 35.4731 56.1886 35.1033L53.3791 33.4715C52.9434 33.217 52.5834 32.8502 52.3364 32.4092C52.0894 31.9683 51.9645 31.4691 51.9744 30.9634C51.9754 30.4696 52.1057 29.9848 52.3522 29.5575C52.5987 29.1302 52.9529 28.7753 53.3791 28.5285L56.1886 26.8967C56.8278 26.5269 57.3882 26.0343 57.8376 25.4472C58.2871 24.8601 58.6168 24.1899 58.8081 23.475C58.9993 22.76 59.0483 22.0143 58.9521 21.2803C58.856 20.5464 58.6167 19.8386 58.2479 19.1975L54.0618 11.9322C53.6933 11.2907 53.2025 10.7284 52.6173 10.2773C52.0321 9.82613 51.364 9.49507 50.6513 9.30297C49.9385 9.11088 49.195 9.06153 48.4632 9.15773C47.7314 9.25393 47.0257 9.4938 46.3863 9.86364L43.5488 11.5066C43.1204 11.747 42.6371 11.8715 42.1463 11.8681C41.6555 11.8646 41.1741 11.7332 40.7491 11.4869C40.3242 11.2405 39.9704 10.8875 39.7224 10.4627C39.4744 10.0378 39.3408 9.55557 39.3346 9.06327V5.63636C39.3346 4.14151 38.7426 2.70788 37.6888 1.65085C36.6351 0.59383 35.2059 0 33.7156 0H25.2872C23.797 0 22.3678 0.59383 21.314 1.65085C20.2602 2.70788 19.6682 4.14151 19.6682 5.63636V9.28309C19.6682 9.70603 19.557 10.1215 19.3459 10.4876C19.1348 10.8537 18.8312 11.1576 18.4658 11.3685L18.0331 11.6194C17.6675 11.8279 17.2541 11.9375 16.8335 11.9375C16.4129 11.9375 15.9995 11.8279 15.6338 11.6194L12.6165 9.86364C11.9773 9.49312 11.2717 9.25257 10.5398 9.15573C9.80798 9.05888 9.06427 9.10764 8.35121 9.29921C7.63815 9.49079 6.96971 9.82143 6.38409 10.2722C5.79847 10.723 5.30714 11.2852 4.93818 11.9265L0.757687 19.2003C0.0132592 20.4942 -0.188585 22.0317 0.19651 23.4749C0.581604 24.918 1.52213 26.1488 2.81141 26.8967L5.62088 28.5256C6.05624 28.7813 6.41585 29.1487 6.66273 29.59C6.90962 30.0314 7.03488 30.5307 7.02562 31.0366C7.02634 31.5307 6.89677 32.0162 6.65007 32.4438C6.40336 32.8714 6.0483 33.226 5.62088 33.4715ZM8.43036 23.6445L5.62088 22.0156L9.807 14.7504L12.8244 16.4976C14.0425 17.1998 15.4229 17.5694 16.8279 17.5694C18.2328 17.5694 19.6132 17.1998 20.8314 16.4976L21.264 16.2496C22.484 15.5434 23.4977 14.5283 24.2037 13.3057C24.9098 12.0831 25.2834 10.696 25.2872 9.28309V5.63636H33.7156V9.06327C33.7215 10.5452 34.1145 11.9996 34.8554 13.2816C35.5964 14.5637 36.6595 15.6284 37.9386 16.3698C39.2178 17.1112 40.6684 17.5032 42.1457 17.5069C43.623 17.5105 45.0755 17.1256 46.3582 16.3905L49.1874 14.7504L53.3819 22.0156L50.5725 23.6445C49.2932 24.396 48.2322 25.4701 47.4949 26.7602C46.7577 28.0504 46.3698 29.5115 46.3698 30.9986C46.3698 32.4856 46.7577 33.9468 47.4949 35.2369C48.2322 36.5271 49.2932 37.6012 50.5725 38.3526L53.3819 39.9844L49.2014 47.2496L46.3582 45.6095C45.0755 44.8744 43.623 44.4895 42.1457 44.4931C40.6684 44.4968 39.2178 44.8888 37.9386 45.6302C36.6595 46.3716 35.5964 47.4363 34.8554 48.7183C34.1145 50.0004 33.7215 51.4548 33.7156 52.9367V56.3636H25.2872V52.9367C25.283 51.4542 24.8911 49.9987 24.1505 48.7157C23.4099 47.4327 22.3467 46.3671 21.0669 45.6254C19.7872 44.8837 18.3358 44.4919 16.8579 44.4891C15.3799 44.4863 13.9271 44.8726 12.6446 45.6095L9.81543 47.2496L5.62088 39.9844L8.43036 38.3526C9.70962 37.6012 10.7706 36.5271 11.5079 35.2369C12.2451 33.9468 12.6331 32.4856 12.6331 30.9986C12.6331 29.5115 12.2451 28.0504 11.5079 26.7602C10.7706 25.4701 9.70962 24.396 8.43036 23.6445Z"
  />
</svg>
