<svg
  width="22"
  height="18"
  viewBox="0 0 22 18"
  xmlns="http://www.w3.org/2000/svg"
>
  <path
    fill-rule="evenodd"
    clip-rule="evenodd"
    d="M4.58216 6.42286e-07H17.4178C17.9909 -1.41635e-05 18.4928 -2.72962e-05 18.905 0.0312001C19.325 0.0630137 19.7693 0.133096 20.1806 0.343107C20.8234 0.670295 21.3443 1.20295 21.6643 1.86026C21.8698 2.28107 21.9384 2.73569 21.9695 3.16533C22 3.58692 22 4.10023 22 4.68637V13.3136C22 13.8998 22 14.4131 21.9695 14.8347C21.9384 15.2646 21.8697 15.7196 21.6639 16.1406C21.3374 16.8083 20.8348 17.3224 20.1819 17.6562C19.7702 17.8668 19.3254 17.937 18.905 17.9688C18.4928 18 17.9909 18 17.4178 18H4.58218C4.00908 18 3.5072 18 3.09499 17.9688C2.67461 17.937 2.22976 17.8668 1.81807 17.6562C1.16519 17.3224 0.662572 16.8083 0.336132 16.1406C0.130283 15.7196 0.0616468 15.2646 0.0305074 14.8347C-2.61821e-05 14.4131 -1.33421e-05 13.8998 1.13468e-06 13.3137L8.82913e-07 4.67811C-1.73704e-05 4.04391 -3.22246e-05 3.52913 0.030742 3.11997C0.0636007 2.6831 0.136572 2.26805 0.335598 1.86048C0.655557 1.20315 1.1764 0.670469 1.81912 0.343234C2.23052 0.133124 2.67497 0.0630201 3.09499 0.0312001C3.5072 -2.72962e-05 4.00907 -1.41635e-05 4.58216 6.42286e-07ZM11 15.75H17.38C18.0011 15.75 18.4212 15.7493 18.7425 15.7249C19.0646 15.7005 19.1698 15.6582 19.1981 15.6438C19.4252 15.5276 19.5826 15.3667 19.6961 15.1344C19.7103 15.1054 19.7516 14.9979 19.7755 14.6685C19.7993 14.3399 19.8 13.9103 19.8 13.275V4.725C19.8 4.08974 19.7993 3.6601 19.7755 3.33154C19.7516 3.00211 19.7103 2.89456 19.6961 2.86562L19.6951 2.86352C19.5884 2.64415 19.4146 2.46639 19.2001 2.35727L19.1981 2.35623C19.1698 2.34176 19.0646 2.29946 18.7425 2.27505C18.4212 2.25072 18.0011 2.25 17.38 2.25H11V15.75ZM8.8 2.25V15.75H4.62C3.99886 15.75 3.57876 15.7493 3.25751 15.7249C2.93539 15.7005 2.83024 15.6582 2.80194 15.6438C2.57482 15.5276 2.41743 15.3667 2.30387 15.1344C2.28972 15.1054 2.24836 14.9979 2.2245 14.6685C2.2007 14.3399 2.2 13.9103 2.2 13.275V4.725C2.2 4.03078 2.20079 3.60459 2.22426 3.29253C2.24637 2.99855 2.2833 2.90769 2.30387 2.86562L2.30489 2.86352C2.41159 2.64415 2.58539 2.46639 2.79989 2.35727L2.80194 2.35623C2.83024 2.34176 2.93539 2.29946 3.25751 2.27505C3.57876 2.25072 3.99886 2.25 4.62 2.25H8.8ZM3.3 4.5C3.3 3.87868 3.79249 3.375 4.4 3.375H6.6C7.20751 3.375 7.7 3.87868 7.7 4.5C7.7 5.12132 7.20751 5.625 6.6 5.625H4.4C3.79249 5.625 3.3 5.12132 3.3 4.5ZM3.3 7.875C3.3 7.25368 3.79249 6.75 4.4 6.75H6.6C7.20751 6.75 7.7 7.25368 7.7 7.875C7.7 8.49632 7.20751 9 6.6 9H4.4C3.79249 9 3.3 8.49632 3.3 7.875ZM3.3 11.25C3.3 10.6287 3.79249 10.125 4.4 10.125H6.6C7.20751 10.125 7.7 10.6287 7.7 11.25C7.7 11.8713 7.20751 12.375 6.6 12.375H4.4C3.79249 12.375 3.3 11.8713 3.3 11.25Z"
  />
</svg>
