<svg
  viewBox="0 0 182 173"
  xmlns="http://www.w3.org/2000/svg"
>
  <path
    fill-rule="evenodd"
    clip-rule="evenodd"
    d="M80.0381 6.90805C84.1793 -2.3027 97.2777 -2.30267 101.419 6.90805L121.645 51.8979L170.755 57.1993C180.81 58.2847 184.858 70.7215 177.362 77.4991L140.753 110.606L150.878 158.872C152.951 168.754 142.354 176.44 133.581 171.419L90.7289 146.889L47.8761 171.419C39.1029 176.44 28.5057 168.754 30.5787 158.872L40.7042 110.606L4.09439 77.4991C-3.40069 70.7214 0.647119 58.2847 10.7014 57.1993L59.8118 51.8979L80.0381 6.90805ZM90.7289 21.5335L73.2354 60.4436C71.5316 64.2337 67.942 66.8373 63.8048 67.2839L21.331 71.8687L52.9935 100.501C56.0776 103.29 57.4487 107.503 56.5957 111.57L47.8385 153.313L84.8999 132.099C88.5102 130.033 92.9467 130.033 96.5571 132.099L133.619 153.313L124.862 111.57C124.009 107.503 125.379 103.291 128.463 100.501L160.126 71.8687L117.652 67.2839C113.515 66.8373 109.926 64.2337 108.221 60.4436L90.7289 21.5335Z"
  />
</svg>
