<svg viewBox="0 0 20 19" xmlns="http://www.w3.org/2000/svg">
  <path
    fill-rule="evenodd"
    clip-rule="evenodd"
    d="M13.4162 5.69977L11.1813 0.758688C10.7237 -0.252894 9.27633 -0.252898 8.81874 0.758688L6.58379 5.69977L1.15723 6.282C0.0462546 6.40121 -0.401017 7.76709 0.427169 8.51146L4.47245 12.1475L3.35361 17.4484C3.12455 18.5337 4.29551 19.3778 5.26493 18.8264L10 16.1323L14.7351 18.8264C15.7045 19.3778 16.8754 18.5337 16.6464 17.4484L15.5276 12.1475L19.5728 8.51146C20.4011 7.7671 19.9538 6.40121 18.8427 6.282L13.4162 5.69977ZM5.92471 15.9198L10.0001 13.6012L14.0753 15.9198L13.1129 11.3598L16.5716 8.25095L11.9303 7.75297L10 3.48536L8.06967 7.75297L3.42837 8.25095L6.88717 11.3598L5.92471 15.9198Z"
  />
</svg>
