<svg
  viewBox="0 0 296 73"
  xmlns="http://www.w3.org/2000/svg"
>
  <path
    d="M275.623 73C270.106 73 265.287 71.7027 261.165 69.1079C257.106 66.4499 254.316 62.8743 252.794 58.381L262.116 53.9194C263.448 56.8305 265.287 59.1088 267.633 60.7542C270.043 62.3997 272.706 63.2224 275.623 63.2224C277.906 63.2224 279.714 62.7161 281.045 61.7035C282.377 60.6909 283.043 59.3619 283.043 57.7165C283.043 56.7039 282.758 55.8812 282.187 55.2484C281.68 54.5522 280.95 53.9827 279.999 53.5397C279.111 53.0334 278.128 52.622 277.05 52.3056L268.584 49.9324C264.209 48.6667 260.879 46.7365 258.596 44.1417C256.377 41.547 255.267 38.4777 255.267 34.9337C255.267 31.7694 256.06 29.0165 257.645 26.6749C259.294 24.2701 261.545 22.4031 264.399 21.0741C267.316 19.7451 270.645 19.0806 274.387 19.0806C279.27 19.0806 283.582 20.2514 287.324 22.593C291.065 24.9345 293.729 28.2254 295.314 32.4655L285.802 36.9272C284.914 34.5856 283.424 32.7187 281.331 31.3264C279.238 29.9341 276.892 29.238 274.292 29.238C272.199 29.238 270.55 29.7126 269.345 30.6619C268.14 31.6112 267.538 32.8453 267.538 34.3641C267.538 35.3134 267.792 36.1361 268.299 36.8323C268.806 37.5284 269.504 38.098 270.392 38.541C271.343 38.984 272.421 39.3953 273.626 39.775L281.902 42.2432C286.15 43.5089 289.416 45.4075 291.699 47.9389C294.046 50.4703 295.219 53.5713 295.219 57.2419C295.219 60.3429 294.394 63.0958 292.746 65.5007C291.097 67.8422 288.814 69.6775 285.897 71.0065C282.98 72.3355 279.555 73 275.623 73Z"
  />
  <path
    d="M223.603 73C219.862 73 216.406 72.2722 213.235 70.8166C210.127 69.2978 207.654 67.1461 205.815 64.3615L207.052 61.8934V71.8609H195.352V0H207.813V30.472L205.91 27.909C207.686 25.1244 210.096 22.9727 213.14 21.4538C216.184 19.8717 219.703 19.0806 223.698 19.0806C228.581 19.0806 232.989 20.283 236.92 22.6879C240.852 25.0928 243.96 28.3203 246.243 32.3706C248.589 36.4209 249.762 40.9775 249.762 46.0403C249.762 51.0399 248.621 55.5964 246.338 59.71C244.055 63.8236 240.947 67.0828 237.016 69.4876C233.084 71.8292 228.613 73 223.603 73ZM222.176 61.6086C225.03 61.6086 227.567 60.9441 229.786 59.6151C232.006 58.2861 233.718 56.4508 234.923 54.1092C236.191 51.7677 236.825 49.078 236.825 46.0403C236.825 43.0026 236.191 40.3446 234.923 38.0663C233.718 35.7248 232.006 33.8895 229.786 32.5605C227.567 31.1682 225.03 30.472 222.176 30.472C219.449 30.472 216.976 31.1365 214.757 32.4655C212.601 33.7945 210.888 35.6615 209.62 38.0663C208.415 40.4079 207.813 43.0659 207.813 46.0403C207.813 49.078 208.415 51.7677 209.62 54.1092C210.888 56.4508 212.601 58.2861 214.757 59.6151C216.976 60.9441 219.449 61.6086 222.176 61.6086Z"
  />
  <path
    d="M159.197 73C155.583 73 152.444 72.3988 149.78 71.1964C147.117 69.9939 145.056 68.2852 143.597 66.0702C142.139 63.7919 141.409 61.1656 141.409 58.1912C141.409 55.3433 142.044 52.8119 143.312 50.5969C144.58 48.3186 146.546 46.42 149.21 44.9012C151.873 43.3823 155.234 42.3065 159.293 41.6736L176.225 38.9207V48.4135L161.671 50.8817C159.197 51.3247 157.358 52.1157 156.154 53.2549C154.949 54.394 154.346 55.8812 154.346 57.7165C154.346 59.4885 155.012 60.9124 156.344 61.9883C157.739 63.0009 159.451 63.5072 161.48 63.5072C164.08 63.5072 166.363 62.9692 168.329 61.8934C170.359 60.7542 171.912 59.2037 172.99 57.2419C174.132 55.28 174.703 53.1283 174.703 50.7867V37.4968C174.703 35.2818 173.815 33.4465 172.039 31.9909C170.327 30.472 168.044 29.7126 165.19 29.7126C162.527 29.7126 160.149 30.4404 158.056 31.896C156.027 33.2883 154.536 35.1552 153.585 37.4968L143.407 32.5605C144.422 29.8392 146.007 27.4976 148.163 25.5358C150.383 23.5106 152.983 21.9285 155.963 20.7893C158.944 19.6502 162.178 19.0806 165.666 19.0806C169.915 19.0806 173.656 19.8717 176.89 21.4538C180.125 22.9727 182.629 25.1244 184.405 27.909C186.244 30.6303 187.164 33.8262 187.164 37.4968V71.8609H175.368V63.0325L178.032 62.8427C176.7 65.0577 175.115 66.9246 173.276 68.4434C171.437 69.899 169.344 71.0382 166.998 71.8609C164.651 72.6203 162.051 73 159.197 73Z"
  />
  <path
    d="M107.348 73C103.733 73 100.594 72.3988 97.9307 71.1964C95.2673 69.9939 93.2063 68.2852 91.7477 66.0702C90.2891 63.7919 89.5599 61.1656 89.5599 58.1912C89.5599 55.3433 90.194 52.8119 91.4623 50.5969C92.7306 48.3186 94.6965 46.42 97.36 44.9012C100.023 43.3823 103.384 42.3065 107.443 41.6736L124.375 38.9207V48.4135L109.821 50.8817C107.348 51.3247 105.509 52.1157 104.304 53.2549C103.099 54.394 102.497 55.8812 102.497 57.7165C102.497 59.4885 103.162 60.9124 104.494 61.9883C105.889 63.0009 107.602 63.5072 109.631 63.5072C112.231 63.5072 114.514 62.9692 116.48 61.8934C118.509 60.7542 120.063 59.2037 121.141 57.2419C122.282 55.28 122.853 53.1283 122.853 50.7867V37.4968C122.853 35.2818 121.965 33.4465 120.19 31.9909C118.477 30.472 116.194 29.7126 113.341 29.7126C110.677 29.7126 108.299 30.4404 106.206 31.896C104.177 33.2883 102.687 35.1552 101.736 37.4968L91.5575 32.5605C92.5721 29.8392 94.1575 27.4976 96.3136 25.5358C98.5331 23.5106 101.133 21.9285 104.114 20.7893C107.094 19.6502 110.328 19.0806 113.816 19.0806C118.065 19.0806 121.807 19.8717 125.041 21.4538C128.275 22.9727 130.78 25.1244 132.556 27.909C134.395 30.6303 135.314 33.8262 135.314 37.4968V71.8609H123.519V63.0325L126.182 62.8427C124.851 65.0577 123.265 66.9246 121.426 68.4434C119.587 69.899 117.494 71.0382 115.148 71.8609C112.802 72.6203 110.202 73 107.348 73Z"
  />
  <path
    d="M55.4983 73C51.8836 73 48.7446 72.3988 46.0811 71.1964C43.4177 69.9939 41.3567 68.2852 39.8981 66.0702C38.4396 63.7919 37.7103 61.1656 37.7103 58.1912C37.7103 55.3433 38.3444 52.8119 39.6128 50.5969C40.8811 48.3186 42.8469 46.42 45.5104 44.9012C48.1738 43.3823 51.5348 42.3065 55.5934 41.6736L72.5253 38.9207V48.4135L57.9715 50.8817C55.4983 51.3247 53.6593 52.1157 52.4544 53.2549C51.2495 54.394 50.647 55.8812 50.647 57.7165C50.647 59.4885 51.3129 60.9124 52.6446 61.9883C54.0398 63.0009 55.752 63.5072 57.7813 63.5072C60.3813 63.5072 62.6642 62.9692 64.6301 61.8934C66.6594 60.7542 68.2131 59.2037 69.2912 57.2419C70.4326 55.28 71.0034 53.1283 71.0034 50.7867V37.4968C71.0034 35.2818 70.1156 33.4465 68.3399 31.9909C66.6277 30.472 64.3448 29.7126 61.4911 29.7126C58.8276 29.7126 56.4495 30.4404 54.3568 31.896C52.3275 33.2883 50.8373 35.1552 49.886 37.4968L39.7079 32.5605C40.7225 29.8392 42.3079 27.4976 44.464 25.5358C46.6836 23.5106 49.2836 21.9285 52.2641 20.7893C55.2447 19.6502 58.4788 19.0806 61.9667 19.0806C66.2155 19.0806 69.957 19.8717 73.1912 21.4538C76.4254 22.9727 78.9303 25.1244 80.7059 27.909C82.545 30.6303 83.4645 33.8262 83.4645 37.4968V71.8609H71.6692V63.0325L74.3327 62.8427C73.001 65.0577 71.4156 66.9246 69.5765 68.4434C67.7375 69.899 65.6448 71.0382 63.2984 71.8609C60.952 72.6203 58.352 73 55.4983 73Z"
  />
  <path
    d="M27.6143 72.4304C21.7801 72.4304 17.2459 70.8483 14.0117 67.684C10.8409 64.4564 9.25554 59.9315 9.25554 54.1092V31.3264H0.313965V20.2198H1.2652C3.80181 20.2198 5.76769 19.5553 7.16283 18.2263C8.55797 16.8973 9.25554 14.9671 9.25554 12.4356V8.44864H21.7167V20.2198H33.607V31.3264H21.7167V53.4447C21.7167 55.1534 22.002 56.609 22.5728 57.8114C23.2069 59.0139 24.1582 59.9315 25.4265 60.5644C26.7582 61.1972 28.4387 61.5137 30.468 61.5137C30.9119 61.5137 31.4192 61.482 31.99 61.4187C32.6241 61.3554 33.2266 61.2922 33.7973 61.2289V71.8609C32.9095 71.9874 31.8948 72.114 30.7534 72.2406C29.6119 72.3671 28.5655 72.4304 27.6143 72.4304Z"
  />
</svg>
