<svg
  viewBox="0 0 48 48"
  xmlns="http://www.w3.org/2000/svg"
>
  <path
    fill-rule="evenodd"
    clip-rule="evenodd"
    d="M1.84515 21.2158C1.26018 21.8006 0.79614 22.495 0.479545 23.2591C0.162951 24.0233 0 24.8424 0 25.6696C0 26.4967 0.162951 27.3158 0.479545 28.08C0.79614 28.8442 1.26018 29.5385 1.84515 30.1233L17.8767 46.1548C18.4615 46.7398 19.1558 47.2039 19.92 47.5205C20.6842 47.837 21.5033 48 22.3304 48C23.1576 48 23.9767 47.837 24.7409 47.5205C25.505 47.2039 26.1994 46.7398 26.7842 46.1548L46.156 26.783C46.7408 26.1981 47.2046 25.5037 47.521 24.7395C47.8374 23.9754 48.0002 23.1563 48 22.3293V3.77864C48 2.77648 47.6019 1.81537 46.8933 1.10674C46.1846 0.398106 45.2235 1.09456e-07 44.2214 1.09456e-07H25.6682C24.8411 -0.000154087 24.0221 0.162612 23.2579 0.479003C22.4938 0.795394 21.7994 1.25921 21.2145 1.84398L1.84515 21.2158ZM32.8552 10.0764C30.059 10.0764 27.8472 12.1723 27.8472 15.0843C27.8472 17.9989 30.059 20.1528 32.8552 20.1528C35.7093 20.1528 37.9236 17.9989 37.9236 15.0843C37.9236 12.1723 35.7068 10.0764 32.8552 10.0764Z"
  />
</svg>
