<svg
  viewBox="0 0 52 51"
  xmlns="http://www.w3.org/2000/svg"
>
  <path
    fill-rule="evenodd"
    clip-rule="evenodd"
    d="M19.6812 0.770087C20.4278 1.51531 20.658 2.63403 20.2664 3.61358C19.3 6.03101 18.7574 8.70563 18.7574 11.4722C18.7574 23.1152 28.1943 32.5535 39.8355 32.5535C42.6093 32.5535 45.2651 32.0044 47.6966 31.027C48.6757 30.6335 49.7951 30.8621 50.5415 31.6081C51.2879 32.3541 51.5173 33.4736 51.1245 34.4531C47.2372 44.1466 37.7529 51 26.6617 51C12.1103 51 0.313965 39.202 0.313965 24.6483C0.313965 13.5636 7.15616 4.08353 16.837 0.190322C17.8157 -0.203238 18.9346 0.0248598 19.6812 0.770087ZM13.7152 8.01024C8.76446 11.8695 5.58351 17.8892 5.58351 24.6483C5.58351 36.2913 15.0205 45.7297 26.6617 45.7297C33.4209 45.7297 39.4406 42.5471 43.2992 37.5942C42.1656 37.7453 41.0092 37.8239 39.8355 37.8239C25.284 37.8239 13.4878 26.0259 13.4878 11.4722C13.4878 10.3025 13.5655 9.14591 13.7152 8.01024Z"
  />
</svg>
