<svg
  viewBox="0 0 67 60"
  xmlns="http://www.w3.org/2000/svg"
>
  <path
    fill-rule="evenodd"
    clip-rule="evenodd"
    d="M16.3434 13.0294C20.8443 8.52856 26.9488 6 33.314 6C36.4657 6 39.5866 6.62078 42.4984 7.82689C45.4102 9.033 48.0559 10.8008 50.2845 13.0294C52.5131 15.258 54.281 17.9038 55.4871 20.8156C56.6932 23.7274 57.314 26.8483 57.314 30C57.314 33.1517 56.6932 36.2726 55.4871 39.1844C54.281 42.0962 52.5131 44.742 50.2845 46.9706C48.0559 49.1992 45.4102 50.967 42.4984 52.1731C39.5866 53.3792 36.4657 54 33.314 54C26.9488 54 20.8443 51.4714 16.3434 46.9706C11.8425 42.4697 9.31397 36.3652 9.31397 30C9.31397 23.6348 11.8425 17.5303 16.3434 13.0294ZM33.314 12C28.5401 12 23.9617 13.8964 20.586 17.2721C17.2104 20.6477 15.314 25.2261 15.314 30C15.314 34.7739 17.2104 39.3523 20.586 42.7279C23.9617 46.1036 28.5401 48 33.314 48C35.6778 48 38.0184 47.5344 40.2023 46.6298C42.3861 45.7253 44.3704 44.3994 46.0419 42.7279C47.7133 41.0565 49.0392 39.0722 49.9438 36.8883C50.8484 34.7044 51.314 32.3638 51.314 30C51.314 27.6362 50.8484 25.2956 49.9438 23.1117C49.0392 20.9278 47.7133 18.9435 46.0419 17.2721C44.3704 15.6006 42.3861 14.2748 40.2023 13.3702C38.0184 12.4656 35.6778 12 33.314 12Z"
  />
  <path
    fill-rule="evenodd"
    clip-rule="evenodd"
    d="M32.7372 16.1806C33.4715 16.9121 33.7762 17.9707 33.5431 18.9806C33.1999 20.4679 33.2406 22.0182 33.6614 23.4854C34.0822 24.9527 34.8693 26.2889 35.9487 27.3683C37.0281 28.4476 38.3642 29.2347 39.8315 29.6555C41.2988 30.0764 42.849 30.1171 44.3364 29.7738C45.344 29.5413 46.4004 29.8441 47.1318 30.5752C47.8632 31.3063 48.1665 32.3625 47.9344 33.3703C46.4012 40.0282 40.4439 45 33.314 45L33.3014 45C29.626 44.9845 26.0841 43.6207 23.3474 41.1672C20.6108 38.7138 18.8697 35.3413 18.4545 31.6894C18.0393 28.0375 18.9788 24.3602 21.0948 21.355C23.2108 18.3497 26.3561 16.2256 29.9342 15.3854C30.9432 15.1485 32.003 15.4492 32.7372 16.1806ZM27.4718 23.1835C26.921 23.66 26.4262 24.2049 26.0007 24.8092C24.7307 26.6128 24.1669 28.8198 24.4161 31.0115C24.6653 33.2032 25.7102 35.2273 27.3526 36.6998C28.9935 38.1709 31.1168 38.9892 33.3204 39C36.0532 38.9981 38.504 37.7763 40.1549 35.8483C39.489 35.7515 38.8283 35.6097 38.1774 35.423C35.7319 34.7217 33.505 33.4098 31.7061 31.6109C29.9071 29.812 28.5953 27.585 27.8939 25.1395C27.7093 24.4956 27.5685 23.8421 27.4718 23.1835Z"
  />
  <path
    fill-rule="evenodd"
    clip-rule="evenodd"
    d="M33.314 0C34.9708 0 36.314 1.34315 36.314 3V9C36.314 10.6569 34.9708 12 33.314 12C31.6571 12 30.314 10.6569 30.314 9V3C30.314 1.34315 31.6571 0 33.314 0ZM33.314 48C34.9708 48 36.314 49.3431 36.314 51V57C36.314 58.6569 34.9708 60 33.314 60C31.6571 60 30.314 58.6569 30.314 57V51C30.314 49.3431 31.6571 48 33.314 48Z"
  />
  <path
    fill-rule="evenodd"
    clip-rule="evenodd"
    d="M9.97964 6.66568C11.1512 5.49411 13.0507 5.49411 14.2223 6.66568L20.5853 13.0287C21.7569 14.2003 21.7569 16.0997 20.5853 17.2713C19.4137 18.4429 17.5142 18.4429 16.3426 17.2713L9.97964 10.9083C8.80807 9.73675 8.80807 7.83725 9.97964 6.66568ZM56.6453 6.66868C57.8169 7.84025 57.8169 9.73974 56.6453 10.9113L50.2853 17.2713C49.1137 18.4429 47.2142 18.4429 46.0426 17.2713C44.8711 16.0997 44.8711 14.2003 46.0426 13.0287L52.4026 6.66868C53.5742 5.49711 55.4737 5.49711 56.6453 6.66868ZM0.313965 30C0.313965 28.3431 1.65711 27 3.31396 27H12.314C13.9708 27 15.314 28.3431 15.314 30C15.314 31.6569 13.9708 33 12.314 33H3.31396C1.65711 33 0.313965 31.6569 0.313965 30ZM51.314 30C51.314 28.3431 52.6571 27 54.314 27H63.314C64.9708 27 66.314 28.3431 66.314 30C66.314 31.6569 64.9708 33 63.314 33H54.314C52.6571 33 51.314 31.6569 51.314 30ZM20.5853 42.7287C21.7569 43.9003 21.7569 45.7998 20.5853 46.9713L14.2218 53.3348C13.05 54.506 11.1507 54.5057 9.97939 53.3341C8.80806 52.1625 8.80817 50.2631 9.97964 49.0917L16.3426 42.7287C17.5142 41.5571 19.4137 41.5571 20.5853 42.7287ZM46.0426 42.7287C47.2142 41.5571 49.1137 41.5571 50.2853 42.7287L56.6483 49.0917C57.8199 50.2632 57.8199 52.1627 56.6483 53.3343C55.4767 54.5059 53.5772 54.5059 52.4056 53.3343L46.0426 46.9713C44.8711 45.7998 44.8711 43.9003 46.0426 42.7287Z"
  />
</svg>
