<svg
  viewBox="0 0 76 75"
  xmlns="http://www.w3.org/2000/svg"
>
  <g clip-path="url(#clip0_127_672)">
    <path
      fill-rule="evenodd"
      clip-rule="evenodd"
      d="M37.9851 0C40.0562 0 41.7351 1.67893 41.7351 3.75V11.25C41.7351 13.3211 40.0562 15 37.9851 15C35.914 15 34.2351 13.3211 34.2351 11.25V3.75C34.2351 1.67893 35.914 0 37.9851 0ZM64.501 10.9833C65.9655 12.4478 65.9655 14.8221 64.501 16.2866L59.1978 21.5899C57.7333 23.0544 55.3589 23.0544 53.8945 21.5899C52.43 20.1254 52.43 17.7511 53.8945 16.2866L59.1977 10.9833C60.6622 9.51885 63.0365 9.51884 64.501 10.9833ZM11.4685 10.9836C12.933 9.51918 15.3074 9.51918 16.7718 10.9836L22.0751 16.2869C23.5396 17.7514 23.5396 20.1258 22.0751 21.5902C20.6107 23.0547 18.2363 23.0547 16.7718 21.5902L11.4685 16.2869C10.0041 14.8225 10.0041 12.4481 11.4685 10.9836ZM22.9851 37.5C22.9851 29.2156 29.7007 22.5 37.9851 22.5C46.2696 22.5 52.9851 29.2156 52.9851 37.5C52.9851 45.7844 46.2696 52.5 37.9851 52.5C29.7007 52.5 22.9851 45.7844 22.9851 37.5ZM0.485107 37.5C0.485107 35.4289 2.16404 33.75 4.23511 33.75H11.7351C13.8062 33.75 15.4851 35.4289 15.4851 37.5C15.4851 39.5711 13.8062 41.25 11.7351 41.25H4.23511C2.16404 41.25 0.485107 39.5711 0.485107 37.5ZM60.4851 37.5C60.4851 35.4289 62.164 33.75 64.2351 33.75H71.7351C73.8062 33.75 75.4851 35.4289 75.4851 37.5C75.4851 39.5711 73.8062 41.25 71.7351 41.25H64.2351C62.164 41.25 60.4851 39.5711 60.4851 37.5ZM22.0751 53.4097C23.5396 54.8742 23.5396 57.2486 22.0751 58.713L16.7718 64.0163C15.3074 65.4807 12.933 65.4807 11.4685 64.0163C10.0041 62.5518 10.0041 60.1774 11.4685 58.713L16.7718 53.4097C18.2363 51.9453 20.6107 51.9453 22.0751 53.4097ZM53.8945 53.4101C55.3589 51.9456 57.7333 51.9456 59.1978 53.4101L64.501 58.7133C65.9655 60.1778 65.9655 62.5522 64.501 64.0166C63.0365 65.4811 60.6622 65.4811 59.1977 64.0166L53.8945 58.7134C52.43 57.2489 52.43 54.8746 53.8945 53.4101ZM37.9851 60C40.0562 60 41.7351 61.6789 41.7351 63.75V71.25C41.7351 73.3211 40.0562 75 37.9851 75C35.914 75 34.2351 73.3211 34.2351 71.25V63.75C34.2351 61.6789 35.914 60 37.9851 60Z"
    />
  </g>
  <defs>
    <clipPath id="clip0_127_672">
      <rect
        width="75"
        height="75"
        fill="white"
        transform="translate(0.485107)"
      />
    </clipPath>
  </defs>
</svg>
