<svg
  width="11"
  height="55"
  viewBox="0 0 11 55"
  xmlns="http://www.w3.org/2000/svg"
>
  <path
    d="M0 5.5C0 4.41221 0.32257 3.34884 0.926917 2.44437C1.53126 1.5399 2.39025 0.834947 3.39524 0.418665C4.40023 0.00238305 5.5061 -0.106535 6.57299 0.105683C7.63989 0.317902 8.61989 0.841726 9.38908 1.61091C10.1583 2.3801 10.6821 3.36011 10.8943 4.42701C11.1065 5.4939 10.9976 6.59977 10.5813 7.60476C10.1651 8.60976 9.4601 9.46874 8.55563 10.0731C7.65116 10.6774 6.5878 11 5.5 11C4.04131 11 2.64236 10.4205 1.61091 9.38909C0.579464 8.35764 0 6.95869 0 5.5ZM5.5 33C6.5878 33 7.65116 32.6774 8.55563 32.0731C9.4601 31.4687 10.1651 30.6098 10.5813 29.6048C10.9976 28.5998 11.1065 27.4939 10.8943 26.427C10.6821 25.3601 10.1583 24.3801 9.38908 23.6109C8.61989 22.8417 7.63989 22.3179 6.57299 22.1057C5.5061 21.8935 4.40023 22.0024 3.39524 22.4187C2.39025 22.8349 1.53126 23.5399 0.926917 24.4444C0.32257 25.3488 0 26.4122 0 27.5C0 28.9587 0.579464 30.3576 1.61091 31.3891C2.64236 32.4205 4.04131 33 5.5 33ZM5.5 55C6.5878 55 7.65116 54.6774 8.55563 54.0731C9.4601 53.4687 10.1651 52.6098 10.5813 51.6048C10.9976 50.5998 11.1065 49.4939 10.8943 48.427C10.6821 47.3601 10.1583 46.3801 9.38908 45.6109C8.61989 44.8417 7.63989 44.3179 6.57299 44.1057C5.5061 43.8935 4.40023 44.0024 3.39524 44.4187C2.39025 44.8349 1.53126 45.5399 0.926917 46.4444C0.32257 47.3488 0 48.4122 0 49.5C0 50.9587 0.579464 52.3576 1.61091 53.3891C2.64236 54.4205 4.04131 55 5.5 55Z"
  />
</svg>
