<svg viewBox="0 0 91 102" xmlns="http://www.w3.org/2000/svg">
  <path
    fill-rule="evenodd"
    clip-rule="evenodd"
    d="M27.1368 7.46878C31.9592 2.6866 38.4997 0 45.3196 0C52.1394 0 58.68 2.6866 63.5023 7.46878C68.3247 12.251 71.0339 18.737 71.0339 25.5C71.0339 32.263 68.3247 38.749 63.5023 43.5312C58.68 48.3134 52.1394 51 45.3196 51C38.4997 51 31.9592 48.3134 27.1368 43.5312C22.3145 38.749 19.6053 32.263 19.6053 25.5C19.6053 18.737 22.3145 12.251 27.1368 7.46878Z"
  />
  <path
    d="M34.301 57.375C16.3678 57.375 0.31958 70.1594 0.31958 87.6562V95.625C0.31958 99.1458 3.19775 102 6.74815 102H83.891C87.4414 102 90.3196 99.1458 90.3196 95.625V87.6562C90.3196 70.1594 74.2713 57.375 56.3381 57.375H34.301Z"
  />
</svg>
