<svg
  viewBox="0 0 125 99"
  xmlns="http://www.w3.org/2000/svg"
>
  <path
    fill-rule="evenodd"
    clip-rule="evenodd"
    d="M43.8526 12.375C40.564 12.375 37.41 13.6788 35.0845 15.9996C32.7591 18.3203 31.4526 21.4679 31.4526 24.75C31.4526 28.0321 32.7591 31.1797 35.0845 33.5004C37.41 35.8212 40.564 37.125 43.8526 37.125C47.1413 37.125 50.2953 35.8212 52.6208 33.5004C54.9462 31.1797 56.2526 28.0321 56.2526 24.75C56.2526 21.4679 54.9462 18.3203 52.6208 15.9996C50.2953 13.6788 47.1413 12.375 43.8526 12.375ZM26.3164 7.24911C30.9673 2.60758 37.2753 0 43.8526 0C50.43 0 56.738 2.60758 61.3889 7.24911C66.0398 11.8906 68.6526 18.1859 68.6526 24.75C68.6526 31.3141 66.0398 37.6094 61.3889 42.2509C56.738 46.8924 50.43 49.5 43.8526 49.5C37.2753 49.5 30.9673 46.8924 26.3164 42.2509C21.6655 37.6094 19.0526 31.3141 19.0526 24.75C19.0526 18.1859 21.6655 11.8906 26.3164 7.24911ZM74.8526 43.3125C74.8526 39.8952 77.6285 37.125 81.0526 37.125H118.253C121.677 37.125 124.453 39.8952 124.453 43.3125C124.453 46.7298 121.677 49.5 118.253 49.5H81.0526C77.6285 49.5 74.8526 46.7298 74.8526 43.3125ZM0.452637 85.0781C0.452637 68.0959 15.9303 55.6875 33.2258 55.6875H54.4794C71.775 55.6875 87.2526 68.0959 87.2526 85.0781V92.8125C87.2526 96.2298 84.4768 99 81.0526 99C77.6285 99 74.8526 96.2298 74.8526 92.8125V85.0781C74.8526 76.4317 66.5347 68.0625 54.4794 68.0625H33.2258C21.1706 68.0625 12.8526 76.4317 12.8526 85.0781V92.8125C12.8526 96.2298 10.0768 99 6.65264 99C3.22847 99 0.452637 96.2298 0.452637 92.8125V85.0781Z"
  />
</svg>
