<svg
  viewBox="0 0 93 113"
  xmlns="http://www.w3.org/2000/svg"
>
  <path
    fill-rule="evenodd"
    clip-rule="evenodd"
    d="M46.5 13.2941C35.4937 13.2941 26.5714 22.2221 26.5714 33.2353C26.5714 44.2483 35.4938 53.1765 46.5 53.1765C57.506 53.1765 66.4286 44.2482 66.4286 33.2353C66.4286 22.2221 57.506 13.2941 46.5 13.2941ZM13.2857 33.2353C13.2857 14.8799 28.1562 0 46.5 0C64.8434 0 79.7143 14.8799 79.7143 33.2353C79.7143 51.5904 64.8435 66.4706 46.5 66.4706C28.1562 66.4706 13.2857 51.5903 13.2857 33.2353ZM14.6319 82.0216C23.0787 76.3869 34.3652 73.1177 46.5 73.1177C58.6348 73.1177 69.9213 76.3869 78.368 82.0216C86.7684 87.6254 93 96.0969 93 106.353C93 110.024 90.0259 113 86.3571 113C82.6884 113 79.7143 110.024 79.7143 106.353C79.7143 101.925 77.0236 97.1023 70.9984 93.083C65.0197 89.0947 56.3776 86.4118 46.5 86.4118C36.6223 86.4118 27.9802 89.0947 22.0016 93.083C15.9764 97.1023 13.2857 101.925 13.2857 106.353C13.2857 110.024 10.3116 113 6.64286 113C2.97411 113 0 110.024 0 106.353C0 96.097 6.23161 87.6254 14.6319 82.0216Z"
  />
</svg>
