<svg
  viewBox="0 0 122 96"
  xmlns="http://www.w3.org/2000/svg"
>
  <path
    fill-rule="evenodd"
    clip-rule="evenodd"
    d="M42.8026 12C39.5935 12 36.5158 13.2643 34.2466 15.5147C31.9775 17.7652 30.7026 20.8174 30.7026 24C30.7026 27.1826 31.9775 30.2348 34.2466 32.4853C36.5158 34.7357 39.5935 36 42.8026 36C46.0118 36 49.0894 34.7357 51.3586 32.4853C53.6278 30.2348 54.9026 27.1826 54.9026 24C54.9026 20.8174 53.6278 17.7652 51.3586 15.5147C49.0894 13.2643 46.0118 12 42.8026 12ZM25.6907 7.02944C30.229 2.52856 36.3844 0 42.8026 0C49.2209 0 55.3762 2.52856 59.9146 7.02944C64.453 11.5303 67.0026 17.6348 67.0026 24C67.0026 30.3652 64.453 36.4697 59.9146 40.9706C55.3762 45.4714 49.2209 48 42.8026 48C36.3844 48 30.229 45.4714 25.6907 40.9706C21.1523 36.4697 18.6026 30.3652 18.6026 24C18.6026 17.6348 21.1523 11.5303 25.6907 7.02944ZM97.2526 18C100.594 18 103.303 20.6863 103.303 24V36H115.403C118.744 36 121.453 38.6863 121.453 42C121.453 45.3137 118.744 48 115.403 48H103.303V60C103.303 63.3137 100.594 66 97.2526 66C93.9113 66 91.2026 63.3137 91.2026 60V48H79.1026C75.7613 48 73.0526 45.3137 73.0526 42C73.0526 38.6863 75.7613 36 79.1026 36H91.2026V24C91.2026 20.6863 93.9113 18 97.2526 18ZM0.452637 82.5C0.452637 66.0324 15.5558 54 32.4329 54H53.1723C70.0495 54 85.1526 66.0324 85.1526 82.5V90C85.1526 93.3137 82.444 96 79.1026 96C75.7613 96 73.0526 93.3137 73.0526 90V82.5C73.0526 74.1156 64.9359 66 53.1723 66H32.4329C20.6694 66 12.5526 74.1156 12.5526 82.5V90C12.5526 93.3137 9.84396 96 6.50264 96C3.16131 96 0.452637 93.3137 0.452637 90V82.5Z"
  />
</svg>
