<svg
  viewBox="0 0 91 102"
  xmlns="http://www.w3.org/2000/svg"
>
  <path
    fill-rule="evenodd"
    clip-rule="evenodd"
    d="M45.4526 12.75C42.0427 12.75 38.7724 14.0933 36.3613 16.4844C33.9501 18.8755 32.5955 22.1185 32.5955 25.5C32.5955 28.8815 33.9501 32.1245 36.3613 34.5156C38.7724 36.9067 42.0427 38.25 45.4526 38.25C48.8626 38.25 52.1328 36.9067 54.544 34.5156C56.9552 32.1245 58.3098 28.8815 58.3098 25.5C58.3098 22.1185 56.9552 18.8755 54.544 16.4844C52.1328 14.0933 48.8626 12.75 45.4526 12.75ZM27.2699 7.46878C32.0923 2.6866 38.6328 0 45.4526 0C52.2725 0 58.813 2.6866 63.6354 7.46878C68.4577 12.251 71.1669 18.737 71.1669 25.5C71.1669 32.263 68.4577 38.749 63.6354 43.5312C58.813 48.3134 52.2725 51 45.4526 51C38.6328 51 32.0923 48.3134 27.2699 43.5312C22.4475 38.749 19.7383 32.263 19.7383 25.5C19.7383 18.737 22.4475 12.251 27.2699 7.46878ZM0.452637 87.6562C0.452637 70.1594 16.5009 57.375 34.4341 57.375H56.4712C74.4044 57.375 90.4526 70.1594 90.4526 87.6562V95.625C90.4526 99.1458 87.5745 102 84.0241 102C80.4737 102 77.5955 99.1458 77.5955 95.625V87.6562C77.5955 78.7478 68.9709 70.125 56.4712 70.125H34.4341C21.9344 70.125 13.3098 78.7478 13.3098 87.6562V95.625C13.3098 99.1458 10.4316 102 6.88121 102C3.33081 102 0.452637 99.1458 0.452637 95.625V87.6562Z"
  />
</svg>
