<svg viewBox="0 0 91 102" xmlns="http://www.w3.org/2000/svg">
  <path
    fill-rule="evenodd"
    clip-rule="evenodd"
    d="M27.7479 7.46878C32.5703 2.6866 39.1108 0 45.9307 0C52.7505 0 59.291 2.6866 64.1134 7.46878C68.9358 12.251 71.645 18.737 71.645 25.5C71.645 32.263 68.9358 38.749 64.1134 43.5312C59.291 48.3134 52.7505 51 45.9307 51C39.1108 51 32.5703 48.3134 27.7479 43.5312C22.9255 38.749 20.2164 32.263 20.2164 25.5C20.2164 18.737 22.9255 12.251 27.7479 7.46878ZM0.930664 87.6562C0.930664 70.1594 16.9789 57.375 34.9121 57.375H56.9492C74.8824 57.375 90.9307 70.1594 90.9307 87.6562V95.625C90.9307 99.1458 88.0525 102 84.5021 102C80.9517 102 78.0735 99.1458 78.0735 95.625V87.6562C78.0735 78.7478 69.4489 70.125 56.9492 70.125H34.9121C22.4124 70.125 13.7878 78.7478 13.7878 87.6562V95.625C13.7878 99.1458 10.9096 102 7.35923 102C3.80883 102 0.930664 99.1458 0.930664 95.625V87.6562Z"
  />
</svg>
