<svg viewBox="0 0 91 102" xmlns="http://www.w3.org/2000/svg">
  <path
    fill-rule="evenodd"
    clip-rule="evenodd"
    d="M45.3196 12.75C41.9096 12.75 38.6394 14.0933 36.2282 16.4844C33.817 18.8755 32.4624 22.1185 32.4624 25.5C32.4624 28.8815 33.817 32.1245 36.2282 34.5156C38.6394 36.9067 41.9096 38.25 45.3196 38.25C48.7295 38.25 51.9998 36.9067 54.411 34.5156C56.8221 32.1245 58.1767 28.8815 58.1767 25.5C58.1767 22.1185 56.8221 18.8755 54.411 16.4844C51.9998 14.0933 48.7295 12.75 45.3196 12.75ZM27.1368 7.46878C31.9592 2.6866 38.4997 0 45.3196 0C52.1394 0 58.68 2.6866 63.5023 7.46878C68.3247 12.251 71.0339 18.737 71.0339 25.5C71.0339 32.263 68.3247 38.749 63.5023 43.5312C58.68 48.3134 52.1394 51 45.3196 51C38.4997 51 31.9592 48.3134 27.1368 43.5312C22.3145 38.749 19.6053 32.263 19.6053 25.5C19.6053 18.737 22.3145 12.251 27.1368 7.46878ZM0.31958 87.6562C0.31958 70.1594 16.3678 57.375 34.301 57.375H56.3381C74.2713 57.375 90.3196 70.1594 90.3196 87.6562V95.625C90.3196 99.1458 87.4414 102 83.891 102C80.3406 102 77.4624 93.0208 77.4624 89.5V87.6562C77.4624 78.7478 68.8378 70.125 56.3381 70.125H34.301C21.8014 70.125 13.1767 78.7478 13.1767 87.6562V89.5C13.1767 93.0208 10.2986 102 6.74815 102C3.19775 102 0.31958 99.1458 0.31958 95.625V87.6562Z"
  />
  <path
    d="M83.891 102C80.3406 102 77.4624 93.0208 77.4624 89.5H45H13.1767C13.1767 93.0208 10.2986 102 6.74815 102H83.891Z"
  />
</svg>
