<svg
  width="369"
  height="801"
  viewBox="0 0 369 801"
  xmlns="http://www.w3.org/2000/svg"
>
  <path
    d="M281.666 0.233333C283.366 0.1 285.366 0 287.399 0C328.632 0 362.032 33.4333 362.032 74.6333C362.032 76 361.999 77.3333 361.932 78.7V78.5C359.299 134.467 313.266 178.833 256.899 178.833C256.166 178.833 255.466 178.833 254.732 178.8H254.832C252.532 179.067 249.832 179.2 247.132 179.2C207.532 179.2 175.432 147.1 175.432 107.5C175.432 104.567 175.599 101.7 175.932 98.8667L175.899 99.2C177.999 44.0333 223.199 0.133333 278.699 0.133333C279.732 0.133333 280.766 0.133333 281.799 0.166667H281.632L281.666 0.233333ZM116.766 800.033C74.499 800.033 43.4657 773.933 73.0657 659.167L121.599 455.567C130.066 422.967 131.432 409.933 121.599 409.933C83.5657 419.7 50.199 435 20.4324 455.233L21.5324 454.533L0.432373 419.3C103.299 331.9 221.699 280.667 272.366 280.667C314.632 280.667 321.699 331.533 300.532 409.8L244.999 623.833C235.132 661.667 239.399 674.7 249.199 674.7C286.066 666.167 318.166 649.333 344.632 626.167L344.366 626.4L368.366 659.033C268.232 760.767 158.999 800.1 116.732 800.1L116.766 800.033Z"
  />
</svg>
