<svg
  width="85"
  height="63"
  viewBox="0 0 85 63"
  xmlns="http://www.w3.org/2000/svg"
>
  <path
    fill-rule="evenodd"
    clip-rule="evenodd"
    d="M0.985138 5.25C0.985138 2.35051 3.33564 0 6.23514 0H48.2351C51.1346 0 53.4851 2.35051 53.4851 5.25C53.4851 8.14949 51.1346 10.5 48.2351 10.5H6.23514C3.33564 10.5 0.985138 8.14949 0.985138 5.25ZM0.985138 31.5C0.985138 28.6005 3.33564 26.25 6.23514 26.25H79.7351C82.6346 26.25 84.9851 28.6005 84.9851 31.5C84.9851 34.3995 82.6346 36.75 79.7351 36.75H6.23514C3.33564 36.75 0.985138 34.3995 0.985138 31.5ZM0.985138 57.75C0.985138 54.8505 3.33564 52.5 6.23514 52.5H48.2351C51.1346 52.5 53.4851 54.8505 53.4851 57.75C53.4851 60.6495 51.1346 63 48.2351 63H6.23514C3.33564 63 0.985138 60.6495 0.985138 57.75Z"
  />
</svg>
