<svg
  width="98"
  height="87"
  viewBox="0 0 98 87"
  xmlns="http://www.w3.org/2000/svg"
>
  <path
    d="M34.9652 51.9836L29.5526 9.44807L24.14 51.9788H5.30264C2.62544 51.9788 0.452637 49.8667 0.452637 47.2617C0.467987 45.9944 0.987296 44.7849 1.89658 43.8988C2.80587 43.0126 4.03084 42.5221 5.30264 42.535H15.5652L19.9302 8.28814C20.5801 3.10713 25.4301 -0.565977 30.7409 0.0719836C35.1544 0.603617 38.627 3.98674 39.175 8.28814L43.5352 42.535H53.1091L58.6526 77.5552L64.1913 42.5398H92.6026C95.2798 42.5398 97.4526 44.6567 97.4526 47.2666C97.4526 49.8764 95.2798 51.9884 92.6026 51.9884H72.5139L68.2411 78.9906C67.9069 80.9948 66.9407 82.8408 65.4826 84.2608C64.0245 85.6808 62.1503 86.6009 60.1319 86.8878C54.8357 87.6852 49.8838 84.1474 49.0642 78.9906L44.7962 51.9884H34.9604L34.9652 51.9836Z"
  />
</svg>
