<svg
  width="64"
  height="98"
  viewBox="0 0 64 98"
  xmlns="http://www.w3.org/2000/svg"
>
  <path
    fill-rule="evenodd"
    clip-rule="evenodd"
    d="M6.40749 2.9794C7.14487 1.20223 8.87942 0.0424055 10.8023 0.0407561L58.345 1.76283e-06C59.6059 -0.0010833 60.8148 0.498781 61.7056 1.38961C62.5965 2.28045 63.0963 3.48929 63.0952 4.7502L63.0547 52.2931C63.053 54.216 61.8932 55.9506 60.1161 56.688C58.3389 57.4253 56.2943 57.0203 54.9358 55.6618L41.4689 42.1949C40.2308 43.1592 39.0373 44.2114 37.8967 45.352C25.6302 57.6185 23.466 76.1707 31.4365 90.6226C32.4587 92.4759 32.1304 94.784 30.6315 96.283C29.1325 97.7819 26.8244 98.1102 24.9711 97.0881C21.1482 94.9797 17.5591 92.3071 14.3271 89.075C-4.22344 70.5245 -4.19792 40.422 14.3844 21.8397C15.5192 20.7049 16.6979 19.6386 17.9152 18.6412L7.43366 8.15967C6.07512 6.80112 5.67011 4.75657 6.40749 2.9794ZM28.5134 15.7809C28.7877 16.0439 29.0346 16.3444 29.2463 16.6805C30.6441 18.9009 29.9754 21.837 27.7527 23.2387C25.396 24.7248 23.1629 26.4969 21.1022 28.5575C7.49088 42.1689 6.32513 63.5066 17.6168 78.4024C15.7996 64.2834 20.3189 49.4942 31.1789 38.6342C33.7441 36.069 36.5333 33.8544 39.4847 31.9928C41.4291 30.7665 43.9188 31.1207 45.4476 32.715L53.556 40.8234L53.5827 9.51261L22.272 9.53945L28.5134 15.7809Z"
  />
</svg>
