<svg
  width="89"
  height="78"
  viewBox="0 0 89 78"
  fill="none"
  xmlns="http://www.w3.org/2000/svg"
>
  <path
    fill-rule="evenodd"
    clip-rule="evenodd"
    d="M3.94563 3.80761C6.19606 1.36964 9.24831 0 12.4309 0H76.4309C79.6135 0 82.6657 1.36964 84.9162 3.80761C87.1666 6.24558 88.4309 9.55218 88.4309 13V17.3333C88.4309 20.7812 87.1666 24.0878 84.9162 26.5257C83.6386 27.9098 82.1025 28.9496 80.4309 29.5899V65C80.4309 68.4478 79.1666 71.7544 76.9162 74.1924C74.6658 76.6304 71.6135 78 68.4309 78H20.4309C17.2483 78 14.1961 76.6304 11.9456 74.1924C9.69519 71.7544 8.43091 68.4478 8.43091 65V29.5899C6.75929 28.9496 5.22325 27.9098 3.94563 26.5257C1.69519 24.0877 0.430908 20.7811 0.430908 17.3333V13C0.430908 9.55219 1.69519 6.24558 3.94563 3.80761ZM16.4309 30.3333V65C16.4309 66.1493 16.8523 67.2515 17.6025 68.0641C18.3526 68.8768 19.37 69.3333 20.4309 69.3333H68.4309C69.4918 69.3333 70.5092 68.8768 71.2593 68.0641C72.0095 67.2515 72.4309 66.1493 72.4309 65V30.3333H16.4309ZM12.4309 8.66667C11.37 8.66667 10.3526 9.12321 9.60248 9.93587C8.85233 10.7485 8.43091 11.8507 8.43091 13V17.3333C8.43091 18.4826 8.85233 19.5848 9.60248 20.3975C10.3526 21.2101 11.37 21.6667 12.4309 21.6667H76.4309C77.4918 21.6667 78.5092 21.2101 79.2593 20.3975C80.0095 19.5848 80.4309 18.4826 80.4309 17.3333V13C80.4309 11.8507 80.0095 10.7485 79.2593 9.93587C78.5092 9.12321 77.4918 8.66667 76.4309 8.66667H12.4309ZM32.4309 43.3333C32.4309 40.9401 34.2218 39 36.4309 39H52.4309C54.64 39 56.4309 40.9401 56.4309 43.3333C56.4309 45.7266 54.64 47.6667 52.4309 47.6667H36.4309C34.2218 47.6667 32.4309 45.7266 32.4309 43.3333Z"
  />
</svg>
