<svg
  width="77"
  height="59"
  viewBox="0 0 77 59"
  fill="none"
  xmlns="http://www.w3.org/2000/svg"
>
  <path
    fill-rule="evenodd"
    clip-rule="evenodd"
    d="M8.92959 8.42858L8.92958 50.5714H68.0407V18.9643H44.7366C42.1713 18.9643 39.7448 17.8004 38.1424 15.8004L32.2335 8.42869L32.2334 8.42857L8.92959 8.42858ZM0.485138 8.42857C0.485138 3.77362 4.26586 0 8.92958 0H32.2337C34.799 0 37.2255 1.16385 38.828 3.16395L44.7368 10.5356L68.0407 10.5357C72.7046 10.5357 76.4851 14.3094 76.4851 18.9643V50.5714C76.4851 55.2265 72.7045 59 68.0407 59H8.92958C4.26592 59 0.485138 55.2265 0.485138 50.5714V8.42857ZM44.7366 10.5358C44.7365 10.5357 44.7365 10.5357 44.7366 10.5358Z"
  />
</svg>
