<svg width="48" height="48" viewBox="0 0 48 48" fill="none" xmlns="http://www.w3.org/2000/svg">
<path d="M14 2.1947e-06C6.30593 2.1947e-06 1.60384e-06 6.30593 1.60384e-06 14C-5.34614e-07 14.0021 -5.34614e-07 14.0043 1.60384e-06 14.0064C0.00631919 17.1423 1.07266 20.1803 3.0111 22.6399C3.02689 22.6759 3.04335 22.7116 3.06047 22.747L21.4605 46.7473C21.7593 47.137 22.1438 47.4527 22.5841 47.6699C23.0245 47.8872 23.509 48.0001 24 48.0001C24.491 48.0001 24.9755 47.8872 25.4159 47.6699C25.8562 47.4527 26.2407 47.137 26.5395 46.7473L44.9395 22.747C44.9854 22.6773 45.0285 22.6059 45.0687 22.5328C46.9549 20.092 47.9938 17.0976 48 14.0064C48 14.0043 48 14.0021 48 14C48 6.30593 41.6941 2.1947e-06 34 2.1947e-06C33.9975 -7.31568e-07 33.995 -7.31568e-07 33.9925 2.1947e-06C30.164 0.00891691 26.5907 1.59038 24.0117 4.22891C21.4257 1.58314 17.84 0.000717113 14.0006 2.1947e-06C14.0004 2.17437e-06 14.0002 2.17437e-06 14 2.1947e-06ZM13.9994 6.4H14C17.1068 6.40083 19.8807 8.27235 21.0445 11.153C21.2835 11.7441 21.6936 12.2504 22.2222 12.6069C22.7509 12.9633 23.374 13.1538 24.0116 13.1538C24.6492 13.1538 25.2722 12.9633 25.8009 12.6069C26.3295 12.2504 26.7396 11.7441 26.9786 11.153C28.1397 8.27903 30.904 6.40908 34.0033 6.40016C38.2359 6.40192 41.5982 9.76421 41.5998 13.9969C41.5956 15.7401 40.9932 17.4273 39.892 18.7788C39.8711 18.8157 39.8509 18.853 39.8314 18.8908L24 39.5408L8.21922 18.9569C8.1841 18.8963 8.14699 18.8369 8.10797 18.7788C7.00683 17.4273 6.40442 15.7401 6.40016 13.9969C6.40184 9.76332 9.76545 6.40034 13.9994 6.4Z" fill="black"/>
</svg>
