<svg
  width="70"
  height="69"
  viewBox="0 0 70 69"
  xmlns="http://www.w3.org/2000/svg"
>
  <g clip-path="url(#clip0_127_601)">
    <path
      fill-rule="evenodd"
      clip-rule="evenodd"
      d="M32.1847 1.22039C33.8119 -0.406796 36.4501 -0.406796 38.0772 1.22039L68.0772 31.2204C69.7044 32.8476 69.7044 35.4858 68.0772 37.1129C66.5916 38.5986 64.2632 38.7278 62.631 37.5007V57.5C62.631 63.4832 57.7808 68.3333 51.7976 68.3333H18.4643C12.4812 68.3333 7.63096 63.4832 7.63096 57.5V37.5007C5.9987 38.7278 3.67032 38.5986 2.18468 37.1129C0.557498 35.4858 0.557498 32.8476 2.18468 31.2204L32.1847 1.22039ZM15.9643 29.2259V57.5C15.9643 58.8808 17.0835 60 18.4643 60H51.7976C53.1784 60 54.2976 58.8808 54.2976 57.5V29.2259L35.131 10.0592L15.9643 29.2259Z"
    />
  </g>
</svg>
