<svg
  width="64"
  height="63"
  viewBox="0 0 64 63"
  xmlns="http://www.w3.org/2000/svg"
>
  <path
    d="M11.2953 5.2C11.2953 2.32812 8.96714 0 6.09526 0C3.22338 0 0.895264 2.32812 0.895264 5.2V57.2C0.895264 60.0719 3.22338 62.4 6.09526 62.4C8.96714 62.4 11.2953 60.0719 11.2953 57.2V5.2Z"
  />
  <path
    d="M26.8954 5.2C26.8954 2.32812 24.5672 0 21.6954 0C18.8235 0 16.4954 2.32812 16.4954 5.2V57.2C16.4954 60.0719 18.8235 62.4 21.6954 62.4C24.5672 62.4 26.8954 60.0719 26.8954 57.2V5.2Z"
  />
  <path
    d="M43.6892 4.98953C42.707 2.29085 39.723 0.899395 37.0243 1.88164C34.3257 2.86388 32.9342 5.84786 33.9164 8.54654L51.7015 57.4106C52.6837 60.1092 55.6677 61.5007 58.3664 60.5185C61.0651 59.5362 62.4565 56.5522 61.4743 53.8536L43.6892 4.98953Z"
  />
</svg>
