<svg
  width="77"
  height="78"
  viewBox="0 0 77 78"
  xmlns="http://www.w3.org/2000/svg"
>
  <path
    d="M73.9514 41.0586C75.5474 38.9574 76.4309 36.383 76.4309 33.7044C76.4309 29.4547 74.0464 25.4322 70.2084 23.189C69.2204 22.6116 68.0954 22.3077 66.9499 22.3088H44.1689L44.7389 10.6764C44.8719 7.86537 43.8744 5.19628 41.9364 3.16133C40.9853 2.15832 39.8379 1.36029 38.565 0.816559C37.2921 0.272823 35.9208 -0.00506383 34.5359 6.98522e-05C29.5959 6.98522e-05 25.2259 3.31277 23.9149 8.05467L15.7544 37.4904H3.47091C1.78941 37.4904 0.430908 38.8439 0.430908 40.5191V74.9712C0.430908 76.6465 1.78941 78 3.47091 78H60.5944C61.4684 78 62.3234 77.8296 63.1119 77.4889C67.6339 75.5675 70.5504 71.1664 70.5504 66.2825C70.5504 65.0899 70.3794 63.9163 70.0374 62.7805C71.6334 60.6793 72.5169 58.1049 72.5169 55.4263C72.5169 54.2337 72.3459 53.0601 72.0039 51.9243C73.5999 49.8231 74.4834 47.2487 74.4834 44.5701C74.4644 43.3775 74.2934 42.1944 73.9514 41.0586ZM7.27091 71.1853V44.3051H14.9659V71.1853H7.27091ZM67.7289 37.7743L65.6484 39.5727L66.9689 41.9767C67.404 42.7687 67.6295 43.6579 67.6244 44.5606C67.6244 46.1223 66.9404 47.6083 65.7624 48.6305L63.6819 50.4289L65.0024 52.8329C65.4375 53.6249 65.663 54.5141 65.6579 55.4168C65.6579 56.9785 64.9739 58.4645 63.7959 59.4867L61.7154 61.2851L63.0359 63.6891C63.471 64.4811 63.6965 65.3703 63.6914 66.273C63.6914 68.3932 62.4374 70.3051 60.4994 71.1758H21.0459V44.0022L30.4984 9.88139C30.7422 9.00684 31.2654 8.23527 31.9888 7.68361C32.7122 7.13195 33.5964 6.83025 34.5074 6.82424C35.2294 6.82424 35.9419 7.03246 36.5119 7.45838C37.4524 8.15878 37.9559 9.21885 37.8989 10.3452L36.9869 29.1235H66.8549C68.5459 30.1551 69.5909 31.8967 69.5909 33.7044C69.5909 35.2661 68.9069 36.7427 67.7289 37.7743Z"
  />
</svg>
