<svg
  width="77"
  height="78"
  viewBox="0 0 77 78"
  xmlns="http://www.w3.org/2000/svg"
>
  <path
    d="M73.9514 41.0586C75.5474 38.9574 76.4309 36.383 76.4309 33.7044C76.4309 29.4547 74.0464 25.4322 70.2084 23.189C69.2204 22.6116 68.0954 22.3077 66.9499 22.3088H44.1689L44.7389 10.6764C44.8719 7.86537 43.8744 5.19628 41.9364 3.16133C40.9853 2.15832 39.8379 1.36029 38.565 0.816559C37.2921 0.272823 35.9208 -0.00506383 34.5359 6.98522e-05C29.5959 6.98522e-05 25.2259 3.31277 23.9149 8.05467L15.7544 37.4904H3.47091C1.78941 37.4904 0.430908 38.8439 0.430908 40.5191V74.9712C0.430908 76.6465 1.78941 78 3.47091 78H60.5944C61.4684 78 62.3234 77.8296 63.1119 77.4889C67.6339 75.5675 70.5504 71.1664 70.5504 66.2825C70.5504 65.0899 70.3794 63.9163 70.0374 62.7805C71.6334 60.6793 72.5169 58.1049 72.5169 55.4263C72.5169 54.2337 72.3459 53.0601 72.0039 51.9243C73.5999 49.8231 74.4834 47.2487 74.4834 44.5701C74.4644 43.3775 74.2934 42.1944 73.9514 41.0586ZM7.27091 71.1853V44.3051H14.9659V71.1853H7.27091Z"
  />
</svg>
