<svg width="47" height="53" viewBox="0 0 47 53" fill="none" xmlns="http://www.w3.org/2000/svg">
<path fill-rule="evenodd" clip-rule="evenodd" d="M8.225 22.3778V15.3111C8.225 11.2503 9.83433 7.35591 12.699 4.48453C15.5636 1.61313 19.4488 0 23.5 0C27.5512 0 31.4364 1.61313 34.3011 4.48453C37.1657 7.35591 38.775 11.2503 38.775 15.3111V22.3778H39.95C43.8437 22.3778 47 25.5415 47 29.4444V45.9333C47 49.8363 43.8437 53 39.95 53H7.05C3.1564 53 0 49.8363 0 45.9333V29.4444C0 25.5415 3.1564 22.3778 7.05 22.3778H8.225ZM17.6841 9.48142C19.2265 7.93528 21.3185 7.06667 23.5 7.06667C25.6815 7.06667 27.7735 7.93528 29.316 9.48142C30.8586 11.0275 31.725 13.1245 31.725 15.3111V22.3778H15.275V15.3111C15.275 13.1245 16.1416 11.0275 17.6841 9.48142Z" fill="black"/>
</svg>
