<svg
  width="76"
  height="63"
  viewBox="0 0 76 63"
  xmlns="http://www.w3.org/2000/svg"
>
  <path
    fill-rule="evenodd"
    clip-rule="evenodd"
    d="M8.02309 7.73857e-06C8.05422 1.15745e-05 8.08539 1.54104e-05 8.11659 1.54104e-05L45.7096 7.73857e-06C46.4492 -8.36254e-05 47.1697 -0.000172548 47.7798 0.0516305C48.4493 0.108469 49.2404 0.242577 50.036 0.664255C51.14 1.24956 52.0343 2.18259 52.5948 3.32714C52.9994 4.15312 53.1291 4.97424 53.1843 5.67133C53.2348 6.30978 53.2347 7.06332 53.2346 7.83765V10.1921C53.2346 10.2414 53.2348 10.2921 53.2349 10.3442C53.2364 10.9116 53.2383 11.6355 53.074 12.3485L53.0737 12.3497C52.9272 12.9842 52.6848 13.5769 52.3706 14.1104L52.3696 14.1121C51.9982 14.7418 51.5037 15.2539 51.1051 15.6667C51.0708 15.7023 51.0371 15.7371 51.0043 15.7713L36.172 31.1985C36.1578 31.2132 36.1434 31.2279 36.1289 31.2423C35.8828 31.4984 35.7574 31.6301 35.6692 31.7308C35.6675 31.7328 35.6658 31.7347 35.6642 31.7365C35.664 31.74 35.6638 31.7436 35.6637 31.7474C35.6573 31.8921 35.6566 32.0913 35.6566 32.4905V45.7406C35.6566 45.8155 35.6569 45.8924 35.6572 45.9713C35.6603 46.8122 35.6641 47.8704 35.3364 48.8589C35.0501 49.7227 34.5825 50.4967 33.982 51.1345C33.2768 51.8836 32.3671 52.3525 31.6367 52.729C31.5715 52.7626 31.5077 52.7955 31.4456 52.8278L29.0001 54.0995C27.9672 54.6367 27.0196 55.1295 26.2154 55.456C25.3889 55.7915 24.2996 56.1341 23.0809 55.947C21.4858 55.7019 20.06 54.7844 19.1366 53.4117C18.4301 52.361 18.2377 51.1929 18.1569 50.2744C18.0784 49.3822 18.0785 48.2828 18.0786 47.0848L18.0786 32.4679C18.0786 32.0762 18.0779 31.882 18.0717 31.741L18.0715 31.7374C18.1012 31.7715 18.1129 31.7868 18.1129 31.7868C18.1129 31.7868 18.0992 31.7688 18.0806 31.7378C18.0806 31.7378 18.0799 31.7352 18.0794 31.7333L18.0788 31.7305C18.0699 31.6912 18.0669 31.6654 18.0669 31.6654C18.0669 31.6654 18.0692 31.6864 18.0715 31.7374C18.0689 31.7344 18.0662 31.7313 18.0633 31.728C17.9701 31.6217 17.8358 31.481 17.5643 31.1987L2.73195 15.7716C2.69765 15.7359 2.66231 15.6993 2.62609 15.6619C2.23193 15.2541 1.73477 14.7398 1.36435 14.1111C1.04422 13.5677 0.806549 12.9737 0.662498 12.3497C0.49698 11.6326 0.498834 10.9036 0.50032 10.3249C0.500457 10.2718 0.50059 10.2199 0.50059 10.1694V7.92289C0.50059 7.89048 0.500586 7.85809 0.500583 7.82575C0.500494 7.05665 0.500409 6.30757 0.550226 5.67316C0.604916 4.97671 0.733955 4.15449 1.1392 3.32724C1.70096 2.18061 2.59701 1.24857 3.69944 0.664287C4.49438 0.243011 5.28433 0.108599 5.95414 0.051657C6.56382 -0.000173595 7.28376 -8.43229e-05 8.02309 7.73857e-06ZM6.39347 6.12911C6.39235 6.14175 6.39123 6.15513 6.39012 6.16926C6.36221 6.52473 6.35993 7.01936 6.35993 7.92289V10.1694C6.35993 10.5686 6.36063 10.7679 6.36699 10.9127C6.36715 10.9163 6.36731 10.9198 6.36746 10.9231C6.36984 10.9258 6.37232 10.9287 6.37492 10.9316C6.46891 11.0387 6.60395 11.1802 6.87513 11.4623L21.707 26.8889C21.7413 26.9245 21.7767 26.9612 21.8128 26.9985C22.207 27.4063 22.7023 27.9185 23.0729 28.5474L23.0736 28.5486C23.3899 29.0854 23.6314 29.6801 23.7769 30.3108M6.39347 6.12911C6.40544 6.12797 6.41809 6.12682 6.43146 6.12568C6.77275 6.09667 7.24783 6.0943 8.11659 6.0943H45.6163C46.485 6.0943 46.961 6.09666 47.3031 6.12571C47.3165 6.12684 47.3292 6.12799 47.3411 6.12913C47.3423 6.14231 47.3435 6.15628 47.3447 6.17109C47.3727 6.5258 47.3753 7.0205 47.3753 7.92289V10.1921C47.3753 10.5836 47.3746 10.7781 47.3684 10.9194L47.3682 10.9224C47.365 10.9261 47.3616 10.9301 47.3579 10.9342C47.2652 11.0402 47.1305 11.1817 46.8608 11.4623L32.0616 26.855C32.0471 26.8695 32.0328 26.8841 32.0185 26.8989C31.9848 26.9341 31.9499 26.9701 31.9142 27.0071C31.5256 27.409 31.0318 27.9199 30.6626 28.5459C30.3398 29.0927 30.1025 29.6892 29.959 30.311C29.7938 31.0277 29.7955 31.7562 29.797 32.335C29.7971 32.3881 29.7973 32.44 29.7973 32.4905V45.7406C29.7973 46.3244 29.796 46.625 29.7829 46.8427C29.7826 46.8489 29.7822 46.8548 29.7818 46.8605C29.7757 46.8642 29.7692 46.8682 29.7623 46.8724C29.5829 46.981 29.3257 47.1167 28.8255 47.3767L26.4816 48.5957C25.3079 49.206 24.6061 49.5673 24.085 49.7788C24.055 49.791 24.027 49.8021 24.0008 49.8122C23.9978 49.7834 23.9948 49.7524 23.9919 49.7192C23.9409 49.1393 23.9379 48.3249 23.9379 46.9595V32.4679C23.9379 32.4186 23.9381 32.3678 23.9382 32.3157C23.9397 31.7483 23.9415 31.0242 23.7769 30.3108"
  />
  <path
    fill-rule="evenodd"
    clip-rule="evenodd"
    d="M47.0096 45.8444C47.0096 43.9114 48.7653 42.3444 50.931 42.3444C53.0966 42.3444 67.1947 42.3444 67.1947 42.3444C69.3604 42.3444 71.116 43.9114 71.116 45.8444C71.116 47.7774 69.3604 49.3444 67.1947 49.3444H50.931C48.7653 49.3444 47.0096 47.7774 47.0096 45.8444Z"
  />
  <path
    fill-rule="evenodd"
    clip-rule="evenodd"
    d="M60.6402 59.5C60.6402 57.567 62.3994 56 64.5695 56H70.5707C72.7408 56 74.5 57.567 74.5 59.5C74.5 61.433 72.7408 63 70.5707 63H64.5695C62.3994 63 60.6402 61.433 60.6402 59.5Z"
  />
  <path
    fill-rule="evenodd"
    clip-rule="evenodd"
    d="M38.6171 59.5C38.6171 57.567 40.3763 56 42.5464 56H51.7147C53.8848 56 55.644 57.567 55.644 59.5C55.644 61.433 53.8848 63 51.7147 63H42.5464C40.3763 63 38.6171 61.433 38.6171 59.5Z"
  />
</svg>
