<svg width="74" height="73" viewBox="0 0 74 73" fill="none" xmlns="http://www.w3.org/2000/svg">
<path fill-rule="evenodd" clip-rule="evenodd" d="M38.7447 4.29412C38.7447 1.92254 40.6672 0 43.0388 0H68.8035C71.1751 0 73.0976 1.92254 73.0976 4.29412V30.0588C73.0976 32.4304 71.1751 34.3529 68.8035 34.3529C66.4319 34.3529 64.5094 32.4304 64.5094 30.0588V14.661L33.1928 45.9776C31.5159 47.6545 28.797 47.6545 27.12 45.9776C25.4431 44.3006 25.4431 41.5817 27.12 39.9048L58.4366 8.58824H43.0388C40.6672 8.58824 38.7447 6.66569 38.7447 4.29412ZM2.61303 15.3978C4.22364 13.7872 6.40809 12.8824 8.68583 12.8824H30.1564C32.528 12.8824 34.4505 14.8049 34.4505 17.1765C34.4505 19.548 32.528 21.4706 30.1564 21.4706H8.68583L8.68583 64.4118H51.627V42.9412C51.627 40.5696 53.5495 38.6471 55.9211 38.6471C58.2927 38.6471 60.2152 40.5696 60.2152 42.9412V64.4118C60.2152 66.6895 59.3104 68.8739 57.6998 70.4846C56.0892 72.0952 53.9047 73 51.627 73H8.68583C6.4081 73 4.22364 72.0952 2.61303 70.4846C1.00242 68.874 0.0975952 66.6895 0.0975952 64.4118V21.4706C0.0975952 19.1928 1.00243 17.0084 2.61303 15.3978Z" fill="black"/>
</svg>
