<svg
  width="64"
  height="64"
  viewBox="0 0 64 64"
  xmlns="http://www.w3.org/2000/svg"
>
  <path
    d="M62.9333 19.4192L44.4952 0.945635C43.8857 0.334939 42.819 -0.123084 41.9048 0.0295904C40.9905 0.182264 40.0762 0.640287 39.619 1.40366L26.2095 21.0986L12.0381 24.3048C10.9714 24.6101 10.0571 25.3735 9.6 26.5949C9.29524 27.6636 9.6 28.885 10.3619 29.801L19.9619 39.4195L0.914286 58.5037C-0.304762 59.7251 -0.304762 61.7099 0.914286 63.084C1.52381 63.6947 2.28571 64 3.2 64C4.11429 64 4.87619 63.6947 5.48571 63.084L24.6857 43.847L34.2857 53.4655C34.8952 54.0762 35.6571 54.3815 36.5714 54.3815C36.8762 54.3815 37.181 54.3815 37.4857 54.2289C38.5524 53.9235 39.4667 53.0075 39.7714 51.7861L42.9714 37.5874L62.6286 24.3048C63.3905 23.6941 63.8476 22.9307 64 22.0146C63.8476 20.9459 63.6952 20.0299 62.9333 19.4192ZM38.4 33.1599C37.7905 33.6179 37.3333 34.3812 37.0286 35.1446L34.7429 44.9158L19.0476 29.1903L28.8 27.0529C29.5619 26.9002 30.3238 26.4422 30.781 25.6788L42.6667 8.27399L55.6191 21.2513L38.4 33.1599Z"
  />
</svg>
