<svg width="60" height="59" viewBox="0 0 60 59" fill="none" xmlns="http://www.w3.org/2000/svg">
<g clip-path="url(#clip0_127_223)">
<path fill-rule="evenodd" clip-rule="evenodd" d="M29.9643 6.5C17.3998 6.5 7.21429 16.6855 7.21429 29.25C7.21429 41.8145 17.3998 52 29.9643 52C42.5288 52 52.7143 41.8145 52.7143 29.25C52.7143 16.6855 42.5288 6.5 29.9643 6.5ZM0.714294 29.25C0.714294 13.0957 13.81 0 29.9643 0C46.1187 0 59.2143 13.0957 59.2143 29.25C59.2143 45.4044 46.1187 58.5 29.9643 58.5C13.81 58.5 0.714294 45.4044 0.714294 29.25Z" fill="black"/>
<path fill-rule="evenodd" clip-rule="evenodd" d="M22.3109 11.827C24.9859 10.2463 28.0278 9.75 29.9643 9.75C32.0208 9.75 35.0576 10.4087 37.6712 12.0218C40.3919 13.7009 42.9643 16.6511 42.9643 21.125C42.9643 26.1175 38.9683 28.9728 36.3437 30.3434C35.2285 30.9257 34.1314 31.3654 33.2143 31.6848V35.75C33.2143 37.5449 31.7592 39 29.9643 39C28.1694 39 26.7143 37.5449 26.7143 35.75V29.25C26.7143 27.7162 27.7866 26.3915 29.2859 26.0716C29.2868 26.0714 29.2884 26.071 29.2905 26.0706C29.2985 26.0688 29.3151 26.0651 29.3398 26.0594C29.3891 26.0479 29.4702 26.0286 29.5786 26.0009C29.7959 25.9454 30.119 25.8573 30.5118 25.7336C31.3089 25.4827 32.337 25.1028 33.3349 24.5817C35.5853 23.4065 36.4643 22.1993 36.4643 21.125C36.4643 19.5322 35.6617 18.4199 34.2574 17.5532C32.7461 16.6204 30.9079 16.25 29.9643 16.25C28.9007 16.25 27.0676 16.5662 25.6176 17.423C24.3258 18.1864 23.4643 19.2578 23.4643 21.125C23.4643 22.9199 22.0092 24.375 20.2143 24.375C18.4194 24.375 16.9643 22.9199 16.9643 21.125C16.9643 16.4922 19.4778 13.5011 22.3109 11.827Z" fill="black"/>
<path d="M33.952 45.3489C33.952 47.5517 32.1662 49.3376 29.9633 49.3376C27.7605 49.3376 25.9749 47.5517 25.9749 45.3489C25.9749 43.146 27.7605 41.3602 29.9633 41.3602C32.1662 41.3602 33.952 43.146 33.952 45.3489Z" fill="black"/>
</g>
<defs>
<clipPath id="clip0_127_223">
<rect width="58.5" height="58.5" fill="white" transform="translate(0.714294)"/>
</clipPath>
</defs>
</svg>
