<svg
  width="79"
  height="78"
  viewBox="0 0 79 78"
  fill="none"
  xmlns="http://www.w3.org/2000/svg"
>
  <path
    fill-rule="evenodd"
    clip-rule="evenodd"
    d="M39.4309 7.8C22.1996 7.8 8.23091 21.7687 8.23091 39C8.23091 56.2314 22.1996 70.2 39.4309 70.2C56.6623 70.2 70.6309 56.2314 70.6309 39C70.6309 21.7687 56.6623 7.8 39.4309 7.8ZM0.430908 39C0.430908 17.4609 17.8918 0 39.4309 0C60.9698 0 78.4309 17.4609 78.4309 39C78.4309 60.5389 60.9698 78 39.4309 78C17.8918 78 0.430908 60.5389 0.430908 39ZM38.7617 18.5537C40.9156 18.5537 42.6617 20.2998 42.6617 22.4537V41.8256L56.4166 47.0547C58.4302 47.8198 59.4418 50.0725 58.6762 52.0857C57.9111 54.0992 55.6584 55.1109 53.6452 54.3453L37.376 48.1611C35.8624 47.5855 34.8617 46.1347 34.8617 44.5154V22.4537C34.8617 20.2998 36.6077 18.5537 38.7617 18.5537Z"
  />
</svg>
