<svg
  width="79"
  height="78"
  viewBox="0 0 79 78"
  xmlns="http://www.w3.org/2000/svg"
>
  <path
    fill-rule="evenodd"
    clip-rule="evenodd"
    d="M1 39C1 17.4609 18.4609 0 40 0C61.5389 0 79 17.4609 79 39C79 60.5389 61.5389 78 40 78C18.4609 78 1 60.5389 1 39Z"
  />
  <path
    fill-rule="evenodd"
    clip-rule="evenodd"
    d="M39.3308 18.5537C41.4848 18.5537 43.2308 20.2998 43.2308 22.4537V41.8256L56.9857 47.0547C58.9993 47.8198 60.0109 50.0725 59.2454 52.0857C58.4802 54.0992 56.2275 55.1109 54.2144 54.3453L37.9451 48.1611C36.4315 47.5855 35.4308 46.1347 35.4308 44.5154V22.4537C35.4308 20.2998 37.1768 18.5537 39.3308 18.5537Z"
    fill="white"
  />
</svg>
