<svg
  width="100"
  height="69"
  viewBox="0 0 100 69"
  xmlns="http://www.w3.org/2000/svg"
>
  <path
    fill-rule="evenodd"
    clip-rule="evenodd"
    d="M24.8452 0C27.579 0 29.7952 2.20662 29.7952 4.92857V52.1729L41.1451 40.8722C43.0781 38.9475 46.2124 38.9475 48.1454 40.8722C50.0784 42.7968 50.0784 45.9175 48.1454 47.8421L28.3454 67.5564C26.4123 69.481 23.2782 69.481 21.345 67.5564L1.54502 47.8421C-0.388054 45.9175 -0.388054 42.7968 1.54502 40.8722C3.47815 38.9475 6.61229 38.9475 8.54542 40.8722L19.8952 52.1729V4.92857C19.8952 2.20662 22.1115 0 24.8452 0ZM70.8452 1.44353C72.7781 -0.481176 75.9125 -0.481176 77.8455 1.44353L97.6455 21.1578C99.5785 23.0826 99.5785 26.2032 97.6455 28.1278C95.7125 30.0525 92.5782 30.0525 90.6452 28.1278L79.2953 16.8272V64.0714C79.2953 66.7935 77.0792 69 74.3453 69C71.6114 69 69.3953 66.7935 69.3953 64.0714V16.8272L58.0454 28.1278C56.1125 30.0525 52.9781 30.0525 51.0451 28.1278C49.1122 26.2032 49.1122 23.0826 51.0451 21.1578L70.8452 1.44353Z"
  />
</svg>
