<svg
  width="83"
  height="78"
  viewBox="0 0 83 78"
  xmlns="http://www.w3.org/2000/svg"
>
  <path
    fill-rule="evenodd"
    clip-rule="evenodd"
    d="M36.5877 3.11461C38.4638 -1.03821 44.3979 -1.0382 46.2741 3.11461L55.4373 23.399L77.6861 25.7893C82.2412 26.2786 84.0752 31.886 80.6794 34.9418L64.0938 49.8684L68.681 71.6302C69.6201 76.0856 64.8192 79.5512 60.8447 77.287L41.4311 66.2276L22.0171 77.287C18.0425 79.5512 13.2416 76.0856 14.1807 71.6302L18.768 49.8684L2.1823 34.9418C-1.21326 31.886 0.620552 26.2786 5.17553 25.7893L27.4244 23.399L36.5877 3.11461ZM41.4311 9.70873L33.5059 27.252C32.7339 28.9609 31.1077 30.1347 29.2334 30.3361L9.99114 32.4032L24.3355 45.3127C25.7327 46.5702 26.3539 48.4696 25.9674 50.3031L22.0001 69.1239L38.7903 59.5591C40.4259 58.6275 42.4359 58.6275 44.0715 59.5591L60.8619 69.1239L56.8945 50.3031C56.5081 48.4696 57.1289 46.5705 58.5262 45.3127L72.8707 32.4032L53.6283 30.3361C51.7539 30.1347 50.128 28.9609 49.3558 27.252L41.4311 9.70873Z"
  />
</svg>
