<svg
  width="116"
  height="115"
  viewBox="0 0 116 115"
  xmlns="http://www.w3.org/2000/svg"
>
  <path
    d="M1.98836 22.4324L22.8978 1.52268C23.8843 0.571142 25.2051 0.0451545 26.5757 0.0580243C27.9463 0.0708941 29.257 0.621591 30.2256 1.59149C31.1941 2.56139 31.7429 3.87291 31.7538 5.24354C31.7648 6.61417 31.2369 7.93428 30.284 8.91951L18.2977 20.906H42.2703C43.6567 20.906 44.9863 21.4568 45.9666 22.4371C46.9469 23.4174 47.4977 24.7471 47.4977 26.1335C47.4977 27.5199 46.9469 28.8495 45.9666 29.8298C44.9863 30.8101 43.6567 31.3609 42.2703 31.3609H18.2977L30.284 43.3474C30.7833 43.8296 31.1815 44.4064 31.4555 45.0442C31.7294 45.682 31.8736 46.3679 31.8796 47.062C31.8857 47.7561 31.7534 48.4445 31.4906 49.0869C31.2277 49.7293 30.8396 50.313 30.3488 50.8038C29.858 51.2946 29.2743 51.6828 28.6319 51.9456C27.9895 52.2084 27.3012 52.3407 26.6071 52.3347C25.913 52.3287 25.2271 52.1844 24.5893 51.9105C23.9515 51.6365 23.3747 51.2383 22.8925 50.739L1.98314 29.8293C1.49746 29.3434 1.1123 28.7666 0.849688 28.1318C0.587073 27.4971 0.452153 26.8167 0.452638 26.1298C0.453124 25.4428 0.589005 24.7627 0.852517 24.1282C1.11603 23.4938 1.502 22.9176 1.98836 22.4324ZM102.092 39.7614C98.1408 37.6192 93.706 36.5266 89.2119 36.5883H68.5796V16.2588C68.6256 12.4683 67.3362 8.78232 64.9372 5.84713C62.5382 2.91193 59.1828 0.914646 55.4589 0.205368C51.7933 -0.388202 48.0354 0.314223 44.8317 2.19179C43.6387 2.89886 42.7755 4.05089 42.4319 5.39443C42.0883 6.73797 42.2925 8.163 42.9995 9.356C43.7066 10.549 44.8586 11.4123 46.2021 11.7559C47.5456 12.0995 48.9706 11.8953 50.1636 11.1882C51.2527 10.5353 52.5423 10.3012 53.7914 10.5296C55.0662 10.8409 56.1941 11.5836 56.9839 12.6316C57.7737 13.6796 58.1768 14.9685 58.1249 16.2797V41.8158C58.1249 43.2022 58.6756 44.5318 59.6559 45.5121C60.6362 46.4925 61.9658 47.0432 63.3522 47.0432H89.2119C91.912 46.9821 94.5827 47.6138 96.9693 48.878C99.7174 50.377 101.943 52.6778 103.351 55.4739C104.758 58.2701 105.28 61.4288 104.847 64.529L102.641 79.9081C101.534 87.5061 98.0049 94.5442 92.5783 99.9762C91.1247 101.429 89.3983 102.581 87.4983 103.365C85.5983 104.149 83.5622 104.55 81.5068 104.545H49.7872C47.7318 104.55 45.6957 104.149 43.7957 103.365C41.8957 102.581 40.1693 101.429 38.7157 99.9762L22.8978 84.2103C22.3584 83.6704 21.9438 83.0189 21.683 82.3016C21.4223 81.5844 21.3218 80.8187 21.3885 80.0585C21.4553 79.2982 21.6877 78.5618 22.0695 77.901C22.4512 77.2401 22.973 76.6709 23.5982 76.2332C24.7254 75.5544 26.0513 75.2827 27.3546 75.4634C28.6579 75.6442 29.8598 76.2665 30.7597 77.2264L38.6739 85.1147C39.4055 85.844 40.3369 86.3402 41.3503 86.5406C42.3638 86.7411 43.4139 86.6367 44.3681 86.2407C45.3223 85.8447 46.1377 85.1748 46.7115 84.3157C47.2852 83.4566 47.5915 82.4467 47.5917 81.4136V47.0432C47.5917 45.6568 47.041 44.3272 46.0607 43.3469C45.0804 42.3665 43.7508 41.8158 42.3644 41.8158C40.978 41.8158 39.6484 42.3665 38.6681 43.3469C37.6878 44.3272 37.137 45.6568 37.137 47.0432V68.9044C34.4504 66.5733 31.0689 65.1952 27.5182 64.9844C23.9675 64.7736 20.4467 65.7419 17.5031 67.7386C15.6451 69.0612 14.0978 70.7732 12.9693 72.7552C11.8408 74.7372 11.1582 76.9416 10.9691 79.2145C10.78 81.4874 11.0889 83.7742 11.8744 85.9154C12.6598 88.0567 13.9028 90.0008 15.5167 91.6123L31.3399 107.378C33.7598 109.803 36.6357 111.725 39.8018 113.033C42.9679 114.341 46.3616 115.01 49.7872 115H81.5068C84.9331 115.009 88.3272 114.34 91.494 113.032C94.6608 111.724 97.5378 109.802 99.9593 107.378C106.987 100.343 111.555 91.2277 112.986 81.3875L115.192 66.0084C115.935 60.8204 115.08 55.529 112.74 50.8397C110.399 46.1503 106.685 42.2858 102.092 39.7614Z"
  />
</svg>
