<svg
  width="116"
  height="115"
  viewBox="0 0 116 115"
  xmlns="http://www.w3.org/2000/svg"
>
  <path
    d="M26.6765 68.9059V15.6819C26.6754 13.4108 27.1692 11.1667 28.1235 9.10578C29.0777 7.04485 30.4696 5.21654 32.2022 3.74803C33.9531 2.26721 36.0046 1.18392 38.2149 0.572947C40.4253 -0.0380276 42.7419 -0.162141 45.0049 0.209173C48.7281 0.919517 52.0826 2.91718 54.4807 5.85219C56.8788 8.7872 58.1676 12.4724 58.1213 16.2621V36.5909H68.4042C69.7907 36.5909 71.1204 37.1417 72.1008 38.122C73.0812 39.1023 73.6319 40.4318 73.6319 41.8182C73.6319 43.2046 73.0812 44.5341 72.1008 45.5144C71.1204 46.4947 69.7907 47.0455 68.4042 47.0455H52.8935C51.5071 47.0455 50.1774 46.4947 49.197 45.5144C48.2166 44.5341 47.6658 43.2046 47.6658 41.8182V16.2621C47.7168 14.9511 47.3133 13.6627 46.5236 12.615C45.7339 11.5672 44.6064 10.8244 43.332 10.5121C42.5745 10.3744 41.7959 10.4046 41.0513 10.6007C40.3067 10.7969 39.6143 11.1541 39.0229 11.6472C38.4315 12.1403 37.9557 12.7572 37.6289 13.4544C37.3022 14.1515 37.1325 14.912 37.1319 15.6819V81.4147C37.1317 82.4478 36.8254 83.4576 36.2516 84.3167C35.6778 85.1758 34.8623 85.8456 33.908 86.2416C32.9538 86.6376 31.9036 86.742 30.8901 86.5416C29.8765 86.3412 28.9451 85.845 28.2134 85.1156L20.3091 77.2277C19.4091 76.2678 18.2072 75.6455 16.9038 75.4648C15.6003 75.284 14.2744 75.5557 13.1471 76.2345C12.5219 76.6721 12 77.2414 11.6182 77.9022C11.2365 78.563 11.004 79.2994 10.9373 80.0596C10.8705 80.8199 10.971 81.5855 11.2318 82.3027C11.4925 83.02 11.9072 83.6714 12.4466 84.2113L28.2553 99.9767C29.7089 101.43 31.4354 102.582 33.3356 103.366C35.2357 104.15 37.272 104.551 39.3276 104.545H71.0494C73.105 104.551 75.1413 104.15 77.0414 103.366C78.9416 102.582 80.6681 101.43 82.1218 99.9767C87.5487 94.5449 91.078 87.5071 92.1851 79.9093L94.3912 64.5307C94.4698 63.8357 94.6871 63.1635 95.0302 62.554C95.3733 61.9445 95.8352 61.4101 96.3886 60.9823C96.942 60.5545 97.5756 60.2422 98.2519 60.0637C98.9282 59.8852 99.6335 59.8443 100.326 59.9433C101.018 60.0423 101.684 60.2793 102.283 60.6401C102.882 61.001 103.403 61.4784 103.814 62.0441C104.226 62.6098 104.519 63.2523 104.678 63.9335C104.836 64.6147 104.856 65.3208 104.737 66.01L102.531 81.3886C101.1 91.2285 96.5313 100.344 89.5033 107.379C87.0816 109.802 84.2045 111.724 81.0374 113.032C77.8704 114.34 74.476 115.009 71.0494 115H39.3276C35.9017 115.01 32.5077 114.341 29.3414 113.033C26.1751 111.725 23.299 109.803 20.8789 107.379L5.0546 91.6131C3.44054 90.0017 2.19743 88.0576 1.41195 85.9164C0.626465 83.7752 0.317518 81.4885 0.506647 79.2156C0.695776 76.9428 1.37843 74.7386 2.50701 72.7567C3.63559 70.7747 5.18293 69.0628 7.04114 67.7402C9.98494 65.7435 13.506 64.7753 17.0569 64.9861C20.6079 65.1969 23.9896 66.5749 26.6765 68.9059ZM113.917 22.4355L93.0059 1.52644C92.0199 0.574256 90.6994 0.0473768 89.3287 0.0592867C87.958 0.0711966 86.6468 0.620942 85.6776 1.59012C84.7083 2.5593 84.1585 3.87036 84.1466 5.24093C84.1347 6.6115 84.6616 7.93192 85.6139 8.9178L97.6063 20.9091H73.6319C72.2455 20.9091 70.9158 21.4599 69.9354 22.4402C68.955 23.4205 68.4042 24.75 68.4042 26.1364C68.4042 27.5228 68.955 28.8523 69.9354 29.8326C70.9158 30.8129 72.2455 31.3637 73.6319 31.3637H97.6063L85.6191 43.3498C85.1198 43.832 84.7216 44.4088 84.4476 45.0465C84.1736 45.6843 84.0294 46.3702 84.0233 47.0643C84.0173 47.7584 84.1496 48.4467 84.4124 49.0891C84.6753 49.7315 85.0635 50.3151 85.5543 50.8059C86.0452 51.2967 86.6289 51.6849 87.2713 51.9477C87.9138 52.2105 88.6022 52.3428 89.2963 52.3368C89.9904 52.3307 90.6764 52.1865 91.3142 51.9126C91.952 51.6386 92.5289 51.2404 93.0111 50.7411L113.922 29.8321C114.408 29.3463 114.793 28.7695 115.056 28.1347C115.318 27.5 115.453 26.8197 115.453 26.1327C115.452 25.4458 115.316 24.7657 115.053 24.1313C114.789 23.4969 114.403 22.9206 113.917 22.4355Z"
  />
</svg>
