<svg
  width="72"
  height="78"
  viewBox="0 0 72 78"
  xmlns="http://www.w3.org/2000/svg"
>
  <path
    fill-rule="evenodd"
    clip-rule="evenodd"
    d="M18.536 14.1818H3.98091C2.02031 14.1818 0.430908 15.7692 0.430908 17.7273C0.430908 19.6854 2.02031 21.2727 3.98091 21.2727H7.74586L10.6717 68.027C11.0225 73.6327 15.6771 78 21.301 78H50.5608C56.1847 78 60.8391 73.6327 61.1902 68.027L64.1161 21.2727H67.8809C69.8416 21.2727 71.4309 19.6854 71.4309 17.7273C71.4309 15.7692 69.8416 14.1818 67.8809 14.1818H60.8068C60.7873 14.1816 60.7678 14.1816 60.7482 14.1818H53.3259C51.6812 6.09024 44.5184 0 35.9309 0C27.3436 0 20.1806 6.09024 18.536 14.1818ZM25.8869 14.1818H45.9749C44.513 10.0507 40.5679 7.09091 35.9309 7.09091C31.2939 7.09091 27.3489 10.0507 25.8869 14.1818ZM57.0019 21.2727H14.8597L17.7579 67.5849C17.8749 69.4533 19.4264 70.9091 21.301 70.9091H50.5608C52.4356 70.9091 53.9869 69.4533 54.1041 67.5849L57.0019 21.2727ZM44.0214 31.9435C45.9774 32.0803 47.4521 33.7744 47.315 35.7279L45.8294 56.9485C45.6927 58.9021 43.9962 60.3748 42.0405 60.2383C40.0844 60.1015 38.6097 58.4075 38.7468 56.4539L40.2324 35.2333C40.3691 33.2798 42.0657 31.8071 44.0214 31.9435ZM27.8405 31.9438C29.7962 31.8072 31.4927 33.2798 31.6294 35.2333L33.1154 56.4543C33.2521 58.4075 31.7774 60.1018 29.8217 60.2383C27.8657 60.3748 26.1693 58.9021 26.0326 56.9489L24.5467 35.7279C24.41 33.7747 25.8846 32.0803 27.8405 31.9438Z"
  />
</svg>
